<?xml version="1.0" encoding="utf-8"?>
<!-- Generator: Adobe Illustrator 23.0.4, SVG Export Plug-In . SVG Version: 6.00 Build 0)  -->
<svg version="1.1" id="Layer_1" xmlns="http://www.w3.org/2000/svg" xmlns:xlink="http://www.w3.org/1999/xlink" x="0px" y="0px"
	 viewBox="0 0 146.9 101.2" style="enable-background:new 0 0 146.9 101.2;" xml:space="preserve">
<style type="text/css">
	.st0{fill:#FFFFFF;}
	.st1{fill:#565759;}
	.st2{fill:#F47641;}
	.st3{fill:#F8BB4A;}
	.st4{fill:#5E6062;}
	.st5{fill:#FF7E3E;}
	.st6{fill:#F9BB4B;}
	.st7{fill:none;}
	.st8{fill:#E6E6E6;}
	.st9{fill:#B3B3B3;}
	.st10{fill:#0D82DC;}
	.st11{fill:none;stroke:#5E6062;stroke-width:0.75;stroke-linecap:round;stroke-linejoin:round;stroke-miterlimit:10;}
	.st12{fill:#74A853;}
</style>
<g>
	<g>
		<path class="st3" d="M12.9,14.4v-2c0.9,0,1.6-0.1,2-0.2c0.6-0.1,1.1-0.4,1.5-0.8c0.3-0.3,0.5-0.6,0.6-1.1c0.1-0.3,0.1-0.5,0.1-0.6
			h2.5V25h-3.1V14.4H12.9z"/>
	</g>
	<g>
		<path class="st3" d="M22.7,21.8h3.2V25h-3.2V21.8z"/>
	</g>
	<g>
		<path class="st3" d="M26.5,14.4v-2c0.9,0,1.6-0.1,2-0.2c0.6-0.1,1.1-0.4,1.5-0.8c0.3-0.3,0.5-0.6,0.6-1.1c0.1-0.3,0.1-0.5,0.1-0.6
			h2.5V25h-3.1V14.4H26.5z"/>
	</g>
	<path class="st3" d="M47.7,52.9h-31c-2.1,0-3.8,1.7-3.8,3.8v10.2c0,2.1,1.7,3.8,3.8,3.8h31V52.9z"/>
	<g>
		<path class="st4" d="M64.9,62.2c0.3,0,0.5-0.1,0.6-0.1c0.2-0.1,0.3-0.2,0.3-0.4c0-0.2-0.1-0.4-0.2-0.5c-0.2-0.1-0.4-0.1-0.7-0.1
			c-0.3,0-0.6,0.1-0.7,0.3c-0.1,0.1-0.2,0.3-0.2,0.5h-1.4c0-0.5,0.2-0.9,0.4-1.2c0.4-0.5,1-0.7,2-0.7c0.6,0,1.1,0.1,1.6,0.4
			c0.5,0.2,0.7,0.7,0.7,1.4v2.5c0,0.2,0,0.4,0,0.6c0,0.2,0,0.3,0.1,0.4s0.1,0.1,0.2,0.2v0.2H66c0-0.1-0.1-0.2-0.1-0.3
			c0-0.1,0-0.2,0-0.3c-0.2,0.2-0.4,0.4-0.7,0.6c-0.3,0.2-0.7,0.3-1.1,0.3c-0.5,0-0.9-0.1-1.2-0.4c-0.3-0.3-0.5-0.7-0.5-1.2
			c0-0.7,0.3-1.2,0.8-1.5c0.3-0.2,0.7-0.3,1.3-0.4L64.9,62.2z M65.8,62.9c-0.1,0.1-0.2,0.1-0.3,0.1s-0.2,0.1-0.4,0.1l-0.3,0.1
			c-0.3,0.1-0.5,0.1-0.7,0.2c-0.2,0.1-0.3,0.3-0.3,0.6c0,0.2,0.1,0.4,0.2,0.5c0.1,0.1,0.3,0.2,0.5,0.2c0.3,0,0.6-0.1,0.9-0.3
			c0.3-0.2,0.4-0.5,0.4-1V62.9z"/>
		<path class="st4" d="M68.5,64H70v1.5h-1.5V64z"/>
	</g>
	<g>
		<path class="st4" d="M67.5,69.4c0.4,0.5,0.6,1.2,0.6,2c0,0.9-0.2,1.6-0.6,2.1c-0.4,0.6-1,0.8-1.7,0.8c-0.5,0-0.8-0.1-1.1-0.3
			c-0.2-0.1-0.3-0.3-0.5-0.6v0.7h-1.4v-7.4h1.4v2.6c0.2-0.3,0.4-0.5,0.6-0.6c0.3-0.2,0.6-0.3,1-0.3C66.5,68.6,67.1,68.9,67.5,69.4z
			 M66.3,72.8c0.2-0.3,0.3-0.7,0.3-1.2c0-0.4-0.1-0.7-0.2-1c-0.2-0.5-0.5-0.7-1.1-0.7c-0.5,0-0.9,0.2-1.1,0.7
			c-0.1,0.3-0.2,0.6-0.2,1c0,0.5,0.1,0.9,0.3,1.2c0.2,0.3,0.5,0.5,1,0.5C65.8,73.2,66.1,73.1,66.3,72.8z"/>
		<path class="st4" d="M69.1,72.8h1.5v1.5h-1.5V72.8z"/>
	</g>
	<g>
		<path class="st4" d="M66.1,78.1c0-0.2-0.1-0.4-0.2-0.6c-0.2-0.2-0.4-0.3-0.8-0.3c-0.5,0-0.8,0.2-1,0.7c-0.1,0.3-0.1,0.6-0.1,1
			c0,0.4,0,0.7,0.1,1c0.2,0.5,0.5,0.7,1,0.7c0.3,0,0.6-0.1,0.7-0.3c0.1-0.2,0.2-0.4,0.3-0.7h1.5c0,0.4-0.2,0.9-0.5,1.2
			c-0.5,0.6-1.1,0.9-2,0.9c-0.9,0-1.5-0.3-2-0.8c-0.4-0.5-0.6-1.2-0.6-2c0-0.9,0.2-1.7,0.7-2.2c0.5-0.5,1.1-0.8,1.9-0.8
			c0.7,0,1.3,0.2,1.7,0.5c0.4,0.3,0.7,0.9,0.8,1.6H66.1z"/>
		<path class="st4" d="M68.5,80.1H70v1.5h-1.5V80.1z"/>
	</g>
	<path class="st4" d="M113.9,28.5H64.3c-1.1,0-2-0.9-2-2v0c0-1.1,0.9-2,2-2h49.6c1.1,0,2,0.9,2,2v0C115.9,27.6,115,28.5,113.9,28.5z
		"/>
	<path class="st4" d="M113.9,44.5H64.3c-1.1,0-2-0.9-2-2v0c0-1.1,0.9-2,2-2h49.6c1.1,0,2,0.9,2,2v0C115.9,43.6,115,44.5,113.9,44.5z
		"/>
	<path class="st4" d="M87.1,52.5H64.3c-1.1,0-2-0.9-2-2v0c0-1.1,0.9-2,2-2h22.8c1.1,0,2,0.9,2,2v0C89.1,51.6,88.2,52.5,87.1,52.5z"
		/>
	<path class="st4" d="M113.9,36.5H64.3c-1.1,0-2-0.9-2-2v0c0-1.1,0.9-2,2-2h49.6c1.1,0,2,0.9,2,2v0C115.9,35.6,115,36.5,113.9,36.5z
		"/>
	<path class="st4" d="M114.2,65.7H77.3c-1.1,0-2-0.9-2-2v0c0-1.1,0.9-2,2-2h36.9c1.1,0,2,0.9,2,2v0
		C116.2,64.8,115.3,65.7,114.2,65.7z"/>
	<path class="st4" d="M95.1,77.7H77.3c-1.1,0-2,0.9-2,2s0.9,2,2,2h17.1C94.3,80.3,94.6,78.9,95.1,77.7z"/>
	<path class="st2" d="M144.3,68l-2.2-2.2c-1.7-1.7-4.3-1.6-5.9,0.1l-18.8,19.7l-9.7-9.7c-1.7-1.7-4.3-1.6-5.9,0.1l-2.1,2.2
		c-1.6,1.7-1.6,4.4,0.1,6.1l14.8,14.9c1.7,1.7,4.3,1.6,5.9-0.1l23.9-25C146,72.4,146,69.7,144.3,68z"/>
	<path class="st4" d="M47.7,44.9H14.9c-1.1,0-2,0.9-2,2s0.9,2,2,2h32.8V44.9z"/>
	<path class="st4" d="M47.7,37H14.9c-1.1,0-2,0.9-2,2s0.9,2,2,2h32.8V37z"/>
	<path class="st4" d="M47.7,28.8H14.9c-1.1,0-2,0.9-2,2v0c0,1.1,0.9,2,2,2h32.8V28.8z"/>
	<rect x="38.5" y="20.2" class="st4" width="9.1" height="4"/>
	<path class="st4" d="M52.9,11.5H38.5v4h10.3C49.7,13.8,51.1,12.4,52.9,11.5z"/>
	<path class="st4" d="M47.7,75.5H8.1c-1.4,0-2.6-1.2-2.6-2.6V7.7c0-1.4,1.2-2.6,2.6-2.6h60.3c1.4,0,2.6,1.2,2.6,2.6v2.7h4.2v-4
		c0-3-2.5-5.5-5.5-5.5h-63c-3,0-5.5,2.5-5.5,5.5v67.8c0,3,2.5,5.5,5.5,5.5h40.9V75.5z"/>
	<path class="st4" d="M98.9,73.1c1.5-1.6,3.6-2.5,5.8-2.5c2.2,0,4.3,0.8,5.9,2.4l0.7,0.7h3c1.1,0,2-0.9,2-2c0-1.1-0.9-2-2-2H77.3
		c-1.1,0-2,0.9-2,2c0,1.1,0.9,2,2,2h20.9L98.9,73.1z"/>
	<path class="st4" d="M98.8,89H58.5c-1.4,0-2.6-1.2-2.6-2.6V21.3c0-1.4,1.2-2.6,2.6-2.6h60.3c1.4,0,2.6,1.2,2.6,2.6v54.2l4.2-4.4
		V19.9c0-3-2.5-5.5-5.5-5.5h-63c-3,0-5.5,2.5-5.5,5.5v67.8c0,3,2.5,5.5,5.5,5.5H103L98.8,89z"/>
</g>
</svg>
