<?xml version="1.0" encoding="utf-8"?>
<!-- Generator: Adobe Illustrator 23.0.4, SVG Export Plug-In . SVG Version: 6.00 Build 0)  -->
<svg version="1.1" id="Layer_1" xmlns="http://www.w3.org/2000/svg" xmlns:xlink="http://www.w3.org/1999/xlink" x="0px" y="0px"
	 viewBox="0 0 245.2 67" style="enable-background:new 0 0 245.2 67;" xml:space="preserve">
<style type="text/css">
	.st0{fill:#FFFFFF;}
	.st1{fill:#565759;}
	.st2{fill:#F47641;}
	.st3{fill:#F8BB4A;}
	.st4{fill:#5E6062;}
	.st5{fill:#FF7E3E;}
	.st6{fill:#F9BB4B;}
	.st7{fill:none;}
	.st8{fill:#E6E6E6;}
	.st9{fill:#B3B3B3;}
	.st10{fill:#0D82DC;}
	.st11{fill:none;stroke:#5E6062;stroke-width:0.75;stroke-linecap:round;stroke-linejoin:round;stroke-miterlimit:10;}
	.st12{fill:#74A853;}
</style>
<g>
	<g>
		<path class="st1" d="M228.4,8.5h-6c-0.6,0-1-0.4-1-1v-6c0-0.6,0.4-1,1-1h6c0.6,0,1,0.4,1,1v6C229.4,8.1,228.9,8.5,228.4,8.5z"/>
		<path class="st1" d="M242.4,8.5h-6c-0.6,0-1-0.4-1-1v-6c0-0.6,0.4-1,1-1h6c0.6,0,1,0.4,1,1v6C243.4,8.1,242.9,8.5,242.4,8.5z"/>
		<path class="st1" d="M228.4,23h-6c-0.6,0-1-0.4-1-1v-6c0-0.6,0.4-1,1-1h6c0.6,0,1,0.4,1,1v6C229.4,22.6,228.9,23,228.4,23z"/>
		<path class="st1" d="M242.4,23h-6c-0.6,0-1-0.4-1-1v-6c0-0.6,0.4-1,1-1h6c0.6,0,1,0.4,1,1v6C243.4,22.6,242.9,23,242.4,23z"/>
		<path class="st1" d="M228.4,37.5h-6c-0.6,0-1-0.4-1-1v-6c0-0.6,0.4-1,1-1h6c0.6,0,1,0.4,1,1v6C229.4,37.1,228.9,37.5,228.4,37.5z"
			/>
		<path class="st1" d="M242.4,37.5h-6c-0.6,0-1-0.4-1-1v-6c0-0.6,0.4-1,1-1h6c0.6,0,1,0.4,1,1v6C243.4,37.1,242.9,37.5,242.4,37.5z"
			/>
		<path class="st1" d="M228.4,52h-6c-0.6,0-1-0.4-1-1v-6c0-0.6,0.4-1,1-1h6c0.6,0,1,0.4,1,1v6C229.4,51.6,228.9,52,228.4,52z"/>
		<path class="st1" d="M242.4,52h-6c-0.6,0-1-0.4-1-1v-6c0-0.6,0.4-1,1-1h6c0.6,0,1,0.4,1,1v6C243.4,51.6,242.9,52,242.4,52z"/>
		<path class="st1" d="M228.4,66.5h-6c-0.6,0-1-0.4-1-1v-6c0-0.6,0.4-1,1-1h6c0.6,0,1,0.4,1,1v6C229.4,66.1,228.9,66.5,228.4,66.5z"
			/>
		<path class="st1" d="M242.4,66.5h-6c-0.6,0-1-0.4-1-1v-6c0-0.6,0.4-1,1-1h6c0.6,0,1,0.4,1,1v6C243.4,66.1,242.9,66.5,242.4,66.5z"
			/>
	</g>
	<g>
		<path class="st1" d="M153.1,12.5h9.6c0.7,0,1.3,0.3,1.9,0.8c0.5,0.5,0.8,1.1,0.8,1.9v0.2c0,0.1-0.1,0.3-0.2,0.4
			c-0.1,0.1-0.3,0.2-0.4,0.2h-2.8v40.2c0,1.5-0.5,2.7-1.5,3.7c-1,1-2.3,1.5-3.7,1.5h-31.5c-1.5,0-2.7-0.5-3.7-1.5
			c-1-1-1.5-2.3-1.5-3.7V16H117c-0.1,0-0.3-0.1-0.4-0.2c-0.1-0.1-0.2-0.3-0.2-0.4v-0.2c0-0.7,0.3-1.3,0.8-1.9
			c0.5-0.5,1.1-0.8,1.9-0.8h9.6l3.7-4.9c1-1.4,2.4-2.1,4.2-2.1h8.8c1.8,0,3.1,0.7,4.2,2.1L153.1,12.5z M158.4,56.3V16h-35v40.2
			c0,0.5,0.2,0.9,0.5,1.3s0.7,0.5,1.3,0.5h31.5c0.5,0,0.9-0.2,1.3-0.5S158.4,56.8,158.4,56.3z M130.4,51.4c0,0.4,0.1,0.7,0.4,0.9
			c0.3,0.3,0.6,0.4,0.9,0.4h0.9c0.4,0,0.7-0.1,0.9-0.4c0.3-0.3,0.4-0.6,0.4-0.9V22.6c0-0.4-0.1-0.7-0.4-0.9
			c-0.3-0.3-0.6-0.4-0.9-0.4h-0.9c-0.4,0-0.7,0.1-0.9,0.4c-0.3,0.3-0.4,0.6-0.4,0.9V51.4z M136.5,9c-0.6,0-1.1,0.2-1.4,0.7l-2.1,2.8
			h15.8l-2.1-2.8c-0.4-0.4-0.8-0.7-1.4-0.7H136.5z M139.1,51.4c0,0.4,0.1,0.7,0.4,0.9c0.3,0.3,0.6,0.4,0.9,0.4h0.9
			c0.4,0,0.7-0.1,0.9-0.4c0.3-0.3,0.4-0.6,0.4-0.9V22.6c0-0.4-0.1-0.7-0.4-0.9c-0.3-0.3-0.6-0.4-0.9-0.4h-0.9
			c-0.4,0-0.7,0.1-0.9,0.4c-0.3,0.3-0.4,0.6-0.4,0.9V51.4z M147.9,51.4c0,0.4,0.1,0.7,0.4,0.9c0.3,0.3,0.6,0.4,0.9,0.4h0.9
			c0.4,0,0.7-0.1,0.9-0.4c0.3-0.3,0.4-0.6,0.4-0.9V22.6c0-0.4-0.1-0.7-0.4-0.9c-0.3-0.3-0.6-0.4-0.9-0.4h-0.9
			c-0.4,0-0.7,0.1-0.9,0.4c-0.3,0.3-0.4,0.6-0.4,0.9V51.4z"/>
	</g>
	<g>
		<g>
			<path id="_x30_8" class="st1" d="M6.5,53H38c2.6,0,4.6-2.1,4.6-4.6V6.6C42.7,4.1,40.6,2,38,2H16.7c-1.2,0-2.4,0.5-3.3,1.4
				L3.2,13.6c-0.9,0.9-1.4,2-1.4,3.3v31.5C1.9,50.9,4,53,6.5,53z M39.6,6.6v41.7c0,0.9-0.7,1.5-1.5,1.5H6.5c-0.9,0-1.5-0.7-1.5-1.5
				V17.1h10.5c0.9,0,1.5-0.7,1.5-1.5V5.1h21C38.9,5.1,39.6,5.8,39.6,6.6z M13.9,7.3V14H7.1L13.9,7.3z"/>
			<path class="st0" d="M53.4,15.5V15h-0.5c-0.8-0.6-1.8-1-2.8-1H28.7c-1.2,0-2.4,0.5-3.3,1.4L15.2,25.6c-0.9,0.9-1.4,2-1.4,3.3
				v31.5c0,2.6,2.1,4.6,4.6,4.6H50c2.6,0,4.6-2.1,4.6-4.6V18.6C54.7,17.4,54.2,16.3,53.4,15.5z M25.9,19.3V26h-6.7L25.9,19.3z"/>
		</g>
		<path id="_x30_8_1_" class="st1" d="M18.5,65H50c2.6,0,4.6-2.1,4.6-4.6V18.6c0-2.6-2.1-4.6-4.6-4.6H28.7c-1.2,0-2.4,0.5-3.3,1.4
			L15.2,25.6c-0.9,0.9-1.4,2-1.4,3.3v31.5C13.9,62.9,16,65,18.5,65z M51.6,18.6v41.7c0,0.9-0.7,1.5-1.5,1.5H18.5
			c-0.9,0-1.5-0.7-1.5-1.5V29.1h10.5c0.9,0,1.5-0.7,1.5-1.5V17.1h21C50.9,17.1,51.6,17.8,51.6,18.6z M25.9,19.3V26h-6.7L25.9,19.3z"
			/>
	</g>
</g>
</svg>
