<?xml version="1.0" encoding="utf-8"?>
<!-- Generator: Adobe Illustrator 23.0.4, SVG Export Plug-In . SVG Version: 6.00 Build 0)  -->
<svg version="1.1" id="Layer_1" xmlns="http://www.w3.org/2000/svg" xmlns:xlink="http://www.w3.org/1999/xlink" x="0px" y="0px"
	 viewBox="0 0 79.7 102.2" style="enable-background:new 0 0 79.7 102.2;" xml:space="preserve">
<style type="text/css">
	.st0{fill:#FFFFFF;}
	.st1{fill:#565759;}
	.st2{fill:#F47641;}
	.st3{fill:#F8BB4A;}
	.st4{fill:#5E6062;}
	.st5{fill:#FF7E3E;}
	.st6{fill:#F9BB4B;}
	.st7{fill:none;}
	.st8{fill:#E6E6E6;}
	.st9{fill:#B3B3B3;}
	.st10{fill:#0D82DC;}
	.st11{fill:none;stroke:#5E6062;stroke-width:0.75;stroke-linecap:round;stroke-linejoin:round;stroke-miterlimit:10;}
	.st12{fill:#74A853;}
</style>
<g>
	<path class="st2" d="M68.1,14.5H18.5c-1.1,0-2-0.9-2-2v0c0-1.1,0.9-2,2-2h49.6c1.1,0,2,0.9,2,2v0C70.1,13.5,69.2,14.5,68.1,14.5z"
		/>
	<path class="st2" d="M68.1,22.2H18.5c-1.1,0-2-0.9-2-2v0c0-1.1,0.9-2,2-2h49.6c1.1,0,2,0.9,2,2v0C70.1,21.3,69.2,22.2,68.1,22.2z"
		/>
	<circle class="st0" cx="43.3" cy="58.3" r="22.1"/>
	<path class="st3" d="M47.8,69.7c-1.7,0-3-1.3-3-3v-2.4c0-1.7,1.3-3,3-3h14.9c0.2-1,0.3-2.1,0.3-3.1c0-0.9-0.1-1.8-0.2-2.7h-15
		c-1.7,0-3-1.3-3-3v-2.4c0-1.7,1.3-3,3-3h11.8c-3.5-5.2-9.6-8.7-16.4-8.7c-10.9,0-19.7,8.8-19.7,19.7S32.4,78,43.3,78
		c6.6,0,12.4-3.3,16-8.3H47.8z"/>
	<path class="st4" d="M43.3,31.6c-14.7,0-26.6,11.9-26.6,26.6c0,6,2,11.6,5.4,16.1c-0.1,0.1-0.1,0.1-0.2,0.1L2.3,94
		c-1.5,1.5-1.5,4,0,5.5s4,1.5,5.5,0L27.4,80c0.1-0.1,0.1-0.2,0.2-0.2c4.4,3.2,9.8,5.1,15.7,5.1C58,84.9,69.9,73,69.9,58.3
		C69.9,43.5,58,31.6,43.3,31.6z M43.3,80.4c-12.2,0-22.1-9.9-22.1-22.1S31,36.1,43.3,36.1S65.4,46,65.4,58.3S55.5,80.4,43.3,80.4z"
		/>
	<g>
		<path class="st0" d="M34.6,50.2c0.4-0.1,0.7-0.1,0.9-0.2c0.3-0.1,0.5-0.3,0.5-0.6c0-0.3-0.1-0.6-0.4-0.7c-0.2-0.1-0.6-0.2-1.1-0.2
			c-0.5,0-0.9,0.1-1.1,0.4c-0.2,0.2-0.3,0.4-0.3,0.8H31c0-0.7,0.3-1.3,0.6-1.8c0.6-0.7,1.6-1.1,3-1.1c0.9,0,1.7,0.2,2.5,0.5
			c0.7,0.4,1.1,1.1,1.1,2.1v3.8c0,0.3,0,0.6,0,1c0,0.3,0.1,0.5,0.1,0.6c0.1,0.1,0.2,0.2,0.3,0.3v0.3h-2.4c-0.1-0.2-0.1-0.3-0.1-0.5
			c0-0.1,0-0.3-0.1-0.5c-0.3,0.3-0.7,0.6-1.1,0.8c-0.5,0.3-1,0.4-1.6,0.4c-0.8,0-1.4-0.2-1.9-0.7c-0.5-0.4-0.7-1-0.7-1.8
			c0-1,0.4-1.8,1.2-2.2c0.4-0.3,1.1-0.4,1.9-0.5L34.6,50.2z M36,51.3c-0.1,0.1-0.3,0.2-0.4,0.2c-0.1,0.1-0.3,0.1-0.6,0.2l-0.5,0.1
			c-0.5,0.1-0.8,0.2-1,0.3c-0.3,0.2-0.5,0.5-0.5,0.9c0,0.4,0.1,0.6,0.3,0.8c0.2,0.2,0.5,0.3,0.8,0.3c0.5,0,0.9-0.1,1.3-0.4
			c0.4-0.3,0.6-0.8,0.6-1.5V51.3z"/>
		<path class="st0" d="M40.1,53h2.3v2.3h-2.3V53z"/>
	</g>
	<g>
		<path class="st0" d="M38.5,61.9c0.6,0.8,0.9,1.8,0.9,3.1c0,1.3-0.3,2.4-0.9,3.2s-1.5,1.3-2.6,1.3c-0.7,0-1.3-0.1-1.7-0.4
			c-0.3-0.2-0.5-0.5-0.8-0.9v1.1h-2.2V58h2.2v4c0.3-0.4,0.6-0.7,0.9-0.9c0.4-0.3,0.9-0.4,1.5-0.4C37,60.7,37.9,61.1,38.5,61.9z
			 M36.7,67c0.3-0.5,0.5-1.1,0.5-1.8c0-0.6-0.1-1.1-0.2-1.5c-0.3-0.7-0.8-1.1-1.6-1.1c-0.8,0-1.4,0.4-1.7,1.1
			c-0.2,0.4-0.2,0.9-0.2,1.5c0,0.7,0.2,1.3,0.5,1.8s0.8,0.7,1.5,0.7C35.9,67.7,36.3,67.5,36.7,67z"/>
		<path class="st0" d="M40.9,67h2.3v2.3h-2.3V67z"/>
	</g>
	<path class="st4" d="M72.3,1.5H14c-3.4,0-6.2,2.8-6.2,6.2v75.8l4-4V8.8c0-1.8,1.5-3.3,3.3-3.3h55.9c1.8,0,3.3,1.5,3.3,3.3v77.1
		c0,1.8-1.5,3.3-3.3,3.3H23.2l-4.3,4.3h53.5c3.4,0,6.2-2.8,6.2-6.2V7.7C78.5,4.3,75.8,1.5,72.3,1.5z"/>
	<path class="st2" d="M18.5,29.7h8c3.3-1.9,6.9-3.3,10.8-4H18.5c-1.1,0-2,0.9-2,2S17.4,29.7,18.5,29.7z"/>
</g>
</svg>
