<?xml version="1.0" encoding="utf-8"?>
<!-- Generator: Adobe Illustrator 23.0.4, SVG Export Plug-In . SVG Version: 6.00 Build 0)  -->
<svg version="1.1" id="Layer_1" xmlns="http://www.w3.org/2000/svg" xmlns:xlink="http://www.w3.org/1999/xlink" x="0px" y="0px"
	 viewBox="0 0 101.1 102.1" style="enable-background:new 0 0 101.1 102.1;" xml:space="preserve">
<style type="text/css">
	.st0{fill:#FFFFFF;}
	.st1{fill:#565759;}
	.st2{fill:#F47641;}
	.st3{fill:#F8BB4A;}
	.st4{fill:#5E6062;}
	.st5{fill:#FF7E3E;}
	.st6{fill:#F9BB4B;}
	.st7{fill:none;}
	.st8{fill:#E6E6E6;}
	.st9{fill:#B3B3B3;}
	.st10{fill:#0D82DC;}
	.st11{fill:none;stroke:#5E6062;stroke-width:0.75;stroke-linecap:round;stroke-linejoin:round;stroke-miterlimit:10;}
	.st12{fill:#74A853;}
</style>
<g>
	<path class="st4" d="M77.1,15.5h-49c-1.4,0-2.5-1.1-2.5-2.5v0c0-1.4,1.1-2.5,2.5-2.5h49c1.4,0,2.5,1.1,2.5,2.5v0
		C79.6,14.4,78.5,15.5,77.1,15.5z"/>
	<polygon class="st2" points="11.3,1.1 14.4,7.4 21.4,8.5 16.3,13.4 17.5,20.5 11.2,17.1 4.9,20.4 6.1,13.4 1.1,8.5 8.1,7.4 	"/>
	<path class="st4" d="M77.1,39.6h-49c-1.4,0-2.5-1.1-2.5-2.5v0c0-1.4,1.1-2.5,2.5-2.5h49c1.4,0,2.5,1.1,2.5,2.5v0
		C79.6,38.4,78.5,39.6,77.1,39.6z"/>
	<polygon class="st2" points="11.3,25.1 14.4,31.5 21.4,32.5 16.3,37.5 17.5,44.5 11.2,41.2 4.9,44.5 6.1,37.5 1.1,32.5 8.1,31.5 	
		"/>
	<path class="st4" d="M77.1,63.6h-49c-1.4,0-2.5-1.1-2.5-2.5v0c0-1.4,1.1-2.5,2.5-2.5h49c1.4,0,2.5,1.1,2.5,2.5v0
		C79.6,62.5,78.5,63.6,77.1,63.6z"/>
	<polygon class="st2" points="11.3,49.2 14.4,55.6 21.4,56.6 16.3,61.6 17.5,68.6 11.2,65.3 4.9,68.6 6.1,61.6 1.1,56.6 8.1,55.6 	
		"/>
	<path class="st2" d="M98.8,69.3l-2.2-2.2c-1.7-1.6-4.3-1.6-6,0.1l-19,19.3L61.9,77c-1.7-1.6-4.3-1.6-6,0.1l-2.2,2.2
		c-1.6,1.7-1.6,4.3,0.1,6l12.7,12.5l0,0l2.2,2.2c1.7,1.6,4.3,1.6,6-0.1l24.1-24.5C100.5,73.7,100.5,71,98.8,69.3z"/>
	<path class="st4" d="M47.6,82.6H27.3c-1.4,0-2.5,1.1-2.5,2.5s1.1,2.5,2.5,2.5h22.1C48.3,86.2,47.7,84.4,47.6,82.6z"/>
	<polygon class="st2" points="11.3,72.9 14.4,79.3 21.4,80.4 16.3,85.3 17.5,92.3 11.2,89 4.9,92.3 6.1,85.3 1.1,80.3 8.1,79.3 	"/>
</g>
</svg>
