<!-- Created with Inkscape (http://www.inkscape.org/) -->
<svg xmlns:rdf="http://www.w3.org/1999/02/22-rdf-syntax-ns#" xmlns="http://www.w3.org/2000/svg" version="1.1" xmlns:cc="http://creativecommons.org/ns#" xmlns:dc="http://purl.org/dc/elements/1.1/" viewBox="0 0 101 68.5">
<metadata>
<rdf:RDF>
<cc:Work rdf:about="">
<dc:format>image/svg+xml</dc:format>
<dc:type rdf:resource="http://purl.org/dc/dcmitype/StillImage"/>
<dc:title/>
</cc:Work>
</rdf:RDF>
</metadata>
<g transform="translate(-299.64844,-498.1184)">
<g transform="matrix(1.25,0,0,-1.25,305.07469,560.57722)">
<path d="M0,0c2.02,0,3.27,1.52,3.27,3.38,0,1.85-1.25,3.37-3.27,3.37s-3.27-1.52-3.27-3.37c0-1.86,1.25-3.38,3.27-3.38m0,7.72c2.54,0,4.34-1.82,4.34-4.34s-1.8-4.34-4.34-4.34-4.34,1.82-4.34,4.34,1.8,4.34,4.34,4.34" fill-rule="nonzero" fill="#565353"/>
</g>
<g transform="matrix(1.25,0,0,-1.25,318.71718,560.57722)">
<path d="M0,0c2.02,0,3.27,1.52,3.27,3.38,0,1.85-1.25,3.37-3.27,3.37-1.95,0-3.45-1.52-3.45-3.37,0-1.86,1.5-3.38,3.45-3.38m-4.41,7.5,1.07,0,0-1.45,0.036,0c0.66,1.14,2.07,1.66,3.3,1.66,2.54,0,4.34-1.82,4.34-4.34s-1.8-4.34-4.34-4.34c-1.23,0-2.64,0.519-3.3,1.66h-0.036v-5.52h-1.07v12.3z" fill-rule="nonzero" fill="#565353"/>
</g>
<g transform="matrix(1.25,0,0,-1.25,335.21631,555.48685)">
<path d="M0,0c0,1.46-1.27,2.68-2.86,2.68-2.34,0-3-2.25-3-2.68h5.86zm0.822-3.27c-0.84-1.25-2.11-1.77-3.57-1.77-2.52,0-4.18,1.8-4.18,4.36,0,2.46,1.72,4.32,4.13,4.32,2.54,0,3.88-1.95,3.88-3.86v-0.75h-6.93c0-0.893,0.625-3.11,3.13-3.11,1.09,0,2.23,0.572,2.77,1.46l0.786-0.662z" fill-rule="nonzero" fill="#565353"/>
</g>
<g transform="matrix(1.25,0,0,-1.25,339.54856,554.1026)">
<path d="m0,0c0,0.608-0.09,1.89-0.09,2.32h1.07c0.02-0.6,0.04-1.28,0.07-1.44h0.053c0.429,0.912,1.48,1.66,2.82,1.66,2.57,0,3.14-1.75,3.14-3.55v-4.91h-1.07v4.86c0,1.34-0.375,2.64-2.07,2.64-1.59,0-2.86-1.11-2.86-3.38v-4.13h-1.06v5.93z" fill-rule="nonzero" fill="#565353"/>
</g>
<g transform="matrix(1.25,0,0,-1.25,357.41106,553.76748)">
<path d="m0,0c-0.41,0.571-0.946,0.875-1.68,0.875-0.571,0-1.25-0.268-1.25-0.911,0-1.54,4.63-0.286,4.63-3.63,0-2.04-1.95-2.75-3.7-2.75-1.32,0-2.47,0.34-3.34,1.32l1.43,1.34c0.555-0.607,1.13-1.05,2.04-1.05,0.625,0,1.43,0.304,1.43,0.983,0,1.77-4.63,0.374-4.63,3.64,0,1.91,1.72,2.77,3.45,2.77,1.14,0,2.36-0.358,3.05-1.3l-1.43-1.28z" fill-rule="nonzero" fill="#565353"/>
</g>
<g transform="matrix(1.25,0,0,-1.25,360.35781,553.07473)">
<path d="m0,0,0,1.82,1.77,0,0,2.48,2.14,0,0-2.48,2.36,0,0-1.82-2.36,0,0-3.75c0-0.858,0.251-1.39,1.2-1.39,0.375,0,0.894,0.071,1.16,0.269v-1.8c-0.45-0.23-1.2-0.3-1.7-0.3-2.27,0-2.8,1.02-2.8,3.04v3.93h-1.77z" fill-rule="nonzero" fill="#565353"/>
</g>
<g transform="matrix(1.25,0,0,-1.25,376.83618,556.71548)">
<path d="m0,0-0.447,0c-1.18,0-3.21-0.089-3.21-1.32,0-0.786,0.804-1.12,1.5-1.12,1.46,0,2.16,0.768,2.16,1.96v0.48zm0.126-2.66-0.055,0c-0.607-0.964-1.61-1.39-2.75-1.39-1.59,0-3.13,0.876-3.13,2.57,0,2.79,3.25,2.98,5.4,2.98h0.537v0.232c0,1.06-0.823,1.61-1.97,1.61-0.893,0-1.72-0.357-2.29-0.893l-1.12,1.12c0.946,0.964,2.29,1.38,3.64,1.38,3.66,0,3.66-2.64,3.66-3.86v-4.93h-1.93v1.18z" fill-rule="nonzero" fill="#565353"/>
</g>
<g transform="matrix(1.25,0,0,-1.25,385.05268,555.75485)">
<path d="m0,0-2.96,3.97,2.61,0,1.71-2.57,1.86,2.57,2.45,0l-2.94-3.97,3.45-4.61h-2.61l-2.23,3.07-2.25-3.07h-2.54l3.45,4.61z" fill-rule="nonzero" fill="#565353"/>
</g>
<g transform="matrix(1.25,0,0,-1.25,376.52481,506.88573)">
<path d="M0,0c-0.044-0.915-0.821-1.62-1.74-1.58l-38.8,1.84c-0.915,0.045-1.62,0.822-1.58,1.74l0.165,3.44c0.042,0.915,0.819,1.62,1.73,1.58l38.8-1.85c0.919-0.04,1.63-0.82,1.58-1.73l-0.163-3.44z" fill-rule="nonzero" fill="#6bb62f"/>
</g>
<g transform="matrix(1.25,0,0,-1.25,360.61544,522.60723)">
<path d="m0,0c0-0.551-0.446-0.996-0.995-0.996h-31.5c-0.551,0-0.995,0.445-0.995,0.996v4.92c0,0.55,0.444,0.996,0.995,0.996h31.5c0.554,0,1-0.45,1-1v-4.92z" fill-rule="nonzero" fill="#565353"/>
</g>
<g transform="matrix(1.25,0,0,-1.25,372.72356,529.2601)">
<path d="m0,0c0.017-0.55-0.399-1.01-0.933-1.03l-35.5-1.11c-0.532-0.016-0.977,0.416-0.994,0.965l-0.092,2.92c-0.017,0.549,0.4,1.01,0.933,1.02l35.5,1.11c0.532,0.017,0.977-0.415,0.994-0.964l0.106-2.91z" fill-rule="nonzero" fill="#f0cf0e"/>
</g>
<g transform="matrix(1.25,0,0,-1.25,366.75681,536.68797)">
<path d="m0,0c0-0.549-0.418-0.995-0.936-0.995h-33.9c-0.516,0-0.935,0.446-0.935,0.995v1.95c0,0.548,0.419,0.994,0.935,0.994h33.9c0.482,0.01,0.9-0.44,0.9-0.99v-1.95z" fill-rule="nonzero" fill="#232e63"/>
</g>
<g transform="matrix(1.25,0,0,-1.25,367.84806,512.2496)">
<path d="m0,0c0-0.405-0.602-0.735-1.34-0.735h-41.1c-0.741,0-1.34,0.33-1.34,0.735v1.59c0,0.406,0.6,0.735,1.34,0.735h41.1c0.698,0.01,1.3-0.32,1.3-0.73v-1.59z" fill-rule="nonzero" fill="#f36035"/>
</g>
<g transform="matrix(1.25,0,0,-1.25,397.02906,550.79697)">
<path d="M0,0,0.617,0,1.34-1.84,2.06,0h0.597v-2.42h-0.387v2.03h-0.011l-0.798-2.03h-0.265l-0.798,2.03h-0.011v-2.03h-0.391v2.42zm-1.64-0.387-0.762,0,0,0.387,1.91,0,0-0.387-0.763,0,0-2.03-0.388,0,0,2.03z" fill-rule="nonzero" fill="#565353"/>
</g>
</g>
</svg>
