<?xml version="1.0" encoding="UTF-8" standalone="no"?>
<!-- Generator: Adobe Illustrator 23.0.2, SVG Export Plug-In . SVG Version: 6.00 Build 0)  -->

<svg
   xmlns:dc="http://purl.org/dc/elements/1.1/"
   xmlns:cc="http://creativecommons.org/ns#"
   xmlns:rdf="http://www.w3.org/1999/02/22-rdf-syntax-ns#"
   xmlns:svg="http://www.w3.org/2000/svg"
   xmlns="http://www.w3.org/2000/svg"
   xmlns:sodipodi="http://sodipodi.sourceforge.net/DTD/sodipodi-0.dtd"
   xmlns:inkscape="http://www.inkscape.org/namespaces/inkscape"
   version="1.1"
   x="0px"
   y="0px"
   viewBox="0 0 305.286 52.0274"
   style="enable-background:new 0 0 305.286 52.0274;"
   xml:space="preserve"
   id="svg2"
   inkscape:version="0.48.3.1 r9886"
   width="100%"
   height="100%"
   sodipodi:docname="logo top menu.svg"><metadata
   id="metadata179"><rdf:RDF><cc:Work
       rdf:about=""><dc:format>image/svg+xml</dc:format><dc:type
         rdf:resource="http://purl.org/dc/dcmitype/StillImage" /><dc:title></dc:title></cc:Work></rdf:RDF></metadata><defs
   id="defs177" /><sodipodi:namedview
   pagecolor="#ffffff"
   bordercolor="#666666"
   borderopacity="1"
   objecttolerance="10"
   gridtolerance="10"
   guidetolerance="10"
   inkscape:pageopacity="0"
   inkscape:pageshadow="2"
   inkscape:window-width="640"
   inkscape:window-height="480"
   id="namedview175"
   showgrid="false"
   inkscape:zoom="1.1459413"
   inkscape:cx="152.643"
   inkscape:cy="26.0137"
   inkscape:window-x="371"
   inkscape:window-y="268"
   inkscape:window-maximized="0"
   inkscape:current-layer="svg2" />
<style
   type="text/css"
   id="style4">
	.st0{fill:url(#Background_2_);}
	.st1{opacity:0.1;}
	.st2{opacity:0.2;fill:#FF7E3E;enable-background:new    ;}
	.st3{fill:#FF7E3E;}
	.st4{opacity:0.08;}
	.st5{fill-rule:evenodd;clip-rule:evenodd;fill:#FFFFFF;}
	.st6{fill:#FFFFFF;}
	.st7{fill:#424242;}
	.st8{fill:#5E6062;}
	.st9{fill-rule:evenodd;clip-rule:evenodd;fill:#E5E5E5;}
	.st10{fill:#E5E5E5;}
	.st11{fill:#221F1F;}
	.st12{fill:#4D4D4D;}
	.st13{fill:none;}
	.st14{fill:#B3B3B3;}
	.st15{fill:#CCCCCC;}
	.st16{fill:#E6E6E6;}
	.st17{fill:#BABCBE;}
	.st18{fill:#808080;}
	.st19{fill:#F3A7C8;}
	.st20{fill:#00C1DE;}
	.st21{fill:#1A1A1A;}
	.st22{fill:#858181;}
	.st23{fill:#AFACAD;}
	.st24{fill:#D1CFCD;}
	.st25{fill:#77411C;}
	.st26{fill:#999999;}
	.st27{fill:#333333;}
	.st28{fill:url(#SVGID_1_);}
</style>
<g
   id="Landing_Page_4">
</g>
<g
   id="Landing_Page_3">
	<g
   class="st4"
   id="g8">
	</g>
	<g
   id="g10">
		<line
   class="st11"
   x1="175.5111"
   y1="32.0211"
   x2="175.5088"
   y2="32.0163"
   id="line12" />
		<path
   class="st11"
   d="M185.0912,9.9723c0.0309-0.0289,0.061-0.0581,0.0922-0.0868c-0.0266,0.0244-0.053,0.0486-0.0798,0.0731    C185.0991,9.9637,185.0955,9.9673,185.0912,9.9723z"
   id="path14" />
		<path
   class="st11"
   d="M179.3779,30.2149l0.012,0.0199c0.1238-0.0347,0.2485-0.0683,0.3697-0.106    C179.6312,30.1563,179.509,30.1904,179.3779,30.2149z"
   id="path16" />
		<polygon
   class="st11"
   points="185.0239,10.0316 185.0257,10.034 185.0355,10.0248   "
   id="polygon18" />
		<path
   class="st3"
   d="M214.18,40.148c-0.3584-0.3808-0.7905-0.6792-1.2964-0.8953s-1.0717-0.324-1.6971-0.324    c-0.5797,0-1.1255,0.1223-1.6374,0.3665c-0.5115,0.2448-0.9037,0.5773-1.1768,0.9977h-0.0341v-5.9695h-1.5349v12.8943h1.5349    v-1.1599h0.0341c0.2955,0.4323,0.7019,0.7677,1.2196,1.0065c0.5174,0.2387,1.049,0.3581,1.5946,0.3581    c0.6254,0,1.1911-0.1083,1.6971-0.324c0.506-0.216,0.938-0.5174,1.2964-0.904c0.3581-0.3863,0.6335-0.8359,0.8271-1.3474    c0.1933-0.5118,0.29-1.0688,0.29-1.6714s-0.0967-1.1625-0.29-1.6802C214.8135,40.9783,214.5381,40.5291,214.18,40.148z     M213.4722,44.3098c-0.1255,0.3467-0.3016,0.6425-0.529,0.8868c-0.2274,0.2446-0.506,0.4379-0.8356,0.58    c-0.3299,0.1424-0.6993,0.2131-1.1087,0.2131s-0.7791-0.0707-1.1087-0.2131c-0.3299-0.1421-0.6085-0.3354-0.8356-0.58    c-0.2277-0.2443-0.4038-0.5401-0.5287-0.8868c-0.1255-0.3467-0.1878-0.7249-0.1878-1.1343s0.0623-0.7872,0.1878-1.1343    c0.1249-0.3467,0.301-0.6423,0.5287-0.8868c0.2271-0.2446,0.5057-0.4376,0.8356-0.58c0.3296-0.1421,0.6993-0.2131,1.1087-0.2131    s0.7788,0.071,1.1087,0.2131c0.3296,0.1424,0.6082,0.3354,0.8356,0.58c0.2274,0.2446,0.4035,0.5401,0.529,0.8868    c0.1249,0.347,0.1875,0.7249,0.1875,1.1343S213.5971,43.9631,213.4722,44.3098z"
   id="path20" />
		<path
   class="st3"
   d="M219.6185,45.4438h-0.0344l-2.3938-6.3105h-1.7739l3.3452,8.1356l-0.497,1.279    c-0.0792,0.2047-0.1581,0.3866-0.237,0.5459c-0.0792,0.1593-0.1782,0.2984-0.2967,0.4178    c-0.1188,0.1194-0.2603,0.2105-0.4239,0.2731c-0.1636,0.0623-0.3642,0.0938-0.6015,0.0938c-0.3051,0-0.6102-0.0626-0.9151-0.1875    l-0.1866,1.3983c0.2151,0.0908,0.4388,0.1505,0.6708,0.1791c0.2323,0.0282,0.4617,0.0428,0.6883,0.0428    c0.4189,0,0.7724-0.0571,1.0615-0.1706c0.2888-0.1138,0.5351-0.2728,0.7389-0.4775c0.2035-0.2047,0.3794-0.4521,0.5264-0.7421    c0.147-0.29,0.2888-0.6111,0.4248-0.9637l3.8375-9.824h-1.6374L219.6185,45.4438z"
   id="path22" />
		<path
   class="st3"
   d="M238.3991,36.6601c-0.5517-0.5683-1.2138-1.0146-1.987-1.339c-0.7733-0.324-1.6202-0.4859-2.5414-0.4859    c-0.9209,0-1.7681,0.1619-2.5411,0.4859c-0.7736,0.3243-1.4356,0.7706-1.987,1.339c-0.5517,0.5689-0.9838,1.2397-1.2964,2.0127    c-0.3127,0.7733-0.469,1.6091-0.469,2.5073c0,0.8982,0.1563,1.734,0.469,2.507c0.3127,0.7736,0.7447,1.4443,1.2964,2.0127    c0.5514,0.5686,1.2135,1.0149,1.987,1.339c0.773,0.324,1.6202,0.4859,2.5411,0.4859c0.9212,0,1.7681-0.1619,2.5414-0.4859    s1.4353-0.7704,1.987-1.339c0.5514-0.5683,0.9835-1.2391,1.2964-2.0127c0.3124-0.773,0.469-1.6088,0.469-2.507    c0-0.8982-0.1566-1.734-0.469-2.5073C239.3825,37.8998,238.9505,37.229,238.3991,36.6601z M238.1006,43.0474    c-0.216,0.5858-0.5232,1.0947-0.9209,1.5267c-0.3983,0.4321-0.8757,0.7759-1.4327,1.0318    c-0.5573,0.2559-1.1829,0.3837-1.8764,0.3837s-1.3192-0.1278-1.8761-0.3837c-0.5572-0.2559-1.0347-0.5998-1.4327-1.0318    c-0.398-0.4321-0.7051-0.941-0.9209-1.5267c-0.216-0.5855-0.324-1.2079-0.324-1.8674c0-0.6594,0.108-1.2819,0.324-1.8677    c0.2157-0.5855,0.5229-1.0944,0.9209-1.5265c0.398-0.4321,0.8755-0.7762,1.4327-1.0321c0.557-0.2556,1.1826-0.3837,1.8761-0.3837    s1.3192,0.1281,1.8764,0.3837c0.5569,0.2559,1.0344,0.6,1.4327,1.0321c0.3977,0.4321,0.7049,0.941,0.9209,1.5265    c0.2157,0.5858,0.324,1.2082,0.324,1.8677C238.4247,41.8395,238.3164,42.462,238.1006,43.0474z"
   id="path24" />
		<path
   class="st3"
   d="M248.6495,40.1567c-0.3584-0.3866-0.7904-0.688-1.2964-0.904c-0.506-0.216-1.0717-0.324-1.6971-0.324    c-0.5456,0-1.0772,0.1194-1.5946,0.3581c-0.5177,0.2387-0.9241,0.5744-1.2196,1.0062h-0.0341v-1.1596h-1.5349v12.894h1.5349    v-5.9695h0.0341c0.2731,0.421,0.6653,0.7535,1.1768,0.9977c0.5118,0.2446,1.0577,0.3668,1.6374,0.3668    c0.6254,0,1.1911-0.1083,1.6971-0.324c0.506-0.216,0.9381-0.5144,1.2964-0.8955c0.3581-0.3808,0.6335-0.8298,0.8271-1.3474    c0.1933-0.5171,0.29-1.0772,0.29-1.6799c0-0.591-0.0967-1.1453-0.29-1.663C249.2831,40.9952,249.0076,40.5433,248.6495,40.1567z     M247.9418,44.3098c-0.1255,0.3467-0.3016,0.6425-0.529,0.8868c-0.2274,0.2446-0.506,0.4379-0.8356,0.58    c-0.3299,0.1424-0.6993,0.2131-1.1087,0.2131c-0.4093,0-0.7791-0.0707-1.1087-0.2131c-0.3299-0.1421-0.6085-0.3354-0.8356-0.58    c-0.2277-0.2443-0.4038-0.5401-0.5287-0.8868c-0.1255-0.3467-0.1878-0.7249-0.1878-1.1343s0.0623-0.7872,0.1878-1.1343    c0.1249-0.3467,0.301-0.6423,0.5287-0.8868c0.2271-0.2446,0.5057-0.4376,0.8356-0.58c0.3296-0.1421,0.6993-0.2131,1.1087-0.2131    c0.4093,0,0.7788,0.071,1.1087,0.2131c0.3296,0.1424,0.6082,0.3354,0.8356,0.58c0.2274,0.2446,0.4035,0.5401,0.529,0.8868    c0.1249,0.347,0.1875,0.7249,0.1875,1.1343S248.0667,43.9631,247.9418,44.3098z"
   id="path26" />
		<path
   class="st3"
   d="M257.5779,40.2845c-0.3185-0.4035-0.7249-0.7305-1.2196-0.9806c-0.4947-0.2501-1.0999-0.3753-1.8164-0.3753    c-0.6027,0-1.1599,0.108-1.6714,0.324s-0.9523,0.5144-1.3218,0.8953c-0.3698,0.3811-0.6597,0.8303-0.8699,1.3474    c-0.2105,0.5177-0.3156,1.0775-0.3156,1.6802s0.0967,1.1628,0.29,1.6799c0.1933,0.5176,0.469,0.9666,0.8271,1.3474    c0.3584,0.3811,0.796,0.6795,1.3133,0.8955c0.5173,0.2157,1.0944,0.324,1.7314,0.324c1.5349,0,2.7289-0.5514,3.5816-1.6546    l-1.1599-0.8868c-0.2958,0.3642-0.6198,0.6568-0.9721,0.8784c-0.3526,0.2218-0.7675,0.3328-1.2449,0.3328    c-0.3526,0-0.6938-0.0568-1.0234-0.1706c-0.3302-0.1135-0.6201-0.2731-0.8699-0.4778c-0.2504-0.2047-0.4521-0.4519-0.6056-0.7418    c-0.1534-0.29-0.2303-0.6111-0.2303-0.9637h6.4814v-0.5459c0-0.5226-0.0713-1.0373-0.2134-1.5433    C258.1265,41.1431,257.8961,40.6883,257.5779,40.2845z M252.0006,42.5103c0-0.2728,0.0597-0.5485,0.1791-0.8271    c0.1194-0.2786,0.2871-0.5313,0.5034-0.759c0.2157-0.2274,0.4801-0.412,0.7931-0.5543c0.3124-0.1421,0.6565-0.2131,1.0318-0.2131    c0.3863,0,0.7249,0.0597,1.0149,0.1791c0.29,0.1194,0.5313,0.2842,0.7247,0.4946s0.3383,0.4577,0.435,0.7418    c0.0966,0.2844,0.1505,0.5968,0.1622,0.9381H252.0006z"
   id="path28" />
		<path
   class="st3"
   d="M265.7561,39.6621c-0.2672-0.2501-0.5797-0.435-0.938-0.5543c-0.3581-0.1194-0.7307-0.1791-1.1171-0.1791    c-0.6254,0-1.1768,0.1336-1.6543,0.4006c-0.4778,0.2676-0.8131,0.6169-1.0065,1.049h-0.0341v-1.2449h-1.5349v8.0844h1.5349    v-4.1616c0-0.4661,0.0568-0.8699,0.1706-1.2111c0.1136-0.3409,0.2728-0.6225,0.4775-0.844    c0.2047-0.2219,0.4434-0.384,0.7165-0.4862c0.2728-0.1025,0.5683-0.1534,0.8868-0.1534c0.2387,0,0.469,0.037,0.6909,0.1106    c0.2216,0.0742,0.4178,0.1936,0.5884,0.3584c0.1706,0.1648,0.3069,0.3811,0.4094,0.6481    c0.1022,0.2673,0.1534,0.5884,0.1534,0.9637v4.7756h1.5349v-5.2021c0-0.5342-0.0795-0.9977-0.2387-1.3899    C266.2365,40.2333,266.0233,39.9122,265.7561,39.6621z"
   id="path30" />
		<path
   class="st3"
   d="M274.0114,41.086c-0.4379-0.2443-0.9153-0.4347-1.4324-0.5712c-0.5176-0.1365-0.9951-0.29-1.433-0.4606    s-0.8041-0.3922-1.0999-0.6653c-0.2958-0.2728-0.4437-0.665-0.4437-1.1768c0-0.1817,0.0373-0.3808,0.1112-0.5968    s0.2015-0.4178,0.3837-0.6056c0.1817-0.1875,0.4233-0.3412,0.7249-0.4606c0.3011-0.1194,0.679-0.1791,1.1343-0.1791    c0.4774,0,0.9037,0.097,1.2793,0.29c0.375,0.1936,0.6649,0.4492,0.8694,0.7674l1.3305-1.2109    c-0.4548-0.5569-0.9835-0.9267-1.5862-1.1087c-0.6027-0.1817-1.2339-0.2728-1.893-0.2728c-0.7279,0-1.3503,0.1109-1.868,0.3325    c-0.5176,0.2218-0.9409,0.4976-1.2705,0.8271c-0.3301,0.3302-0.5712,0.6938-0.7249,1.0918c-0.1531,0.398-0.23,0.7733-0.23,1.1255    c0,0.7846,0.1473,1.4071,0.4431,1.8677s0.6626,0.8271,1.1005,1.1002c0.4373,0.2728,0.9148,0.4859,1.4324,0.6396    c0.5171,0.1534,0.9951,0.3127,1.433,0.4775c0.4373,0.1648,0.8041,0.3695,1.0999,0.614c0.2952,0.2446,0.4431,0.5998,0.4431,1.0659    c0,0.3299-0.074,0.6198-0.2213,0.8699c-0.1479,0.2504-0.3389,0.4606-0.5718,0.6312c-0.2329,0.1703-0.4914,0.2984-0.7756,0.3837    c-0.2848,0.0853-0.5631,0.1278-0.8362,0.1278c-0.4885,0-0.9637-0.1051-1.4237-0.3156c-0.4606-0.2102-0.8391-0.5372-1.1343-0.9806    l-1.3474,1.1596c0.4093,0.5689,0.9608,0.9893,1.6542,1.2624c0.6935,0.2728,1.4266,0.409,2.1999,0.409    c0.58,0,1.1261-0.085,1.6374-0.2556c0.5118-0.1706,0.9555-0.4149,1.3305-0.7334c0.3756-0.3182,0.6737-0.7107,0.8955-1.1771    c0.2219-0.4658,0.3325-0.989,0.3325-1.569c0-0.7276-0.1479-1.2991-0.4431-1.7142    C274.8161,41.6604,274.4492,41.3309,274.0114,41.086z"
   id="path32" />
		<path
   class="st3"
   d="M280.0234,45.9897c-0.2958,0-0.52-0.0539-0.6737-0.1622c-0.1537-0.1077-0.2673-0.2498-0.3412-0.4262    c-0.0739-0.1761-0.1165-0.3753-0.1275-0.5968c-0.0116-0.2219-0.0175-0.4463-0.0175-0.674v-3.6669h2.2004v-1.3302h-2.2004v-2.2686    h-1.5349v2.2686h-1.7736v1.3302h1.7736v4.2128c0,0.3299,0.014,0.6568,0.0425,0.9809s0.1194,0.6169,0.2731,0.8784    c0.1537,0.2617,0.3925,0.4748,0.7162,0.6396c0.3243,0.1645,0.782,0.2472,1.373,0.2472c0.1589,0,0.3837-0.0201,0.6737-0.0597    c0.29-0.0399,0.5258-0.1109,0.7081-0.2131V45.751c-0.1595,0.0911-0.3354,0.1534-0.5287,0.1875    C280.3926,45.9725,280.2051,45.9897,280.0234,45.9897z"
   id="path34" />
		<path
   class="st3"
   d="M288.8071,45.751v-4.1275c0-0.3523-0.0658-0.6909-0.1962-1.0149c-0.131-0.324-0.3325-0.6111-0.6056-0.8612    c-0.2725-0.2501-0.6225-0.4492-1.0487-0.5971c-0.4268-0.1476-0.9357-0.2216-1.5267-0.2216c-0.5683,0-1.1372,0.0996-1.7055,0.2984    c-0.5689,0.1991-1.0691,0.4976-1.5011,0.8955l0.9212,0.9549c0.1363-0.1022,0.2784-0.2102,0.4262-0.324    c0.1479-0.1135,0.3127-0.2131,0.4949-0.2984c0.1817-0.0853,0.3837-0.1563,0.6056-0.2131    c0.2218-0.0568,0.4798-0.0853,0.7756-0.0853c0.3302,0,0.6143,0.0483,0.8531,0.145c0.2387,0.0967,0.4379,0.2274,0.5968,0.3922    c0.159,0.1651,0.2789,0.3497,0.3581,0.5543c0.0798,0.2047,0.1194,0.4093,0.1194,0.614v0.3412h-1.1255    c-0.6137,0-1.1913,0.0483-1.7311,0.145c-0.5403,0.0967-1.012,0.2556-1.4155,0.4775c-0.4035,0.2216-0.722,0.5089-0.9549,0.8612    c-0.2335,0.3526-0.3499,0.7904-0.3499,1.3133c0,0.3983,0.0739,0.7479,0.2218,1.049c0.1473,0.3013,0.3494,0.5543,0.6056,0.759    c0.2556,0.2047,0.5543,0.3581,0.8955,0.4606c0.3406,0.1022,0.6987,0.1534,1.0743,0.1534c0.6137,0,1.1541-0.1083,1.6205-0.324    c0.4658-0.216,0.8694-0.5855,1.2106-1.1087h0.0344c0,0.4093,0.0169,0.8187,0.0512,1.228h1.3643    c-0.0227-0.2157-0.0402-0.4434-0.0512-0.6821C288.813,46.2969,288.8071,46.0354,288.8071,45.751z M287.3741,43.8408    c0,0.2728-0.0396,0.5485-0.1194,0.8271c-0.0792,0.2786-0.2102,0.5316-0.3919,0.759c-0.1823,0.2277-0.421,0.4123-0.7168,0.5543    c-0.2958,0.1424-0.6539,0.2131-1.0743,0.2131c-0.5345,0-0.9579-0.1022-1.2705-0.3069s-0.4693-0.5401-0.4693-1.0065    c0-0.3182,0.0996-0.58,0.2987-0.7846c0.1986-0.2047,0.4548-0.3636,0.7675-0.4775c0.3127-0.1135,0.6591-0.1904,1.0405-0.2303    c0.3808-0.0396,0.7529-0.0597,1.1168-0.0597h0.8187V43.8408z"
   id="path36" />
		<polygon
   class="st3"
   points="297.2671,39.1334 295.4079,39.1334 293.4805,41.9988 291.5194,39.1334 289.5408,39.1334     292.4062,42.9027 289.1315,47.2177 291.0244,47.2177 293.4124,43.8236 295.8003,47.2177 297.7789,47.2177 294.5042,42.9027   "
   id="polygon38" />
		<path
   class="st3"
   d="M33.6292,47.916L22.9719,30.2149c2.9606-0.5528,5.2106-1.8657,6.7499-3.9374    c1.5393-2.0717,2.3078-4.5879,2.3078-7.5485c0-2.4463-0.424-4.4891-1.2719-6.1272c-0.8503-1.6381-1.9946-2.9401-3.4352-3.9073    c-1.4406-0.9672-3.1172-1.6574-5.0323-2.0729C20.375,6.2072,18.3539,6,16.222,6H0v41.916h9.236V31.1616h4.5602l8.7614,16.7543    H33.6292z M21.7,21.3343c-0.4938,0.6311-1.1178,1.0949-1.8669,1.3912c-0.7492,0.2963-1.5875,0.4734-2.515,0.5324    c-0.9275,0.059-1.8067,0.0891-2.6354,0.0891H9.236v-9.5323h6.0393c0.8287,0,1.6766,0.0602,2.5463,0.1783    c0.8672,0.118,1.6381,0.3457,2.3078,0.6805c0.6721,0.3361,1.2238,0.8203,1.6574,1.4502c0.436,0.6324,0.6528,1.4803,0.6528,2.5463    C22.4395,19.8154,22.1914,20.7031,21.7,21.3343z"
   id="path40" />
		<path
   class="st3"
   d="M73.2283,10.8842c-2.0115-1.9139-4.4012-3.3834-7.1618-4.4096c-2.7631-1.0262-5.7839-1.5393-9.0577-1.5393    c-3.2786,0-6.297,0.5131-9.0601,1.5393s-5.1504,2.4957-7.1619,4.4096c-2.0139,1.9151-3.5821,4.2338-4.7071,6.9571    c-1.125,2.7233-1.6863,5.7623-1.6863,9.1167c0,3.3557,0.5613,6.3946,1.6863,9.1179c1.125,2.7233,2.6932,5.042,4.7071,6.9559    c2.0115,1.9151,4.3988,3.3846,7.1619,4.4108c2.7631,1.025,5.7815,1.5393,9.0601,1.5393c3.2738,0,6.2946-0.5143,9.0577-1.5393    c2.7607-1.0262,5.1504-2.4957,7.1618-4.4108c2.0139-1.9139,3.5821-4.2325,4.7071-6.9559s1.6887-5.7623,1.6887-9.1179    c0-3.3545-0.5637-6.3934-1.6887-9.1167S75.2422,12.7993,73.2283,10.8842z M69.1138,32.3757    c-0.6119,1.6381-1.4887,3.0582-2.633,4.2627c-1.1467,1.2033-2.5173,2.1404-4.1145,2.8113    c-1.5996,0.6721-3.3846,1.0069-5.3576,1.0069c-1.9753,0-3.7604-0.3348-5.3599-1.0069c-1.5971-0.6709-2.9703-1.608-4.1145-2.8113    c-1.1443-1.2045-2.0211-2.6246-2.633-4.2627c-0.6119-1.6381-0.9178-3.4436-0.9178-5.4177c0-1.9332,0.3059-3.7291,0.9178-5.3877    c0.6119-1.6574,1.4887-3.0871,2.633-4.2916c1.1443-1.2033,2.5174-2.1404,4.1145-2.8125c1.5995-0.6709,3.3846-1.0057,5.3599-1.0057    c1.973,0,3.758,0.3348,5.3576,1.0057c1.5971,0.6721,2.9678,1.6092,4.1145,2.8125c1.1443,1.2045,2.0211,2.6342,2.633,4.2916    c0.6119,1.6586,0.9178,3.4544,0.9178,5.3877C70.0316,28.9321,69.7256,30.7376,69.1138,32.3757z"
   id="path42" />
		<polygon
   class="st3"
   points="98.1595,33.4706 98.039,33.4706 87.6805,6 77.1413,6 93.8956,47.916 101.296,47.916 118.5827,6     108.6963,6   "
   id="polygon44" />
		<polygon
   class="st3"
   points="131.6611,30.8653 149.8368,30.8653 149.8368,22.34 131.6611,22.34 131.6611,14.5253     150.9015,14.5253 150.9015,6 122.4252,6 122.4252,47.916 151.9663,47.916 151.9663,39.3907 131.6611,39.3907   "
   id="polygon46" />
		<path
   class="st3"
   d="M186.5954,42.7199l-2.2729-3.6898l-5.345-8.6771c0.1413-0.035,0.2743-0.0795,0.4123-0.1182l-0.012-0.0199    c0.1311-0.0245,0.2533-0.0586,0.3817-0.0861c2.3163-0.7204,4.1608-1.9792,5.4882-3.7656    c1.3113-1.7648,2.0866-3.8616,2.3343-6.2394l-1.886-0.1277c-0.051-0.0035-0.0959-0.0217-0.136-0.0468    c-0.0115-0.0072-0.0199-0.0175-0.0302-0.0261c-0.027-0.0225-0.0492-0.0474-0.0663-0.0775    c-0.0044-0.0074-0.0119-0.0107-0.016-0.0187c-1.6768-3.3107-2.0954-6.9597-2.2999-7.7093    c-0.028-0.1024,0.0024-0.2106,0.0807-0.2823c0.2568-0.235,0.9777-1.0299,1.7972-1.8016    c-0.0006-0.0008-0.0012-0.0016-0.0018-0.0024c0.0258-0.0239,0.0529-0.0486,0.0797-0.073c0.036-0.0414,0.0719-0.0829,0.0798-0.0731    c-0.4461-0.441-0.9303-0.8389-1.4548-1.1911c-1.4406-0.9672-3.1172-1.6574-5.0323-2.0729C176.781,6.2072,174.7599,6,172.628,6    h-16.222v41.916h9.236V31.1616h4.5602l8.7614,16.7543h10.8618c-0.0121-0.0039-0.0239-0.0071-0.036-0.011L186.5954,42.7199z     M178.106,21.3343c-0.4939,0.6311-1.1178,1.0949-1.8669,1.3912c-0.7492,0.2963-1.5875,0.4734-2.515,0.5324    c-0.9274,0.059-1.8067,0.0891-2.6354,0.0891h-5.4467v-9.5323h6.0393c0.8287,0,1.6766,0.0602,2.5463,0.1783    c0.8672,0.118,1.6381,0.3457,2.3078,0.6805c0.6721,0.3361,1.2238,0.8203,1.6573,1.4502c0.436,0.6324,0.6528,1.4803,0.6528,2.5463    C178.8455,19.8154,178.5974,20.7031,178.106,21.3343z"
   id="path48" />
		<path
   class="st11"
   d="M185.1035,9.9586c0.0268-0.0245,0.0532-0.0487,0.0798-0.0731    C185.1755,9.8757,185.1395,9.9172,185.1035,9.9586z"
   id="path50" />
		<g
   id="g52">
			<path
   class="st12"
   d="M229.8263,19.9578c-0.0324-0.6051-0.7652-0.9404-1.4487-1.1759c-0.0976-0.0336-0.1942-0.0652-0.2877-0.0953     c-0.1159-0.0369-0.2268-0.0715-0.3289-0.1047c-0.102-0.0332-0.195-0.0649-0.2749-0.096l0,0c0,0-0.0001,0-0.0001-0.0001     c-0.2875-0.1131-0.6442-0.0305-0.959,0.1007c-2.3262-0.9173-5.9208-2.3893-7.4266-3.2954     c-1.6846-1.0136-1.9998-2.9428-2.7728-4.8334c-0.126-0.3081-0.266-0.6142-0.4244-0.9161     c-0.204-0.3892-0.4375-0.7708-0.7256-1.134c-0.0164-0.0207-0.0394-0.0453-0.0574-0.067     c0.0573-0.0209,0.1056-0.0548,0.1326-0.1191c-0.4247-0.5001-1.0964-1.1095-1.8108-1.7004     c0.0582-0.1182,0.1598-0.3301,0.2433-0.524c0.0593-0.1368,0.1095-0.2653,0.1293-0.3455c0,0-1.9888-1.3612-3.3238-2.3505     c-1.3349-0.9887-2.3767-1.8378-2.6872-2.0453c-0.1122-0.0751-0.1949-0.1912-0.3158-0.2339     c-0.0725-0.0256-0.1588-0.0248-0.2735,0.0272c-0.0668,0.0301-0.1437,0.078-0.233,0.148     c-0.6252-0.4452-1.7107-1.0502-2.0923-1.1744c-0.0273-0.0089-0.0509-0.0153-0.0705-0.019     c-0.0198-0.0038-0.0355-0.0048-0.0467-0.0029c-0.1973,0.0329-0.4698,0.1749-0.2954,0.3277     c0.0405,0.0355,0.1494,0.1123,0.2928,0.2099c-0.1519,0.0877-0.3424,0.2102-0.4743,0.296     c-0.0686-0.0482-0.1363-0.0934-0.2015-0.1328c-0.0911-0.0558-0.1765-0.1009-0.2509-0.1298     c-0.0743-0.0289-0.1377-0.0415-0.1847-0.0321c-0.0848,0.0169-0.2163,0.0767-0.364,0.1558     c-0.1325,0.0706-0.2773,0.1565-0.4148,0.2412c-0.8218-0.0306-3.418,0.1057-6.0736,0.861     c-1.665,0.4735-3.9691,2.3572-5.6944,3.9186c-0.0087,0.0055-0.0189,0.0116-0.0275,0.0171     c-1.7489,0.5305-4.1661,2.5545-5.8922,4.1372c-0.0307,0.0284-0.0604,0.0571-0.0908,0.0856     c0.0038-0.0043,0.0072-0.0078,0.0112-0.0124c-0.0004,0.0004-0.0008,0.0007-0.0012,0.0011     c0.0004-0.0004,0.0007-0.0007,0.001-0.0011c-0.0267,0.0244-0.0538,0.0491-0.0797,0.073     c0.0001,0.0001,0.0005-0.0004,0.0006-0.0004c-0.0002,0.0001-0.0003,0.0003-0.0004,0.0004     c0.0015,0.0018,0.0075-0.0045,0.0111-0.0065c-0.0031,0.0029-0.0063,0.0059-0.0094,0.0088     c-0.8195,0.7717-1.5404,1.5665-1.7972,1.8016c-0.0783,0.0717-0.1087,0.1798-0.0807,0.2823     c0.2046,0.7496,0.6231,4.3986,2.2999,7.7093c0.004,0.0079,0.0115,0.0113,0.0159,0.0187c0.0172,0.0301,0.0393,0.055,0.0663,0.0775     c0.0103,0.0086,0.0187,0.0189,0.0302,0.0261c0.0401,0.0251,0.0851,0.0434,0.136,0.0468c0,0,0.0001,0.0001,0.0002,0.0001     l1.8858,0.1277c-0.2477,2.3777-1.023,4.4745-2.3343,6.2393c-1.3274,1.7863-3.1719,3.0452-5.4882,3.7656     c-0.1212,0.0377-0.2459,0.0713-0.3697,0.106c-0.1381,0.0387-0.271,0.0832-0.4123,0.1182l5.345,8.6771l2.2729,3.6898l3.1939,5.185     c0,0,0.0001,0,0.0002,0c0.0122,0.0039,0.0239,0.0072,0.036,0.011c7.7135,2.4692,12.4381,0.1574,13.5296-0.8479     c1.211-1.1153-4.0281-9.2919-4.0281-9.2919s1.4391-8.7007,6.5238-8.5439c0.6183,0.0191,1.1428,0.1085,1.6082,0.2492     c0.7756,0.2345,1.387,0.6113,1.9942,1.0418c0.3088,0.2189,0.617,0.4509,0.9446,0.6861c0.758,0.5441,1.6228,1.1006,2.8549,1.5259     c1.2321,0.4253,2.8317,0.7193,5.0594,0.7383c0.7727,0.0067,1.4827-0.082,2.1425-0.2406c0.03,0.0222,0.064,0.0398,0.1028,0.0519     c0.0388,0.0121,0.0824,0.0187,0.1313,0.0192c2.2435,0.0187,6.1198-1.6796,8.478-7.6422c0.716-1.8106,0.64-3.2408,0.195-4.2564     C229.6554,20.8347,229.8441,20.2867,229.8263,19.9578z"
   id="path54" />
			<g
   id="g56">
				<path
   class="st13"
   d="M224.8652,20.497c-0.0048-0.1804,0.0485-0.3625,0.1313-0.5341      C224.9137,20.1345,224.8604,20.3166,224.8652,20.497z"
   id="path58" />
				<path
   class="st13"
   d="M219.2139,29.1061c-0.0274-0.0116-0.0575-0.018-0.0891-0.018c-0.0317,0-0.0618,0.0064-0.0891,0.018      c0.0274-0.0116,0.0575-0.018,0.0891-0.018C219.1564,29.0881,219.1864,29.0945,219.2139,29.1061z"
   id="path60" />
				<path
   class="st13"
   d="M219.5496,27.473c-0.0274-0.0116-0.0575-0.018-0.0891-0.018c-0.0316,0-0.0617,0.0064-0.0891,0.018      c0.0274-0.0116,0.0575-0.018,0.0891-0.018C219.4921,27.455,219.5223,27.4614,219.5496,27.473z"
   id="path62" />
				<path
   class="st13"
   d="M218.6494,28.1293c-0.0274-0.0116-0.0576-0.018-0.0891-0.018c-0.0317,0-0.0617,0.0064-0.0891,0.018      c0.0274-0.0116,0.0575-0.018,0.0891-0.018C218.5919,28.1113,218.622,28.1177,218.6494,28.1293z"
   id="path64" />
				<path
   class="st13"
   d="M204.2539,12.0382c-0.2486,0.19-0.4951,0.395-0.7351,0.612v0      C203.7588,12.4333,204.0054,12.2282,204.2539,12.0382L204.2539,12.0382z"
   id="path66" />
				<path
   class="st13"
   d="M218.6494,26.9235c-0.0274-0.0116-0.0576-0.018-0.0891-0.018c-0.0317,0-0.0617,0.0064-0.0891,0.018      c0.0274-0.0116,0.0575-0.018,0.0891-0.018C218.5919,26.9056,218.622,26.912,218.6494,26.9235z"
   id="path68" />
				<path
   class="st13"
   d="M210.9519,12.4509c0.023,0.0323,0.0406,0.0662,0.0621,0.0988      C210.9925,12.5171,210.9749,12.4831,210.9519,12.4509c-0.1915-0.2688-0.4312-0.5021-0.7004-0.6897h0      C210.5207,11.9488,210.7605,12.1821,210.9519,12.4509z"
   id="path70" />
				<path
   class="st13"
   d="M218.0692,29.1061c-0.0274-0.0116-0.0575-0.018-0.0891-0.018c-0.0316,0-0.0617,0.0064-0.0891,0.018      c0.0274-0.0116,0.0575-0.018,0.0891-0.018C218.0117,29.0881,218.0418,29.0945,218.0692,29.1061z"
   id="path72" />
				<polygon
   class="st13"
   points="192.1936,20.6392 192.1937,20.6392 192.1936,20.6392     "
   id="polygon74" />
				<path
   class="st13"
   d="M220.6967,27.2261c-0.1264,0-0.2289,0.1025-0.2289,0.2289v0      C220.4678,27.3286,220.5703,27.2261,220.6967,27.2261c0.1264,0,0.2289,0.1025,0.2289,0.2289v0      C220.9257,27.3286,220.8232,27.2261,220.6967,27.2261z"
   id="path76" />
				<path
   class="st13"
   d="M220.0482,26.4477c0.0949,0,0.1762,0.0577,0.211,0.1398      C220.2244,26.5054,220.1431,26.4477,220.0482,26.4477c-0.0948,0-0.1762,0.0576-0.2109,0.1398      C219.872,26.5054,219.9534,26.4477,220.0482,26.4477z"
   id="path78" />
				<path
   class="st13"
   d="M220.1296,28.3582c-0.0274-0.0116-0.0575-0.018-0.0891-0.018c-0.0316,0-0.0617,0.0064-0.0891,0.018      c0.0274-0.0116,0.0576-0.018,0.0891-0.018C220.0721,28.3402,220.1022,28.3466,220.1296,28.3582z"
   id="path80" />
				<path
   class="st14"
   d="M210.6476,22.6417c0.8764-1.2218,1.9941-1.9393,2.9411-2.593c1.0392-0.7174,1.8724-1.3578,1.9452-2.4999      c0.0475-0.7434-0.2573-1.3823-0.6583-2.0069c-0.7772-1.2107-1.9226-2.3666-1.6129-4.1183      c0.086-0.486,0.2311-1.3069,0.8947-1.6517c0.4048-0.2104,1.1792-0.2516,1.7456-0.2303      c-0.2041-0.3892-0.4376-0.7708-0.7256-1.134c-0.0164-0.0207-0.0394-0.0453-0.0575-0.067      c-0.5834,0.213-2.6002-1.6607-3.3739-2.4096c0.0711,0.2324,0.1115,0.4607,0.1236,0.6818      c0.0049,0.0927,0.0053,0.1845-0.0002,0.2745c0.2308,0.4581,0.5954,1.3227,0.5426,2.132      c-0.0659,1.0114-0.4252,1.9891-2.1607,2.7417c0.2691,0.1876,0.5089,0.4209,0.7004,0.6897      c0.023,0.0323,0.0406,0.0662,0.0621,0.0988v0c0.2489,0.3774,0.4048,0.7826,0.4634,1.2364      c0.008,0.0617,0.0129,0.1564,0.0113,0.2553c0.2175,0.2797,0.4192,0.5639,0.5999,0.8471      c0.2962,0.4644,0.5363,0.926,0.6975,1.3592c0.1611,0.4332,0.2433,0.8382,0.2238,1.1895      c-0.013,0.2342-0.0712,0.4445-0.1813,0.6234c-1.2662,2.0576-6.1404,1.1025-11.077,0.0711      c-0.3742-0.1549-0.6124-0.3858-0.7443-0.6681c-0.016-0.0343-0.0302-0.0694-0.043-0.1053      c-0.0009-0.0024-0.0014-0.005-0.0022-0.0075c-0.0326-0.0931-0.0538-0.1914-0.0658-0.2939      c-0.0481-0.4108,0.0612-0.8901,0.2889-1.4c0.445-0.9962,1.3309-2.1002,2.3334-3.0067v0c0.24-0.217,0.4866-0.4221,0.7351-0.612      c-0.6282-0.2311-1.2251-0.5514-1.7686-0.9728c-0.0259,0.0294-0.0515,0.0581-0.0767,0.0862      c-0.0158,0.0181-0.0314,0.0356-0.0464,0.0525c0.2052,0.1719,0.3313,0.347,0.201,0.5479      c-0.2418,0.3728-0.6815,0.6751-0.9288,1.36c-0.0642,0.1786-0.1145,0.3277-0.1514,0.4549      c-0.1033,0.3605-0.095,0.542,0.0269,0.7051l0.0644,0.072c0.0274,0.0307,0.0495,0.0602,0.0675,0.088      c0.1163,0.1835,0.0454,0.3087,0.0381,0.3203l-0.0004,0.0006l-0.7926,0.533c-0.0617,0.0186-0.1507,0.0128-0.2666-0.0767      c-0.0324-0.0252-0.0665-0.0569-0.103-0.0961l-0.1146-0.1237c-0.7442,0.5043-1.6288,1.0799-2.5488,1.6792      c-0.4272,2.0893-1.0327,3.8133-1.7479,4.4869c-0.0016,0.0015-0.0034,0.0036-0.005,0.0052      c-0.0264,0.1489-0.1746,0.2627-0.3443,0.2271l-3.5629-0.7486h0l0,0l-1.5342-0.3224l-0.8447-0.0572      c0.4612,0.7255,0.8484,1.4823,1.1522,2.2403c0.1438,0.3589,0.2733,0.7181,0.375,1.0744      c0.0633,0.2217,0.118,0.4423,0.1635,0.6611c0.0911,0.4374,0.1458,0.8673,0.1597,1.2833c0.056,1.6735-0.5463,3.124-2.082,3.9506      c-4.3945,2.3654-2.3889,9.9943-2.9796,13.2358l3.1939,5.185c0.0122,0.0039,0.0239,0.0072,0.036,0.011      c7.7135,2.4692,12.4381,0.1574,13.5296-0.8479c1.211-1.1153-4.0281-9.292-4.0281-9.292s1.4391-8.7007,6.5238-8.5439      c1.6488,0.0509,2.631,0.6023,3.6026,1.2911C208.7796,26.5214,209.5755,24.1364,210.6476,22.6417z"
   id="path82" />
				<path
   class="st15"
   d="M228.0512,23.1016c-0.8061,3.6882-2.728,8.9481-7.5885,10.1166c0.06,0.0446,0.1363,0.0702,0.2341,0.071      c2.2435,0.0188,6.1198-1.6796,8.478-7.6422c0.7161-1.8106,0.64-3.2408,0.1951-4.2564      C229.0137,22.0842,228.5063,22.7895,228.0512,23.1016z"
   id="path84" />
				<path
   class="st12"
   d="M201.9001,1.6777c0.1319-0.136,0.2724-0.264,0.4218-0.3803c0,0,0.2596-0.1772,0.5573-0.3606      c-0.8218-0.0306-3.4181,0.1057-6.0736,0.861c-1.665,0.4735-3.9691,2.3572-5.6944,3.9186      c1.7074-1.0856,5.3691-2.8048,9.8446-2.6968C201.2046,2.5457,201.5154,2.0753,201.9001,1.6777z"
   id="path86" />
				<path
   class="st16"
   d="M228.0512,23.1016c-0.1859,0.1275-0.3631,0.1901-0.5169,0.1581      c-0.5917-0.1238-1.2677-1.0734-1.5898-1.7197c-0.1732-0.0666-0.356-0.1536-0.5497-0.2671      c-0.0506-0.0294-0.0885-0.0613-0.131-0.0923c-0.2819-0.2057-0.392-0.4432-0.3985-0.6837      c-0.0048-0.1804,0.0485-0.3625,0.1313-0.5341c0.0828-0.1717,0.195-0.3329,0.3078-0.4716      c0.1128-0.1387,0.2262-0.2548,0.3115-0.3363c0.0426-0.0407,0.0781-0.0728,0.1031-0.0947      c0.0249-0.0219,0.0392-0.0336,0.0392-0.0336s0.3467-0.2639,0.7691-0.4401c-2.3261-0.9173-5.9209-2.3893-7.4267-3.2954      c-1.6845-1.0136-1.9997-2.9428-2.7729-4.8334c-0.1259-0.3081-0.2661-0.6142-0.4243-0.9161      c-0.5664-0.0213-1.3408,0.0199-1.7456,0.2303c-0.6637,0.3448-0.8087,1.1657-0.8947,1.6517      c-0.3097,1.7516,0.8357,2.9076,1.6129,4.1183c0.401,0.6246,0.7057,1.2636,0.6583,2.0069      c-0.0728,1.1421-0.906,1.7825-1.9452,2.4999c-0.947,0.6537-2.0648,1.3711-2.9411,2.593      c-1.0722,1.4947-1.868,3.8797-1.1863,7.8669c0.3088,0.2189,0.617,0.4509,0.9446,0.6861      c1.516,1.0881,3.4589,2.2262,7.9142,2.2642c0.7727,0.0067,1.4827-0.082,2.1425-0.2406v0      C225.3232,32.0498,227.2451,26.7898,228.0512,23.1016z M218.209,29.317c0,0.1264-0.1024,0.2289-0.2289,0.2289      c-0.1265,0-0.2289-0.1025-0.2289-0.2289v0c0-0.0632,0.0257-0.1204,0.0671-0.1619c0.0207-0.0207,0.0454-0.0375,0.0728-0.0491      c0.0274-0.0116,0.0575-0.018,0.0891-0.018c0.0316,0,0.0618,0.0064,0.0891,0.018c0.0274,0.0116,0.0521,0.0284,0.0727,0.0491      C218.1833,29.1966,218.209,29.2538,218.209,29.317L218.209,29.317z M218.7892,28.3402c0,0.1264-0.1025,0.2289-0.2289,0.2289      c-0.1265,0-0.229-0.1025-0.229-0.2289v0c0-0.0632,0.0256-0.1204,0.067-0.1619c0.0207-0.0207,0.0454-0.0375,0.0728-0.0491      c0.0274-0.0116,0.0575-0.018,0.0891-0.018c0.0316,0,0.0617,0.0064,0.0891,0.018c0.0274,0.0116,0.052,0.0284,0.0727,0.0491      C218.7636,28.2198,218.7892,28.277,218.7892,28.3402L218.7892,28.3402z M218.7892,27.1345c0,0.1264-0.1025,0.2289-0.2289,0.2289      c-0.1265,0-0.229-0.1025-0.229-0.2289v0c0-0.0632,0.0256-0.1204,0.067-0.1619c0.0207-0.0207,0.0454-0.0375,0.0728-0.0491      c0.0274-0.0116,0.0575-0.018,0.0891-0.018c0.0316,0,0.0617,0.0064,0.0891,0.018c0.0274,0.0116,0.052,0.0284,0.0727,0.0491      C218.7636,27.014,218.7892,27.0713,218.7892,27.1345L218.7892,27.1345z M219.3537,29.317c0,0.1264-0.1025,0.2289-0.2289,0.2289      s-0.2289-0.1025-0.2289-0.2289v0c0-0.0632,0.0256-0.1204,0.067-0.1619c0.0208-0.0207,0.0454-0.0375,0.0728-0.0491      c0.0274-0.0116,0.0575-0.018,0.0891-0.018c0.0316,0,0.0617,0.0064,0.0891,0.018c0.0273,0.0116,0.052,0.0284,0.0727,0.0491      C219.328,29.1966,219.3537,29.2538,219.3537,29.317L219.3537,29.317z M219.6894,27.6839c0,0.1265-0.1025,0.2289-0.2289,0.2289      c-0.1265,0-0.2289-0.1025-0.2289-0.2289v0c0-0.0632,0.0257-0.1204,0.0671-0.1619c0.0207-0.0207,0.0454-0.0375,0.0728-0.0491      c0.0274-0.0116,0.0575-0.018,0.0891-0.018c0.0316,0,0.0618,0.0064,0.0891,0.018c0.0274,0.0116,0.0521,0.0284,0.0727,0.0491      C219.6638,27.5635,219.6894,27.6207,219.6894,27.6839L219.6894,27.6839z M220.2694,28.5692      c0,0.1264-0.1025,0.2289-0.2289,0.2289c-0.1264,0-0.2289-0.1025-0.2289-0.2289v0c0-0.0632,0.0256-0.1204,0.067-0.1619      c0.0207-0.0207,0.0454-0.0375,0.0727-0.0491c0.0274-0.0116,0.0576-0.018,0.0891-0.018c0.0316,0,0.0618,0.0064,0.0891,0.018      c0.0274,0.0116,0.0521,0.0284,0.0728,0.0491C220.2438,28.4487,220.2694,28.506,220.2694,28.5692L220.2694,28.5692z       M220.2772,26.6767c0,0.1264-0.1025,0.2289-0.2289,0.2289c-0.1264,0-0.229-0.1025-0.229-0.2289v0      c0-0.0316,0.0065-0.0617,0.0181-0.0891c0.0347-0.0822,0.1161-0.1398,0.2109-0.1398c0.0949,0,0.1762,0.0577,0.211,0.1398      C220.2708,26.6149,220.2772,26.645,220.2772,26.6767L220.2772,26.6767z M220.9257,27.455c0,0.1265-0.1025,0.2289-0.2289,0.2289      s-0.2289-0.1025-0.2289-0.2289v0c0-0.1264,0.1025-0.2289,0.2289-0.2289S220.9257,27.3286,220.9257,27.455L220.9257,27.455z"
   id="path88" />
				<path
   class="st14"
   d="M200.2703,11.2394c-0.2327-0.1443-0.531-0.0081-0.8509,0.0628c-0.0117,0.003-0.0239,0.0056-0.0357,0.0081      c-0.3334,0.069-0.2053,0.3672-0.2053,0.3672l1.6427,1.8284l0.0005-0.0001c0.0795,0.0886,0.2227,0.0302,0.3275-0.1821      c0.0447-0.0909,0.0827-0.2098,0.1053-0.3572c0.0755-0.4921-0.072-0.8593-0.2288-1.0216      C200.8688,11.7828,200.5113,11.3886,200.2703,11.2394z"
   id="path90" />
				<path
   class="st14"
   d="M200.5973,10.547c-0.1033,0.153,0.4116,0.5877,0.571,0.7536c0.1598,0.1658,0.5624,0.5398,0.799,0.5145      c0.2368-0.0247,0.1339-0.2144,0.0529-0.3194c-0.0812-0.1055-0.9341-0.8315-0.9341-0.8315      C200.8872,10.494,200.7011,10.3944,200.5973,10.547z"
   id="path92" />
				<path
   class="st14"
   d="M197.4497,4.8665c0.1024,0.0188,0.156,0.1041,0.217,0.1885c0.5528,0.7644,0.8169,2.4256,0.8539,4.4081      c0.0007,0.0339,0.0015,0.0677,0.0021,0.1018c0.0016,0.1107,0.0022,0.2227,0.0025,0.3352      c0.0014,0.3146-0.0022,0.6352-0.0115,0.9616c0.0297,0.0125,0.0629,0.0254,0.102,0.0379      c0.0053,0.0019,0.0112,0.0036,0.017,0.0053c0.1466,0.0449,0.3507,0.0799,0.5891,0.0429      c0.1846-0.0281,0.3899-0.0993,0.6045-0.2414c0.7814-0.5176,0.7031-0.7001,1.0095-0.6979      c0.2115,0.0012,0.3962,0.1898,0.6174,0.4197l0.1442-0.0966l0.0576-0.0386c-1.6208-1.8335-1.6168-4.2867-1.5214-4.9028      c0.0614-0.398,0.3078-1.3919,0.822-2.3707c-4.4755-0.108-8.1372,1.6112-9.8446,2.6968c-0.0044,0.004-0.009,0.0081-0.0134,0.0121      c0.0173-0.0052,0.0363-0.0141,0.0535-0.019C194.1351,4.861,197.0503,4.7933,197.4497,4.8665z"
   id="path94" />
				<path
   class="st17"
   d="M200.979,14.5545l-2.5051-2.7729c-0.0072,0.1275-0.0148,0.255-0.0235,0.3831l2.3307,2.5236      C200.9078,14.6027,200.979,14.5545,200.979,14.5545z"
   id="path96" />
				<path
   class="st12"
   d="M189.5832,29.4694c1.5356-0.8265,2.1379-2.2771,2.082-3.9506c-0.0139-0.4161-0.0686-0.8459-0.1597-1.2833      c-0.0456-0.2187-0.1003-0.4393-0.1635-0.6611c-0.1017-0.3563-0.2311-0.7155-0.375-1.0744      c-0.3038-0.758-0.691-1.5148-1.1522-2.2403h0v0l-2.2245-0.1506c-0.2477,2.3778-1.023,4.4746-2.3343,6.2394      c-1.3274,1.7863-3.1719,3.0452-5.4882,3.7656c-0.1212,0.0377-0.2459,0.0713-0.3697,0.106      c-0.1381,0.0387-0.271,0.0832-0.4123,0.1182l5.345,8.6771l2.2729,3.6898C187.1943,39.4637,185.1887,31.8348,189.5832,29.4694z"
   id="path98" />
				<path
   class="st12"
   d="M211.1739,14.23c0,0-0.1999-0.6555-0.6624-1.072c-0.2935-0.2643-0.6919-0.433-1.2147-0.2746      c-1.3466,0.4081-2.2851,1.2242-3.2645,1.7547c-0.8732,0.4734-2.0599,0.4162-1.1295-0.7198      c0.422-0.5149,0.8611-1.021,1.3509-1.4547c-0.6866-0.0487-1.3595-0.1898-1.9998-0.4254c-0.2486,0.19-0.4952,0.395-0.7352,0.6121      c-1.0024,0.9066-1.8884,2.0105-2.3334,3.0067c-0.2277,0.5098-0.337,0.9892-0.2889,1.4c0.012,0.1025,0.0332,0.2008,0.0658,0.2939      c0.0008,0.0025,0.0014,0.0051,0.0022,0.0075c0.0128,0.0358,0.027,0.0709,0.043,0.1053c0.1318,0.2823,0.37,0.5132,0.7443,0.6681      c4.9367,1.0313,9.8108,1.9864,11.077-0.0711c0.1101-0.1789,0.1683-0.3892,0.1813-0.6234      c0.0195-0.3513-0.0627-0.7562-0.2238-1.1895c-0.1611-0.4332-0.4012-0.8948-0.6975-1.3592      c-0.1807-0.2833-0.3824-0.5675-0.5999-0.8471C211.484,14.3475,211.4157,14.694,211.1739,14.23z M211.2522,16.7569      c-0.0046,0.0068-0.0086,0.0129-0.014,0.0205c-0.0192,0.0271-0.0437,0.0596-0.0739,0.0957      c-0.0302,0.0362-0.0661,0.0761-0.1083,0.1184c-0.0632,0.0633-0.1403,0.1317-0.233,0.2001      c-0.0309,0.0228-0.0635,0.0456-0.0978,0.0683c-0.0687,0.0453-0.1446,0.0898-0.228,0.1321      c-0.1252,0.0634-0.2674,0.1218-0.4282,0.1701c-0.1608,0.0482-0.3403,0.0864-0.5399,0.1093      c-0.1996,0.023-0.4193,0.0307-0.6608,0.0182c-0.322-0.0167-0.6826-0.0694-1.0856-0.1702      c-0.3045-0.0762-0.6333-0.18-0.9877-0.3162c-0.4904-0.1451-1.0239-0.3449-1.6049-0.6157      c1.313-0.3572,3.3987-2.2078,4.1804-2.1723c0.9749,0.0444,2.0081,2.2193,2.0081,2.2193S211.3375,16.6828,211.2522,16.7569z"
   id="path100" />
				<path
   class="st18"
   d="M210.2515,11.7612c-0.2764,0.1199-0.5845,0.2346-0.9353,0.3423      c-1.0027,0.3075-2.0462,0.4323-3.0624,0.3602c-0.4898,0.4337-0.9289,0.9398-1.3509,1.4547      c-0.9304,1.136,0.2562,1.1932,1.1295,0.7198c0.9794-0.5305,1.9179-1.3466,3.2645-1.7547      c0.5228-0.1584,0.9212,0.0103,1.2147,0.2746c0.4625,0.4165,0.6624,1.072,0.6624,1.072c0.2419,0.4639,0.3101,0.1174,0.315-0.1886      c0.0016-0.0988-0.0034-0.1936-0.0113-0.2553c-0.0586-0.4538-0.2145-0.8589-0.4634-1.2364v0      c-0.0216-0.0327-0.0391-0.0666-0.0621-0.0988C210.7605,12.1821,210.5207,11.9488,210.2515,11.7612z"
   id="path102" />
				<path
   class="st18"
   d="M220.6967,27.2261c-0.1264,0-0.2289,0.1025-0.2289,0.2289c0,0.1265,0.1025,0.2289,0.2289,0.2289      s0.2289-0.1025,0.2289-0.2289C220.9257,27.3286,220.8232,27.2261,220.6967,27.2261z"
   id="path104" />
				<path
   class="st18"
   d="M220.1296,28.3582c-0.0274-0.0116-0.0575-0.018-0.0891-0.018c-0.0316,0-0.0617,0.0064-0.0891,0.018      c-0.0274,0.0116-0.052,0.0284-0.0727,0.0491c-0.0414,0.0414-0.067,0.0987-0.067,0.1619v0c0,0.1264,0.1025,0.2289,0.2289,0.2289      c0.1265,0,0.2289-0.1025,0.2289-0.2289v0c0-0.0632-0.0256-0.1204-0.067-0.1619      C220.1816,28.3866,220.157,28.3698,220.1296,28.3582z"
   id="path106" />
				<path
   class="st18"
   d="M218.6494,26.9235c-0.0274-0.0116-0.0576-0.018-0.0891-0.018c-0.0317,0-0.0617,0.0064-0.0891,0.018      c-0.0274,0.0116-0.0521,0.0284-0.0728,0.0491c-0.0414,0.0414-0.067,0.0987-0.067,0.1619v0c0,0.1264,0.1025,0.2289,0.229,0.2289      c0.1264,0,0.2289-0.1025,0.2289-0.2289v0c0-0.0632-0.0256-0.1204-0.067-0.1619      C218.7014,26.9519,218.6768,26.9351,218.6494,26.9235z"
   id="path108" />
				<path
   class="st18"
   d="M218.6494,28.1293c-0.0274-0.0116-0.0576-0.018-0.0891-0.018c-0.0317,0-0.0617,0.0064-0.0891,0.018      c-0.0274,0.0116-0.0521,0.0284-0.0728,0.0491c-0.0414,0.0414-0.067,0.0987-0.067,0.1619v0c0,0.1264,0.1025,0.2289,0.229,0.2289      c0.1264,0,0.2289-0.1025,0.2289-0.2289v0c0-0.0632-0.0256-0.1204-0.067-0.1619      C218.7014,28.1576,218.6768,28.1409,218.6494,28.1293z"
   id="path110" />
				<path
   class="st18"
   d="M219.5496,27.473c-0.0274-0.0116-0.0575-0.018-0.0891-0.018c-0.0316,0-0.0617,0.0064-0.0891,0.018      c-0.0274,0.0116-0.0521,0.0284-0.0728,0.0491c-0.0414,0.0414-0.0671,0.0987-0.0671,0.1619v0      c0,0.1265,0.1025,0.2289,0.2289,0.2289c0.1264,0,0.2289-0.1025,0.2289-0.2289v0c0-0.0632-0.0256-0.1204-0.067-0.1619      C219.6017,27.5013,219.577,27.4846,219.5496,27.473z"
   id="path112" />
				<path
   class="st18"
   d="M220.0482,26.4477c-0.0948,0-0.1762,0.0577-0.2109,0.1398c-0.0116,0.0274-0.0181,0.0575-0.0181,0.0891v0      c0,0.1264,0.1025,0.2289,0.229,0.2289c0.1264,0,0.2289-0.1025,0.2289-0.2289v0c0-0.0316-0.0064-0.0617-0.018-0.0891      C220.2244,26.5054,220.1431,26.4477,220.0482,26.4477z"
   id="path114" />
				<path
   class="st18"
   d="M219.2139,29.1061c-0.0274-0.0116-0.0575-0.018-0.0891-0.018c-0.0317,0-0.0618,0.0064-0.0891,0.018      c-0.0274,0.0116-0.052,0.0284-0.0728,0.0491c-0.0414,0.0414-0.067,0.0987-0.067,0.1619v0c0,0.1264,0.1025,0.2289,0.2289,0.2289      s0.2289-0.1025,0.2289-0.2289v0c0-0.0632-0.0257-0.1204-0.0671-0.1619C219.2659,29.1344,219.2412,29.1176,219.2139,29.1061z"
   id="path116" />
				<path
   class="st18"
   d="M218.0692,29.1061c-0.0274-0.0116-0.0575-0.018-0.0891-0.018c-0.0316,0-0.0617,0.0064-0.0891,0.018      c-0.0274,0.0116-0.0521,0.0284-0.0728,0.0491c-0.0414,0.0414-0.0671,0.0987-0.0671,0.1619v0      c0,0.1264,0.1025,0.2289,0.2289,0.2289c0.1265,0,0.2289-0.1025,0.2289-0.2289v0c0-0.0632-0.0256-0.1204-0.067-0.1619      C218.1212,29.1344,218.0966,29.1176,218.0692,29.1061z"
   id="path118" />
				<path
   class="st19"
   d="M225.3043,19.4912c-0.1128,0.1387-0.225,0.2999-0.3078,0.4716c-0.0828,0.1717-0.1361,0.3538-0.1313,0.5341      c0.0065,0.2405,0.1166,0.478,0.3985,0.6837c0.0424,0.031,0.0804,0.0629,0.131,0.0923c0.1938,0.1134,0.3765,0.2004,0.5497,0.2671      c0.3221,0.6463,0.9982,1.5959,1.5898,1.7197c0.1538,0.0321,0.331-0.0305,0.5169-0.1581      c0.4551-0.3121,0.9625-1.0175,1.3186-1.7109c0.2856-0.5561,0.4743-1.104,0.4565-1.433      c-0.037-0.6915-0.9888-1.0306-1.7362-1.2711c-0.2319-0.0738-0.444-0.1386-0.6039-0.2008      c-0.2875-0.1131-0.6442-0.0305-0.9591,0.1007c-0.4224,0.1761-0.7691,0.4401-0.7691,0.4401s-0.0143,0.0117-0.0392,0.0336      c-0.0249,0.0219-0.0604,0.054-0.1031,0.0947C225.5305,19.2364,225.4171,19.3525,225.3043,19.4912z"
   id="path120" />
				<path
   d="M209.3705,14.415c-0.7817-0.0354-2.8674,1.8152-4.1804,2.1723c0.5811,0.2707,1.1146,0.4706,1.6049,0.6157      c-0.2319-0.0892-0.4747-0.1921-0.7291-0.3106c0.1188-0.145,0.2466-0.2868,0.3799-0.4248      c0.0049-0.0051,0.0096-0.0104,0.0145-0.0154c0.1327-0.1367,0.2714-0.2686,0.4133-0.3955      c0.0049-0.0044,0.0096-0.0089,0.0145-0.0133c0.1448-0.1288,0.2928-0.2514,0.442-0.3673      c0.0011-0.0009,0.0023-0.0018,0.0034-0.0027c0.1512-0.1173,0.303-0.2268,0.4535-0.328c0-0.0001,0.0002-0.0001,0.0002-0.0002      c0,0,0.0002-0.0001,0.0003-0.0001c0.1641-0.1103,0.3258-0.21,0.4825-0.2973c0.0002-0.0002,0.0005-0.0003,0.0007-0.0005      c0.0765-0.0426,0.1516-0.0823,0.2251-0.1188c0.0024-0.0012,0.0048-0.0025,0.0072-0.0037c0.069-0.034,0.136-0.0649,0.2016-0.0932      c0.0069-0.003,0.0141-0.0065,0.021-0.0094c0.0599-0.0254,0.1177-0.0474,0.1743-0.0676c0.011-0.004,0.0227-0.0088,0.0336-0.0126      c0.0524-0.0179,0.1021-0.0322,0.151-0.0453c0.0128-0.0035,0.0267-0.0082,0.0393-0.0113      c0.0465-0.0114,0.0898-0.0188,0.1325-0.0253c0.0126-0.002,0.0265-0.0055,0.0388-0.007c0.0533-0.0065,0.1035-0.0091,0.1497-0.007      c0.0588,0.0026,0.1178,0.0146,0.1768,0.0331c0.0199,0.0061,0.0397,0.0168,0.0595,0.0246      c0.0392,0.0154,0.0782,0.0308,0.1172,0.052c0.0229,0.0125,0.0455,0.0284,0.0683,0.0427      c0.0358,0.0225,0.0716,0.045,0.1071,0.0716c0.0227,0.017,0.0451,0.0362,0.0676,0.0548      c0.0354,0.0292,0.0706,0.0587,0.1053,0.0912c0.021,0.0197,0.0415,0.0402,0.0623,0.0609      c0.0361,0.036,0.0717,0.0726,0.1069,0.1113c0.0181,0.0198,0.0358,0.0398,0.0535,0.0603      c0.0378,0.0434,0.0747,0.0875,0.111,0.1329c0.0138,0.0172,0.0274,0.0342,0.0409,0.0516      c0.0407,0.0524,0.0802,0.1051,0.1188,0.1587c0.0079,0.011,0.0158,0.0218,0.0237,0.0328c0.0454,0.064,0.0889,0.1276,0.1306,0.191      c0.0003,0.0004,0.0006,0.0008,0.0009,0.0013c0.0001,0.0003,0.0003,0.0005,0.0004,0.0007      c0.2998,0.4563,0.4984,0.8723,0.4984,0.8723s-0.0138,0.0255-0.0418,0.0668c0.0853-0.0741,0.1264-0.1226,0.1264-0.1226      S210.3453,14.4594,209.3705,14.415z"
   id="path122" />
				<path
   class="st6"
   d="M210.7956,15.8178c-0.0001-0.0003-0.0003-0.0005-0.0004-0.0007v0.0001      c0.0198,0.0949,0.0307,0.1928,0.0307,0.2931c0,0.505-0.2656,0.9493-0.67,1.2268c-0.2699,0.1851-0.5998,0.2979-0.9601,0.2979      c-0.2198,0-0.4289-0.0419-0.6202-0.1156c-0.5924-0.2284-1.01-0.7726-1.01-1.409c0-0.2791,0.0816-0.5399,0.2216-0.765v-0.0001      c0,0.0001-0.0002,0.0001-0.0002,0.0002c-0.1505,0.1012-0.3023,0.2107-0.4535,0.328c-0.0011,0.0009-0.0023,0.0018-0.0034,0.0027      c-0.1492,0.1159-0.2972,0.2385-0.442,0.3673c-0.0049,0.0044-0.0096,0.0089-0.0145,0.0133      c-0.142,0.1269-0.2807,0.2588-0.4133,0.3955c-0.0049,0.005-0.0096,0.0103-0.0145,0.0154      c-0.1332,0.138-0.2611,0.2798-0.3799,0.4248c0.2544,0.1186,0.4972,0.2214,0.7291,0.3106      c0.3544,0.1362,0.6832,0.24,0.9877,0.3162c0.403,0.1008,0.7636,0.1535,1.0856,0.1702c0.2415,0.0125,0.4613,0.0048,0.6608-0.0182      c0.1996-0.0229,0.3791-0.061,0.5399-0.1093c0.1608-0.0483,0.303-0.1067,0.4282-0.1701c0.0834-0.0423,0.1593-0.0868,0.228-0.1321      c0.0344-0.0226,0.067-0.0455,0.0978-0.0683c0.0927-0.0685,0.1698-0.1368,0.233-0.2001c0.0421-0.0422,0.078-0.0822,0.1083-0.1184      c0.0302-0.0361,0.0547-0.0686,0.0739-0.0957c0.0054-0.0076,0.0094-0.0137,0.014-0.0205      c0.028-0.0413,0.0418-0.0668,0.0418-0.0668S211.0954,16.2741,210.7956,15.8178z"
   id="path124" />
				<path
   class="st20"
   d="M207.5656,16.1102c0,0.6364,0.4176,1.1806,1.01,1.409c0.1913,0.0737,0.4004,0.1156,0.6202,0.1156      c0.3603,0,0.6902-0.1128,0.9601-0.2979c0.4044-0.2774,0.67-0.7217,0.67-1.2268c0-0.1004-0.011-0.1982-0.0307-0.2931v-0.0001      c-0.0003-0.0005-0.0006-0.0009-0.0009-0.0013c-0.0416-0.0634-0.0852-0.127-0.1306-0.191      c-0.0079-0.011-0.0158-0.0218-0.0237-0.0328c-0.0385-0.0536-0.078-0.1063-0.1188-0.1587      c-0.0135-0.0174-0.0271-0.0344-0.0409-0.0516c-0.0363-0.0454-0.0733-0.0895-0.111-0.1329      c-0.0177-0.0205-0.0355-0.0405-0.0535-0.0603c-0.0352-0.0387-0.0708-0.0753-0.1069-0.1113      c-0.0208-0.0207-0.0413-0.0412-0.0623-0.0609c-0.0348-0.0325-0.07-0.062-0.1053-0.0912      c-0.0225-0.0186-0.0449-0.0378-0.0676-0.0548c-0.0354-0.0266-0.0712-0.0491-0.1071-0.0716      c-0.0228-0.0143-0.0454-0.0302-0.0683-0.0427c-0.039-0.0212-0.078-0.0366-0.1172-0.052      c-0.0199-0.0078-0.0397-0.0185-0.0595-0.0246c-0.059-0.0184-0.1181-0.0304-0.1768-0.0331      c-0.0462-0.0021-0.0964,0.0005-0.1497,0.007c-0.0122,0.0015-0.0262,0.005-0.0388,0.007      c-0.0427,0.0065-0.086,0.0139-0.1325,0.0253c-0.0126,0.0031-0.0264,0.0079-0.0393,0.0113      c-0.0489,0.0131-0.0986,0.0273-0.151,0.0453c-0.0109,0.0038-0.0225,0.0086-0.0336,0.0126      c-0.0566,0.0202-0.1144,0.0422-0.1743,0.0676c-0.0069,0.0029-0.0141,0.0064-0.021,0.0094      c-0.0656,0.0282-0.1327,0.0591-0.2016,0.0932c-0.0023,0.0012-0.0047,0.0025-0.0072,0.0037      c-0.0735,0.0365-0.1486,0.0762-0.2251,0.1188c-0.0002,0.0002-0.0005,0.0003-0.0007,0.0005      c-0.1567,0.0873-0.3185,0.187-0.4825,0.2973c-0.0001,0-0.0002,0.0001-0.0003,0.0001v0.0001      C207.6472,15.5703,207.5656,15.8311,207.5656,16.1102z M209.0472,14.8302c0.6227,0,1.1275,0.4438,1.1275,0.9913      s-0.5048,0.9913-1.1275,0.9913c-0.6226,0-1.1274-0.4438-1.1274-0.9913S208.4246,14.8302,209.0472,14.8302z"
   id="path126" />
				<path
   class="st21"
   d="M209.0472,16.8127c0.6227,0,1.1275-0.4438,1.1275-0.9913s-0.5048-0.9913-1.1275-0.9913      c-0.6226,0-1.1274,0.4438-1.1274,0.9913S208.4246,16.8127,209.0472,16.8127z M208.093,15.5046      c0-0.2922,0.2383-0.5305,0.5305-0.5305c0.2921,0,0.5304,0.2383,0.5304,0.5305c0,0.2922-0.2383,0.5305-0.5304,0.5305      C208.3313,16.0351,208.093,15.7968,208.093,15.5046z"
   id="path128" />
				<path
   class="st6"
   d="M209.1539,15.5046c0-0.2922-0.2383-0.5305-0.5304-0.5305c-0.2922,0-0.5305,0.2383-0.5305,0.5305      c0,0.2922,0.2383,0.5305,0.5305,0.5305C208.9156,16.0351,209.1539,15.7968,209.1539,15.5046z"
   id="path130" />
				<path
   class="st22"
   d="M208.3983,3.4259c-1.163-0.9487-2.721-1.3598-2.836-1.389c-0.4386,0.1409-0.8186,0.4445-1.1624,0.7437      c-0.0764,0.0661-0.1511,0.1329-0.2243,0.1971c-0.2605,0.2285-0.5202,0.4704-0.7596,0.7303      c-0.195,0.2101-0.3759,0.4327-0.5324,0.6686c-0.4306,0.6488-0.2638,1.5362-0.0726,2.2374      c0.2484,0.9107,0.7068,1.5377,1.4415,2.1298c0.6297,0.5073,1.3849,0.9521,2.1983,1.0626      c0.6818,0.0925,1.412,0.0667,2.0338-0.2483c0.185-0.0935,0.3651-0.1955,0.5405-0.3055      c-0.0424-0.0977-0.0916-0.1968-0.1462-0.2973c-1.0253-1.8895-4.0495-4.2155-5.2413-5.0871      c0.2694-0.3157,0.7063-0.6836,1.0322-0.9414c0.845,0.4708,2.3675,1.4539,3.5155,2.9488c0,0-0.7641-0.5278-1.5757-0.8873      c0.8929,0.8896,2.2431,2.3536,2.8079,3.581c0.0503,0.1092,0.0945,0.2161,0.1313,0.3212      c0.1961-0.1488,0.3847-0.3086,0.5643-0.4775c0.4321-0.4078,0.8268-0.8432,0.9574-1.4084      C210.7518,5.6883,209.4659,4.2975,208.3983,3.4259z"
   id="path132" />
				<path
   class="st22"
   d="M202.4819,1.7787c-0.2695,0.3486,0.5751,0.7655,1.0344,0.9586c0.0751-0.0669,0.1545-0.1365,0.2375-0.2064      c-0.379-0.1775-1.0104-0.4877-0.9287-0.6784c0.1123-0.2628,1.3723-0.9652,1.4701-1.0179      c-0.0686-0.0482-0.1365-0.0935-0.2017-0.1329C203.7131,0.8968,202.7705,1.4052,202.4819,1.7787z"
   id="path134" />
				<path
   class="st22"
   d="M201.4532,10.4283c-0.2212-0.2299-0.4059-0.4185-0.6174-0.4197c-0.3064-0.0022-0.228,0.1802-1.0095,0.6979      c-0.2146,0.1422-0.4199,0.2134-0.6045,0.2414c-0.2384,0.037-0.4425,0.002-0.5891-0.0429      c-0.0059-0.0017-0.0117-0.0035-0.017-0.0053c-0.0392-0.0125-0.0723-0.0254-0.102-0.0379      c-0.0087,0.3031-0.0222,0.6103-0.0397,0.9199l2.5051,2.7729c0,0-0.0713,0.0482-0.1979,0.1339l0.0253,0.0274      c-0.0952,0.0645-0.2171,0.1472-0.3633,0.2464c-0.013,0.0088-0.0275,0.0184-0.0405,0.0272l0.1146,0.1237      c0.0365,0.0392,0.0706,0.071,0.103,0.0961c0.116,0.0895,0.2049,0.0953,0.2666,0.0767l0.7926-0.533l0.0004-0.0006      c0.0073-0.0116,0.0782-0.1368-0.0381-0.3203c-0.0179-0.0278-0.0401-0.0572-0.0675-0.088l-0.0644-0.072      c-0.1219-0.1631-0.1302-0.3447-0.0269-0.7051c0.0369-0.1273,0.0872-0.2763,0.1514-0.4549      c0.2473-0.6849,0.687-0.9871,0.9288-1.36c0.1303-0.201,0.0042-0.376-0.201-0.5479      C201.8926,10.9414,201.4532,10.4283,201.4532,10.4283z M201.2544,12.9666c-0.0226,0.1474-0.0606,0.2663-0.1053,0.3572      c-0.1048,0.2122-0.248,0.2707-0.3275,0.1821l-0.0005,0.0001l-1.6427-1.8284c0,0-0.1281-0.2982,0.2053-0.3672      c0.0118-0.0025,0.0241-0.0051,0.0357-0.0081c0.3199-0.071,0.6182-0.2072,0.8509-0.0628      c0.241,0.1492,0.5985,0.5434,0.7553,0.7057C201.1824,12.1073,201.3299,12.4745,201.2544,12.9666z M202.0202,11.4958      c0.0811,0.105,0.1839,0.2947-0.0529,0.3194c-0.2366,0.0252-0.6392-0.3488-0.799-0.5145      c-0.1594-0.1659-0.6743-0.6006-0.571-0.7536c0.1038-0.1526,0.2899-0.053,0.4888,0.1173      C201.0861,10.6643,201.939,11.3902,202.0202,11.4958z"
   id="path136" />
				<path
   class="st23"
   d="M202.1478,9.9638l-0.4927,0.3294l-0.0576,0.0386c0.1624,0.1732,0.5817,0.6169,0.8111,0.8199      c0.0252-0.0281,0.0508-0.0568,0.0767-0.0862c0.1118-0.1238,0.2289-0.2528,0.3193-0.3485      C202.6291,10.0204,202.1478,9.9638,202.1478,9.9638z"
   id="path138" />
				<path
   class="st23"
   d="M203.3658,10.4478c1.481,1.1596,3.1849,1.0464,4.5848,0.8958c1.4801-0.1599,2.5755-1.3974,2.924-1.7226      c0.2968-0.2763,0.7409-1.6638,0.8731-2.0949c-0.1518,0.4431-0.4364,0.8319-0.833,1.1316      c-0.9193,0.6957-0.9271,0.8058-1.8538,1.3322c-0.5703,0.324-1.8672,0.6522-3.1481,0.2931      c-0.7274-0.2045-1.3925-0.6584-1.9838-1.1151c-0.7182-0.5553-1.2749-1.0749-1.551-1.959      c-0.1989-0.6365-0.5026-1.4493-0.4144-2.1272c0.034-0.2605,0.1871-0.6186,0.42-0.9984      c-0.6003,0.812-0.9692,2.0489-0.9165,2.4637c0.0434,0.3432,0.0871,1.6907,0.9702,2.9307      C202.4371,9.4777,203.1668,9.8696,203.3658,10.4478z"
   id="path140" />
				<path
   class="st23"
   d="M202.825,1.8525c-0.0816,0.1906,0.5497,0.5009,0.9287,0.6784c0.4153-0.3511,0.9239-0.7218,1.4629-0.9448      c0.2647-0.1092,0.5371-0.1825,0.8091-0.2001c0.2151-0.0143,0.4301,0.0066,0.6414,0.0721      c0.007,0.002,0.0135,0.0041,0.0206,0.0066c1.168,0.3699,2.4227,1.4414,2.4227,1.4414s0.9685,0.7972,1.7389,1.6605      c0.6248,0.4232,1.6464,1.1728,2.5925,1.9547c0.0582-0.1182,0.1598-0.3301,0.2434-0.524c0,0-5.5165-4.3594-6.4707-4.948      c-0.0668,0.0301-0.1436,0.078-0.2331,0.148c-0.7144-0.5088-2.0302-1.2263-2.2094-1.1964      c-0.1973,0.0329-0.4698,0.1749-0.2954,0.3277c0.0405,0.0355,0.1494,0.1123,0.2928,0.2099      c-0.1519,0.0877-0.3425,0.2102-0.4743,0.296C204.1974,0.8873,202.9374,1.5897,202.825,1.8525z"
   id="path142" />
				<path
   class="st23"
   d="M206.6096,4.9882c0.8116,0.3595,1.5757,0.8873,1.5757,0.8873c-1.148-1.4949-2.6705-2.478-3.5155-2.9488      c-0.3259,0.2578-0.7628,0.6257-1.0322,0.9414c1.1918,0.8716,4.216,3.1976,5.2413,5.0871      c0.0545,0.1005,0.1038,0.1996,0.1462,0.2973c0.1801-0.1128,0.3549-0.2334,0.5238-0.3622      c-0.0367-0.1051-0.081-0.212-0.1313-0.3212C208.8527,7.3418,207.5025,5.8778,206.6096,4.9882z"
   id="path144" />
				<path
   class="st24"
   d="M201.5974,10.3317l-0.1442,0.0966c0,0,0.4394,0.5131,0.909,0.7758      c0.0151-0.0168,0.0306-0.0344,0.0464-0.0525C202.1792,10.9486,201.7598,10.505,201.5974,10.3317z"
   id="path146" />
				<path
   class="st24"
   d="M202.8046,10.717c0.0621,0.0019,0.1257-0.0048,0.189-0.0211c0.1546-0.0398,0.2828-0.1295,0.3722-0.2481      c-0.199-0.5782-0.9286-0.9701-0.9286-0.9701c-0.1619,0.1119-0.2678,0.2904-0.2893,0.4861      C202.1478,9.9638,202.6291,10.0204,202.8046,10.717z"
   id="path148" />
				<path
   class="st24"
   d="M210.8494,4.5666c-0.7705-0.8633-1.7389-1.6605-1.7389-1.6605s-1.2546-1.0715-2.4227-1.4414      c-0.0072-0.0025-0.0136-0.0046-0.0206-0.0066c-0.2113-0.0655-0.4263-0.0864-0.6414-0.0721      c-0.272,0.0176-0.5444,0.0909-0.8091,0.2001c-0.539,0.223-1.0476,0.5937-1.4629,0.9448c-0.083,0.07-0.1624,0.1396-0.2375,0.2064      c-0.0285,0.0257-0.0567,0.0508-0.0838,0.0756c-0.4128,0.3753-0.783,0.8368-1.0491,1.2704      c-0.2329,0.3797-0.386,0.7379-0.42,0.9984c-0.0881,0.6779,0.2155,1.4907,0.4144,2.1272c0.2761,0.8841,0.8328,1.4037,1.551,1.959      c0.5913,0.4567,1.2564,0.9106,1.9838,1.1151c1.2809,0.3592,2.5778,0.0309,3.1481-0.2931      c0.9267-0.5264,0.9346-0.6364,1.8538-1.3322c0.3967-0.2998,0.6813-0.6885,0.833-1.1316      c0.0011-0.0041,0.0022-0.0081,0.0038-0.0123c0.0049-0.0148,0.0088-0.0288,0.0127-0.0411      c0.0015-0.0047,0.003-0.0094,0.0041-0.0135c0.0058-0.0193,0.01-0.0345,0.0134-0.0445c0.0008-0.0029,0.0017-0.0058,0.0026-0.0088      c0.0001-0.0016,0.0009-0.0029,0.0011-0.004c0.0008-0.0013,0.001-0.0024,0.0008-0.0034c0.0463-0.1643,0.0742-0.3352,0.0835-0.511      c0.0055-0.09,0.0051-0.1818,0.0002-0.2745c-0.0121-0.2211-0.0525-0.4495-0.1236-0.6818      c-0.0043-0.0167-0.0096-0.0332-0.0149-0.0497C211.6075,5.4968,211.2562,5.0221,210.8494,4.5666z M211.0705,7.0045      c-0.1307,0.5652-0.5253,1.0006-0.9574,1.4084c-0.1797,0.1689-0.3682,0.3287-0.5643,0.4775      c-0.1689,0.1288-0.3437,0.2494-0.5238,0.3622c-0.1753,0.1099-0.3555,0.2119-0.5405,0.3055      c-0.6218,0.315-1.352,0.3409-2.0338,0.2483c-0.8134-0.1105-1.5686-0.5553-2.1983-1.0626      c-0.7347-0.5921-1.1932-1.2191-1.4415-2.1298c-0.1912-0.7012-0.358-1.5885,0.0726-2.2374      c0.1565-0.2359,0.3374-0.4585,0.5324-0.6686c0.2394-0.2599,0.4992-0.5018,0.7596-0.7303      c0.0732-0.0642,0.1478-0.131,0.2243-0.1971c0.3439-0.2992,0.7239-0.6028,1.1624-0.7437      c0.0677-0.0223,0.1366-0.0405,0.2071-0.0538c1.1451-0.219,2.4286,0.7084,3.2775,1.3749      c0.3926,0.3079,0.766,0.6489,1.1071,1.0128c0.5508,0.587,0.9748,1.4369,0.9628,2.2552      C211.1148,6.7586,211.099,6.8842,211.0705,7.0045z"
   id="path150" />
				<path
   class="st24"
   d="M213.8147,5.6517c0,0-1.9888-1.3612-3.3238-2.3505c-1.3348-0.9887-2.3766-1.8378-2.6872-2.0453      c-0.1795-0.1202-0.2833-0.3452-0.5891-0.2066c0.9542,0.5886,6.4707,4.948,6.4707,4.948      C213.7447,5.8604,213.7948,5.7319,213.8147,5.6517z"
   id="path152" />
				<path
   class="st25"
   d="M200.8065,14.7157l-0.0253-0.0274l-2.3307-2.5236c-0.1033,1.5305-0.3094,3.0989-0.5967,4.5038      c0.92-0.5993,1.8046-1.1749,2.5488-1.6792c0.0131-0.0089,0.0275-0.0184,0.0405-0.0272      C200.5894,14.8629,200.7112,14.7802,200.8065,14.7157z"
   id="path154" />
				<path
   class="st25"
   d="M201.9001,1.6777c-0.3847,0.3975-0.6955,0.868-0.9444,1.3419c-0.5142,0.9788-0.7606,1.9728-0.822,2.3707      c-0.0954,0.6161-0.0995,3.0693,1.5214,4.9028l0.4927-0.3294c0.0215-0.1957,0.1274-0.3742,0.2893-0.4861      c-0.8831-1.24-0.9268-2.5875-0.9702-2.9307c-0.0527-0.4148,0.3162-1.6518,0.9165-2.4637      c0.2661-0.4337,0.6362-0.8952,1.0491-1.2704c0.0271-0.0248,0.0553-0.0499,0.0838-0.0756      c-0.4592-0.193-1.3038-0.6099-1.0344-0.9586c0.2886-0.3735,1.2312-0.8819,1.6116-1.077      c-0.1821-0.1114-0.3415-0.1806-0.4355-0.1618c-0.0848,0.0169-0.2163,0.0767-0.364,0.1558      c-0.1325,0.0706-0.2773,0.1565-0.4148,0.2412c-0.2977,0.1834-0.5573,0.3606-0.5573,0.3606      C202.1725,1.4137,202.032,1.5417,201.9001,1.6777z"
   id="path156" />
				<path
   class="st25"
   d="M211.7853,7.4018c-0.0002,0.0011-0.001,0.0024-0.0011,0.004c-0.0009,0.0029-0.0018,0.0059-0.0026,0.0088      c-0.0034,0.0101-0.0076,0.0252-0.0134,0.0445c-0.0011,0.0041-0.0026,0.0088-0.0041,0.0135      c-0.0038,0.0123-0.0078,0.0263-0.0127,0.0411c-0.0016,0.0042-0.0027,0.0083-0.0038,0.0123      c-0.1322,0.4311-0.5763,1.8187-0.8731,2.0949c-0.3485,0.3252-1.4439,1.5627-2.924,1.7226      c-1.3999,0.1506-3.1038,0.2638-4.5848-0.8958c-0.0894,0.1186-0.2176,0.2083-0.3722,0.2481      c-0.0633,0.0163-0.1269,0.023-0.189,0.0211c-0.0904,0.0957-0.2075,0.2246-0.3193,0.3485      c0.5435,0.4214,1.1404,0.7417,1.7686,0.9728h0c0.6403,0.2356,1.3132,0.3766,1.9998,0.4254      c1.0162,0.0722,2.0597-0.0527,3.0624-0.3602c0.3509-0.1076,0.6589-0.2224,0.9353-0.3423h0      c1.7355-0.7526,2.0948-1.7303,2.1607-2.7417c0.0527-0.8093-0.3118-1.6739-0.5426-2.132      c-0.0093,0.1758-0.0372,0.3467-0.0835,0.511C211.7863,7.3994,211.7861,7.4005,211.7853,7.4018z"
   id="path158" />
				<path
   class="st26"
   d="M209.0469,3.3579c-0.849-0.6665-2.1324-1.5939-3.2775-1.3749c-0.0706,0.0133-0.1394,0.0315-0.2071,0.0538      c0.115,0.0293,1.673,0.4404,2.836,1.389c1.0676,0.8717,2.3536,2.2625,2.6723,3.5786c0.0284-0.1202,0.0443-0.2459,0.0462-0.3787      c0.0121-0.8183-0.4119-1.6681-0.9628-2.2552C209.8129,4.0067,209.4395,3.6658,209.0469,3.3579z"
   id="path160" />
				<path
   class="st25"
   d="M211.7313,5.8815c0.0053,0.0165,0.0106,0.0329,0.0149,0.0497c0.7737,0.7489,2.7905,2.6226,3.3739,2.4096      c0.0573-0.0209,0.1057-0.0548,0.1327-0.1191c-0.4247-0.5001-1.0964-1.1095-1.8108-1.7004      c-0.9461-0.7819-1.9677-1.5314-2.5925-1.9547C211.2562,5.0221,211.6075,5.4968,211.7313,5.8815z"
   id="path162" />
				<path
   class="st12"
   d="M185.4395,19.6292c0.6918-2.5775,2.8518-5.6484,5.0632-7.2924c1.4717-1.0949,3.7742,3.8682,5.5848,8.6781      c0.0188,0.0498,0.0215,0.0994,0.0133,0.1458c0.0016-0.0016,0.0034-0.0037,0.005-0.0052      c0.7152-0.6736,1.3207-2.3976,1.7479-4.4869c0.2872-1.4049,0.4933-2.9734,0.5967-4.5038      c0.0087-0.1282,0.0163-0.2557,0.0235-0.3831c0.0175-0.3096,0.0311-0.6168,0.0397-0.9199      c0.0093-0.3265,0.0129-0.647,0.0115-0.9616c-0.0002-0.1125-0.0009-0.2245-0.0025-0.3352      c-0.0006-0.0341-0.0014-0.0679-0.0021-0.1018c-0.037-1.9826-0.3011-3.6437-0.8539-4.4081      c-0.061-0.0844-0.1146-0.1697-0.217-0.1885c-0.3994-0.0731-3.3146-0.0055-6.2985,0.8432      c-0.0172,0.0049-0.0361,0.0138-0.0535,0.019c-0.0045,0.0014-0.0095,0.0036-0.0141,0.005      c-1.7489,0.5305-4.1661,2.5545-5.8922,4.1372c-0.0312,0.0288-0.0612,0.0579-0.0922,0.0868      c0.0044-0.005,0.008-0.0086,0.0124-0.0137c-0.0267,0.0244-0.0538,0.0491-0.0797,0.073      c0.0016,0.0019,0.0081-0.0052,0.0116-0.0069c-0.0033,0.0031-0.0065,0.0061-0.0098,0.0092      c-0.8195,0.7717-1.5404,1.5665-1.7972,1.8016c-0.0783,0.0717-0.1087,0.1798-0.0807,0.2823      c0.2045,0.7496,0.6231,4.3986,2.2999,7.7093c0.004,0.0079,0.0115,0.0113,0.0159,0.0187      C185.4374,19.7711,185.4202,19.7014,185.4395,19.6292z"
   id="path164" />
				<path
   class="st27"
   d="M189.8147,20.2597L189.8147,20.2597l0.8447,0.0572l1.5342,0.3224l0.0001,0l3.5629,0.7486      c0.1697,0.0356,0.3179-0.0783,0.3443-0.2271c0.0082-0.0464,0.0054-0.096-0.0133-0.1458      c-1.8107-4.8099-4.1131-9.773-5.5848-8.6781c-2.2114,1.644-4.3713,4.7149-5.0632,7.2924      c-0.0194,0.0722-0.0021,0.1418,0.0321,0.2018c0.0172,0.0301,0.0393,0.055,0.0663,0.0775      c0.0103,0.0086,0.0187,0.0189,0.0302,0.0261c0.0401,0.0251,0.0851,0.0434,0.136,0.0468l1.886,0.1277L189.8147,20.2597      L189.8147,20.2597z"
   id="path166" />
			</g>
		</g>
		<path
   class="st3"
   d="M299.3575,35.2477h-1.1684v-0.4612h2.8285v0.4612h-1.1684v3.1667h-0.4916V35.2477z"
   id="path168" />
		<path
   class="st3"
   d="M301.5042,34.7865h0.7327l1.153,2.7466h0.0204l1.143-2.7466h0.7327v3.6279h-0.4921v-2.9822h-0.01    l-1.2247,2.9822h-0.3282l-1.2247-2.9822h-0.01v2.9822h-0.4921V34.7865z"
   id="path170" />
	</g>
</g>
<g
   id="Landing_Page_2">
</g>
<g
   id="Landing_Page_1">
</g>
<g
   id="Icons_and_Form_Fields">
</g>
</svg>