<!-- Generator: Adobe Illustrator 23.0.2, SVG Export Plug-In . SVG Version: 6.00 Build 0)  -->
<svg xmlns:rdf="http://www.w3.org/1999/02/22-rdf-syntax-ns#" style="enable-background:new 0 0 1024 150;" xmlns="http://www.w3.org/2000/svg" xml:space="preserve" viewBox="0 0 1024 150" height="100%" width="100%" version="1.1" y="0px" x="0px" xmlns:cc="http://creativecommons.org/ns#" xmlns:xlink="http://www.w3.org/1999/xlink" xmlns:dc="http://purl.org/dc/elements/1.1/"><metadata><rdf:RDF><cc:Work rdf:about=""><dc:format>image/svg+xml</dc:format><dc:type rdf:resource="http://purl.org/dc/dcmitype/StillImage"/><dc:title/></cc:Work></rdf:RDF></metadata>
<style type="text/css">
	.st0{clip-path:url(#SVGID_2_);}
	.st1{clip-path:url(#SVGID_4_);fill:#F16B3C;}
	.st2{fill:#FFBF3B;}
	.st3{fill:#FF7F40;}
	.st4{fill:#B3B3B3;}
	.st5{fill:#4D4D4D;}
	.st6{fill:#333333;}
	.st7{fill:#808080;}
	.st8{fill:#FFFFFF;}
	.st9{fill:#00C1DE;}
	.st10{fill:#1A1A1A;}
	.st11{fill:#E6E6E6;}
	.st12{fill:#F3A7C8;}
	.st13{fill:#77411C;}
	.st14{fill:#858181;}
	.st15{fill:#AFACAD;}
	.st16{fill:#D1CFCD;}
	.st17{fill:#999999;}
	.st18{fill:#CCCCCC;}
	.st19{clip-path:url(#SVGID_6_);fill:url(#Background_3_);}
	.st20{clip-path:url(#SVGID_6_);fill:#F16B3C;}
	.st21{clip-path:url(#SVGID_6_);fill:#FF9865;}
	.st22{clip-path:url(#SVGID_6_);fill:#FFBF3B;}
	.st23{clip-path:url(#SVGID_6_);fill:none;stroke:#F16B3C;stroke-width:5;stroke-miterlimit:10;}
	.st24{clip-path:url(#SVGID_6_);}
	.st25{clip-path:url(#SVGID_6_);fill:none;}
	.st26{clip-path:url(#SVGID_8_);fill:url(#Background_4_);}
	.st27{clip-path:url(#SVGID_8_);fill:#F16B3C;}
	.st28{clip-path:url(#SVGID_8_);fill:#FF9865;}
	.st29{clip-path:url(#SVGID_8_);fill:#FFBF3B;}
	.st30{clip-path:url(#SVGID_8_);fill:none;stroke:#F16B3C;stroke-width:5;stroke-miterlimit:10;}
	.st31{clip-path:url(#SVGID_8_);fill:none;}
</style>
	<defs><path id="SVGID_1_" d="M1289.7-1212.9c-3.2257-25.353-54.14-130.06-200.32-54.853-60.516,31.136-24.959,52.707-7.8098,109.06s99.896,51.52,153.77,38.304c48.1-14.6,57.5-67.2,54.3-92.5z"/></defs>
	<clipPath id="SVGID_2_">
		<use xlink:href="#SVGID_1_"/>
	</clipPath>
	<g clip-path="url(#SVGID_2_)" class="st0">
		<defs><rect id="SVGID_3_" y="-1215.5" x="897" height="2188" width="1000"/></defs>
		<clipPath id="SVGID_4_">
			<use xlink:href="#SVGID_3_"/>
		</clipPath>
	</g>
	<defs><rect id="SVGID_7_" width="1024" height="150"/></defs>
	<clipPath id="SVGID_8_">
		<use xlink:href="#SVGID_7_"/>
	</clipPath>
		<linearGradient id="Background_3_" y2="-422.59" gradientUnits="userSpaceOnUse" x2="1441" gradientTransform="matrix(1 0 0 1 0 499.09)" y1="-422.59" x1="-14">
		<stop stop-color="#FFCC62" offset="0"/>
		<stop stop-color="#FF9865" offset="1"/>
	</linearGradient>
		<rect style="clip-path:url(#SVGID_8_);" clip-path="url(#SVGID_8_)" height="200.28" width="1455" y="-23.639" x="-14" fill="url(#Background_3_)"/>
	<path clip-path="url(#SVGID_8_)" class="st27" d="M587.12-278.35h1014.9v351.16s-124.16,128.79-204.67,148.63c-80.513,19.84-103.86-5.5325-143.44-9.5921-39.581-4.0596-83.379-40.165-142.15-5.4918-55.756,32.894-40.715,101.83-199.87,117.13-158.32,15.224-218.82-166.31-238.5-231.4-13.194-43.641-3.0447-96.416,13.194-141.07,13.103-36.033-7.8765-86.347-25.373-105.55-39.68-43.551-74.088-44.656-74.088-44.656v-79.161z"/>
	<path clip-path="url(#SVGID_8_)" class="st28" d="M587.12-287.35h1014.9v351.16s-124.16,128.79-204.67,148.63c-80.513,19.84-103.86-5.5325-143.44-9.5921-39.581-4.0596-83.379-40.165-142.15-5.4918-55.756,32.894-40.715,101.83-199.87,117.13-158.32,15.224-218.82-166.31-238.5-231.4-13.194-43.641-3.0447-96.416,13.194-141.07,13.103-36.033-7.8765-86.347-25.373-105.55-39.68-43.551-74.088-44.656-74.088-44.656v-79.161z"/>
	<path clip-path="url(#SVGID_8_)" class="st27" d="M702-37.5l230.86-0.9908s8.0364,81.776-53.964,96.776-136,15-153-38l-23.9-57.785z"/>
	<path clip-path="url(#SVGID_8_)" class="st30" d="M579.61,45.536c-4.7526,0-8.6053,3.8527-8.6053,8.6053,0,4.151,2.9392,7.6153,6.8499,8.4258,0.5668,0.1175,1.1538,0.1794,1.7554,0.1794,2.395,0,4.5612-0.9788,6.1213-2.5578,1.5356-1.5542,2.484-3.69,2.484-6.0475,0-4.751-3.85-8.604-8.6-8.604z"/>
	<path clip-path="url(#SVGID_8_)" class="st29" d="M1025.7,111.91c-2.3832,0-4.3152,1.932-4.3152,4.3152,0,2.0816,1.4739,3.8188,3.435,4.2253,0.2842,0.0589,0.5786,0.09,0.8802,0.09,1.201,0,2.2872-0.4908,3.0696-1.2826,0.77-0.7794,1.2456-1.8504,1.2456-3.0326,0-2.4-1.9-4.33-4.3-4.33z"/>
	<rect clip-path="url(#SVGID_8_)" class="st31" height="150" width="1440" y="1.5" x="1"/>
<path style="enable-background:accumulate;color:#000000;" fill-rule="nonzero" fill="#ffbf3b" d="M39.416,148.84c2.282-39.55,51.959-71.153,112.9-71.153,60.947,0,110.62,31.603,112.91,71.156h-225.81z"/>
</svg>
