<svg xmlns="http://www.w3.org/2000/svg" xmlns:xlink="http://www.w3.org/1999/xlink" id="Layer_1" viewBox="0 0 120 120"><style id="style3">.st4{fill:#b3b3b3}.st5{fill:#4d4d4d}.st6{fill:#333}.st7{fill:gray}.st8{fill:#fff}.st9{fill:#00c1de}.st10{fill:#1a1a1a}.st11{fill:#e6e6e6}.st14{fill:#858181}.st15{fill:#afacad}.st16{fill:#d1cfcd}.st17{fill:#999}</style><g id="g5"><defs id="defs7"><path id="SVGID_1_" d="M384.3-1400c-3.2-25.3-54.1-130-200.3-54.8-60.5 31.2-25 52.7-7.8 109.1 17.1 56.4 99.9 51.5 153.8 38.3 48.2-14.6 57.5-67.2 54.3-92.5z"/></defs><clipPath id="SVGID_2_"><use id="use11" overflow="visible" xlink:href="#SVGID_1_"/></clipPath><g id="g13" clip-path="url(#SVGID_2_)"><defs id="defs15"><path id="SVGID_3_" d="M-8.3-1402.5h1000v2188H-8.3z"/></defs><clipPath id="SVGID_4_"><use id="use19" overflow="visible" xlink:href="#SVGID_3_"/></clipPath></g></g><g id="g21"><path id="path23" fill="#ffbf3b" d="M75 91.6z"/><path id="path25" fill="#ff7f40" d="M47.6 95.2C19.3 101.1 27.2 83.2 28 84c-3.2-5.8 3.3-7-.1-18a27 27 0 0 1 0-17.6C31 37.8 50.5 24 58.4 24c8.1 0 14.4 1.2 22.3 5.2 7.5 6.3 15.7 12.4 16.1 23.3.5 12.3 6.8 36.8 4.8 48.7a58.5 58.5 0 1 0-53.5 16.2c0-6 7.4-23.7-.5-22z"/><path id="path27" d="M101.6 101.1c2-11.9-4.3-36.4-4.8-48.7-.4-10.9-8.6-17-16-23.3-8-4-14.3-5.2-22.4-5.2-8 0-27.3 13.9-30.6 24.4a27 27 0 0 0 0 17.5c3.4 11.2-3.1 12.3 0 18l.1.1c-.7-.8-8.6 17.2 19.7 11.3 7.9-1.6.5 16.1.5 22a58.8 58.8 0 0 0 53.5-16z" class="st4"/><path id="path29" d="M27.9 83.9z" class="st4"/><path id="path31" d="M25.6 54.6c2.6-.7 4.9 3.7 4.9 3.8 1-1.4 2-5 3-9.3a118.5 118.5 0 0 0 2-15v-.3c.3-4.2.2-7.7-.3-9.4l-.3-.4c-.5-.2-4.3-.4-8.3 1.1-2.4 1-6 5-8.4 8.3l-.1.1-.1.2a45.5 45.5 0 0 0-1 20.8c-.1-.1 4.3 1.3 8.6.1z" class="st5"/><path id="path33" d="M22.5 56.2l1 .2 2 .8 4.5 1.7c.2 0 .4-.1.5-.4v-.3c-1.7-9-4-18.4-6-16.5A30 30 0 0 0 16.9 55v.1h.1l.2.2 2.4.4 2.9.5z" class="st6"/><path id="path35" d="M74 42.5c-.8.2-1.5.6-2.3 1.1a26.1 26.1 0 0 0-6 6c-2.3 3.3-3.7 7-2.6 8.9 2.5 4.5 12.2 2.4 22 .1 6.3-2.9-6.2-17.4-11.2-16z" class="st5"/><path id="path37" d="M67.5 49.6s.7-4.5 3.6-3.7c2.9.7 5 2.5 7.2 3.6 2 1 4.4.6 2.2-2-2.3-2.8-4.7-5.4-8.1-5.7-2-.2-3.9 1.3-4.9 3.3a8.2 8.2 0 0 0-.7 4.2c0 .7.3 1.5.7.3z" class="st7"/><path id="path39" d="M72.4 49c2-.2 7.2 4.2 10.5 5-1.4.7-2.7 1.2-3.9 1.6l1.8-.8-1-1a21.3 21.3 0 0 0-2.2-1.8v-.1l-1.2-.8-1.2-.7-.6-.2-.5-.3-.5-.1-.5-.2h-1.3l-.1.1-.3.2h-.2l-.2.2-.2.2-.2.2-.2.2a7.9 7.9 0 0 0-.6.8h-.1l-.3.5-.4.5-1.1 2.2.1.2-.3-.3s2.3-5.4 4.7-5.6z"/><path id="path41" d="M69 52.6v.7c0 1.2.7 2.3 1.7 3a4.2 4.2 0 0 0 4 .2C76 56 77 54.5 77 53c0-.7-.2-1.3-.6-1.9l1.1.8 1.2.9 1 1c.4.3.8.6 1 1a28.3 28.3 0 0 1-4.1 1.7 14 14 0 0 1-4.3.5 7.6 7.6 0 0 1-2.4-.6 5.7 5.7 0 0 1-1.7-1.2L68 55v-.1l-.1-.2s.4-1 1.1-2.1z" class="st8"/><path id="path43" d="M76.4 51.1l-1.2-.7-.6-.2-.5-.3-.5-.1-.5-.2h-1.3l-.1.1-.3.2h-.2l-.2.2-.2.2-.2.2-.2.2a7.9 7.9 0 0 0-.6.8h-.1l-.3.5-.4.5v.8c0 1.2.7 2.3 1.7 3a4.2 4.2 0 0 0 4 .2C76 56 77 54.5 77 53c0-.7-.2-1.3-.6-1.9zm-.3 1.2c0 1.3-1.1 2.5-2.7 2.5-1.5.1-2.8-1-2.8-2.3s1.1-2.5 2.6-2.5c1.6 0 2.9 1 3 2.3z" class="st9"/><path id="path45" d="M76.1 52.3c0-1.3-1.3-2.4-2.9-2.3-1.5 0-2.7 1.2-2.6 2.5s1.3 2.4 2.8 2.3c1.6 0 2.8-1.2 2.7-2.5zm-3.6.6a1.3 1.3 0 0 1-.1-2.6 1.3 1.3 0 0 1 0 2.6z" class="st10"/><path id="path47" d="M30.2 58.6c7.2 1.1 14.3 2 15.4-2.5.5-1.9-1-5.2-3.1-8a23 23 0 0 0-5-5.1c-.6-.4-1.2-.7-1.7-.8-3.7-.7-10.4 14.3-5.6 16.4z" class="st5"/><path id="path49" d="M41.6 49s-.7-4.4-2.8-3.8c-2.1.7-3.6 2.5-5.1 3.5-1.4 1-3.2.5-1.7-2 1.5-2.7 3.1-5.3 5.6-5.5 1.5-.2 3 1.3 3.7 3.4a11 11 0 0 1 .8 4c0 .8-.2 1.6-.5.4z" class="st7"/><path id="path51" d="M38.5 48.6c-1.4-.1-5.1 4-7.5 4.8 1 .6 2 1 2.9 1.4l-1.3-.7.7-1 .7-.9.8-.8.8-.8.9-.6.4-.3.4-.2.3-.2.3-.1h.4V49h.6l.1.1.2.1.1.1.2.2.2.1.1.2.1.1a6.5 6.5 0 0 1 .5.7l.1.1.2.4.3.5.9 2h-.1l.2-.2s-1.8-4.8-3.5-5z"/><path id="path53" d="M41 51.7v.6c0 1.2-.4 2.1-1.1 2.8-.5.4-1.1.6-1.8.6-.3 0-.7 0-1-.2-1.1-.5-1.9-1.8-1.9-3.2 0-.6.2-1.2.4-1.7l-.8.8-.8.8-.7.9-.7 1a18.5 18.5 0 0 0 3 1.4l2 .3a5.7 5.7 0 0 0 2.1-.2 4.1 4.1 0 0 0 2-1.8h.1v-.2l-.8-2z" class="st8"/><path id="path55" d="M35.2 52.3c0 1.4.8 2.7 1.8 3.2A2.5 2.5 0 0 0 40 55a3.6 3.6 0 0 0 1-3.4l-.1-.4v-.1c-.2-.1-.2-.3-.3-.4a9 9 0 0 0-.6-.8V50l-.2-.2-.2-.1-.2-.2-.3-.2a1 1 0 0 0-.7-.1H38l-.3.2a7 7 0 0 0-.7.4h-.1a9 9 0 0 0-1.3 1c-.2.4-.4 1-.4 1.6zm2.7-2.8c1 0 2 1 2 2.2s-1 2.2-2 2.2c-1.1 0-2-1-2-2.2s.9-2.2 2-2.2z" class="st9"/><path id="path57" d="M37.9 53.9c1 0 2-1 2-2.2s-1-2.2-2-2.2c-1.1 0-2 1-2 2.2s.9 2.2 2 2.2zm-1.7-3c0-.6.4-1 1-1 .4 0 .9.4.9 1 0 .7-.5 1.3-1 1.3s-1-.6-1-1.2z" class="st10"/><path id="path59" d="M61.7 65c-3.3-3-3.6-6.9-2.9-9.5a18 18 0 0 1 4.1-8.2c1.9-2.3 3.1-3.8 2.4-5.4-.7-1.8-1.7-3-3.7-3.5-3.2-.7-6.3-1.6-9-.7 0 0-7 2.5-7.9 3.8-.7 1.4-.3 2.7.7 4.5 1.1 2.3 1.4 4 1.5 5 .3 2.7-.2 5-2 6.2-3.5 2.4-10.8 2.1-17.7 4-5.4 1.4-9.3 10-8.6 17.3.6 6 4.2 17 10.6 17 2 0 2.1-.4 3.3-1.6 1.2 1.3 3.8 2.2 7.4 2.7a37.9 37.9 0 0 0 22-2c1-.6 2.1-1.4 3.3-2.8 3-3.4 3.5-7.4 3.7-9.6.2-1.6.7-4.6-.7-8-1-2-2.6-5.6-6.5-9.2z" class="st11"/><path id="path61" fill="#f3a7c8" d="M38.7 64.1l-1-1.6a12.7 12.7 0 0 0-1.6-1.6s-1.2-.9-2.6-1.5c-1.1-.4-2.2-.4-3.3-.3-1-.1-2.2-.1-3.3.3-1.4.6-2.6 1.5-2.6 1.5l-.1.1a11.5 11.5 0 0 0-2.5 3.1 4 4 0 0 0-.4 1.8c0 .8.4 1.7 1.3 2.4.2 0 .3.2.5.3.6.4 1.3.7 1.9.9 1 2.2 3.2 5.4 5.2 5.8 2-.4 4.2-3.6 5.3-5.8.6-.2 1.2-.5 1.8-1l.5-.2c1-.7 1.3-1.6 1.3-2.4a4 4 0 0 0-.4-1.8z"/><circle id="circle63" cx="45.1" cy="79.7" r=".6" class="st7"/><circle id="circle65" cx="46.9" cy="82.8" r=".6" class="st7"/><path id="path67" d="M51 79.4a.6.6 0 1 0 0-1.3.6.6 0 0 0 0 1.3z" class="st7"/><path id="path69" d="M51 81.5a.6.6 0 1 0 0 1.3.6.6 0 0 0 0-1.3z" class="st7"/><path id="path71" d="M48.6 81a.6.6 0 1 0 0-1.3.6.6 0 0 0 0 1.3z" class="st7"/><path id="path73" d="M46.9 78.1a.6.6 0 1 0 0-1.3.6.6 0 0 0 0 1.3z" class="st7"/><path id="path75" d="M49.5 84.3a.6.6 0 1 0 0 1.2.6.6 0 0 0 0-1.2z" class="st7"/><path id="path77" d="M53.4 84.9a.6.6 0 1 0-1.3 0 .6.6 0 0 0 1.3 0z" class="st7"/><path id="path79" fill="#77411c" d="M71.6 19.5c-6-.6-8.8 1.5-13.9 1.4-7.9-.2-10.8-2.3-16.1-1.3-1 .2-2.2.5-3.6 1.2-2.3 1-5.1 4.3-5.7 7.6-1.3 7.2 3.1 14 9.9 15 5.3 1 12.8-3.1 15.4-7.8 4.3 5.3 5 8.3 14.8 8.1 8.2-.1 13.6-4.4 15.1-12.7.6-3.1-1.7-9.7-15.9-11.5z"/><ellipse id="ellipse81" cx="42.8" cy="31" class="st8" rx="9.5" ry="6.4" transform="rotate(-83.2 42.8 31)"/><path id="path83" d="M34.2 29c1-3.2 3.8-6.2 4-6.4 1.2-.5 2.6-.6 4-.7h.8a37.3 37.3 0 0 1 5.4.2c2.1.3 3.3 2 4.1 3.4 1 1.8 1.1 3.5.5 5.5-.5 1.8-1.5 3.6-3.1 5a12.2 12.2 0 0 1-6.9 3.1 6 6 0 0 1-.2-.7c-1-4.5 1.8-12.8 3-16-1.2 0-2.8 0-4 .2-1 2-2.8 5.9-2.8 10 0 0 .8-2 2-3.8a24.6 24.6 0 0 0 .2 10.6h-2.1c-1.7.1-3.4 0-4.7-.6-1.6-2.6-1-6.7-.2-9.7z" class="st14"/><path id="path85" d="M58 32.3c-1.3 4-5.4 6.5-8.8 8.4-3.7 2-8.4 1.8-9.7 1.8a24 24 0 0 1-5.7-1.9c1.1.5 2.5.6 3.9.5 3.3-.3 3.5-.2 6.6-.8 1.8-.3 5.3-1.8 7.6-4.3 1.3-1.5 2-3.2 2.6-4.8.6-2 1-3.7 0-5.5-.6-1.3-1.4-3-2.8-4-.5-.3-1.5-.6-2.7-.8 2.8.3 5.8 1.7 6.5 2.4.5.6 2.7 2.8 3 6 0 0-1 1.8-.5 3z" class="st15"/><path id="path87" d="M31 38v.1a5.2 5.2 0 0 0 2.5 2.4h.1l.2.1c1.1.5 2.5.6 3.9.5 3.3-.3 3.5-.2 6.6-.8 1.8-.3 5.3-1.8 7.6-4.3 1.3-1.5 2-3.2 2.6-4.8.6-2 1-3.7 0-5.5-.6-1.3-1.4-3-2.8-4a21.5 21.5 0 0 0-7.3-1.3l-.3.1a44.8 44.8 0 0 0-5.9.8l-2.2 1a5.4 5.4 0 0 0-1.4 1c-2 2.5-3 6-3 6s-.7 2.8-1 5.3A7 7 0 0 0 31 38zm2.7.2a5.7 5.7 0 0 1-1.8-5c.1-1 .4-2.2.7-3.2.8-2.4 2-5.8 5-7.2l.6-.2c1.2-.5 2.6-.6 4-.7h.8a37.3 37.3 0 0 1 5.4.2c2.1.3 3.3 2 4.1 3.4 1 1.8 1.1 3.5.5 5.5-.5 1.8-1.5 3.6-3.1 5a12.2 12.2 0 0 1-6.9 3.1 26.9 26.9 0 0 1-4 .4c-1.6 0-3.3 0-4.6-.7a4 4 0 0 1-.7-.6z" class="st16"/><path id="path89" d="M32.6 30c.8-2.4 2-5.8 5-7.2l.6-.2c-.2.2-3 3.2-4 6.5-.9 3-1.4 7.1.2 9.7a4 4 0 0 1-.7-.6 5.7 5.7 0 0 1-1.8-5c.1-1 .4-2.2.7-3.2z" class="st17"/><ellipse id="ellipse91" cx="68.9" cy="31.1" class="st8" rx="9.6" ry="6.3" transform="rotate(-73.4 68.9 31.1)"/><path id="path93" d="M60.7 28c1.5-3.1 4.7-5.7 5-5.9 1.3-.3 2.7-.2 4 0h.8a37.1 37.1 0 0 1 5.3 1c2 .7 3 2.5 3.6 4 .7 1.9.5 3.6-.5 5.5-.8 1.7-2 3.4-3.9 4.5a12.4 12.4 0 0 1-7.2 2.1v-.7c-.3-4.6 3.7-12.4 5.4-15.4l-4-.5a22.4 22.4 0 0 0-4.3 9.5s1-1.8 2.6-3.4a24.7 24.7 0 0 0-1.6 10.5l-2-.2a9.7 9.7 0 0 1-4.6-1.4c-1.1-2.8 0-6.8 1.4-9.6z" class="st14"/><path id="path95" d="M83.7 34.6c-2 3.9-6.4 5.7-10.1 7-4 1.5-8.5.6-9.9.5-1.1-.2-4.3-2.2-5.3-2.8 1 .6 2.4 1 3.8 1 3.3.2 3.5.4 6.6.3a16 16 0 0 0 8.3-3.3c1.5-1.2 2.5-2.8 3.3-4.3 1-1.9 1.6-3.5 1-5.4-.5-1.4-1-3.2-2.2-4.3-.5-.4-1.4-.9-2.5-1.3 2.7.8 5.4 2.5 6 3.3.3.7 2.2 3.2 1.9 6.5 0 0-1.3 1.5-1 2.8z" class="st15"/><path id="path97" d="M56 36.4a5 5 0 0 0 2.1 2.8h.2l.1.1c1 .6 2.4 1 3.8 1 3.3.2 3.5.4 6.6.3a16 16 0 0 0 8.3-3.3c1.5-1.2 2.5-2.8 3.3-4.3 1-1.9 1.6-3.5 1-5.4-.5-1.4-1-3.2-2.2-4.3-.5-.4-1.4-.9-2.5-1.3-1.4-.5-3-.8-4.6-1h-.3a43.5 43.5 0 0 0-6-.1c-.8.1-1.5.3-2.2.6a5.5 5.5 0 0 0-1.6 1c-2.3 2-3.9 5.4-3.9 5.4s-1.2 2.6-1.8 5a7 7 0 0 0-.3 3.5zm2.7.6a5.6 5.6 0 0 1-1-5.2c.3-1.1.7-2.2 1.3-3.2 1-2.2 2.9-5.4 6-6.3l.7-.2c1.3-.3 2.7-.2 4 0h.8a37.1 37.1 0 0 1 5.3 1c2 .7 3 2.5 3.6 4 .7 1.9.5 3.6-.5 5.5-.8 1.7-2 3.4-3.9 4.5a12.4 12.4 0 0 1-7.2 2.1 27 27 0 0 1-4-.2 9.7 9.7 0 0 1-4.5-1.4 4 4 0 0 1-.6-.6z" class="st16"/><path id="path99" d="M59 28.6c1-2.2 2.9-5.4 6-6.3l.7-.2c-.3.2-3.5 2.8-5 5.9-1.4 2.8-2.5 6.8-1.4 9.6a4 4 0 0 1-.6-.6 5.6 5.6 0 0 1-1-5.2c.3-1.1.7-2.2 1.3-3.2z" class="st17"/><path id="path101" d="M85.8 32.9a2 2 0 0 0-1.1-1.2c-1.2 1-1.5 3-1.5 3 .4.4 1 .5 1.4.4 0 0-.3-1.2 1.2-2.2z" class="st16"/><path id="path103" d="M85 35.4l1.2 1v.1c.3-.5 1-1.8 1.2-2.6a30.3 30.3 0 0 0-1.2-.6c-1.4 1-1.2 2.1-1.2 2.1z" class="st15"/><path id="path105" d="M99.6 56.9c-3.4.2-9 3.5-8.9 3.6-1.3-1.4-2.6-5-3.7-9.4a95 95 0 0 1-2.5-15.2v-.2a24 24 0 0 1 .6-9.6l.4-.5c.6-.2 5.5-.5 10.7 1 3.1.9 7.5 4.9 10.7 8l.2.2.1.1s3.2 2.8 3.5 4.2c.5 1.9-.2 9.6-2.4 17 0-.2-4.7.5-8.7.8z" class="st5"/><path id="path107" d="M101 57.6l-1.3.3-2.5.9-5.9 2.1c-.2.1-.5-.1-.6-.4V60c2.2-10.6 5.1-21.6 7.8-19.4a33.9 33.9 0 0 1 9.8 15.4l-.1.2-.3.1-3.1.6-3.7.6z" class="st6"/><path id="path109" fill="#ccc" d="M32.5 94.1l-.7-1.9c-1.6-5-2.3-13-2-16.7h.3A52.3 52.3 0 0 0 32.6 94h-.1z"/><path id="path111" d="M57.3 96.1V96a85.1 85.1 0 0 0 27-12.2 13 13 0 0 0 2.7-4.5c.4-1.5.5-3 .3-4.6h.2c.2 1.6.1 3.2-.3 4.6 0 0-.8 2.4-2.8 4.6A85.4 85.4 0 0 1 57.3 96z" class="st11"/></g></svg>