<?xml version="1.0" encoding="utf-8"?>
<!-- Generator: Adobe Illustrator 23.0.1, SVG Export Plug-In . SVG Version: 6.00 Build 0)  -->
<svg version="1.1" id="Layer_1" xmlns="http://www.w3.org/2000/svg" xmlns:xlink="http://www.w3.org/1999/xlink" x="0px" y="0px"
	 viewBox="0 0 650 175" style="enable-background:new 0 0 650 175;" xml:space="preserve">
<style type="text/css">
	.st0{fill:none;}
	.st1{fill:#FFFFFF;}
	.st2{fill:#B3B3B3;}
	.st3{fill:#4D4D4D;}
	.st4{fill:#808080;}
	.st5{fill:#E6E6E6;}
	.st6{fill:#CCCCCC;}
	.st7{fill:#F3A7C8;}
	.st8{fill:#333333;}
	.st9{fill:#77411C;}
	.st10{fill:#D1CFCD;}
	.st11{fill:#AFACAD;}
	.st12{fill:#858181;}
	.st13{fill:url(#SVGID_1_);}
</style>
<g id="Landing_Page_4">
</g>
<g id="Landing_Page_3">
	<g>
		<g>
			<g>
				<path class="st0" d="M280.5958,50.076c-3.4487-5.1825-7.9619-9.3101-13.5205-12.3921s-12.3276-4.623-20.2896-4.623
					s-14.731,1.541-20.2896,4.623s-10.0718,7.2096-13.5205,12.3921c-3.4673,5.1917-5.9805,11.0897-7.5581,17.7031
					s-2.3667,13.447-2.3667,20.5098c0,6.7601,0.7891,13.3369,2.3667,19.7209c1.5776,6.3933,4.0908,12.1445,7.5581,17.2536
					c3.4487,5.1091,7.9619,9.2001,13.5205,12.282c5.5586,3.0819,12.3276,4.623,20.2896,4.623s14.731-1.541,20.2896-4.623
					s10.0718-7.1729,13.5205-12.282c3.4673-5.1091,5.9805-10.8603,7.5581-17.2536c1.5776-6.3841,2.3667-12.9608,2.3667-19.7209
					c0-7.0629-0.7891-13.8964-2.3667-20.5098S284.063,55.2677,280.5958,50.076z"/>
				<path class="st0" d="M63.4844,107.5105c0.0635-0.0216,0.1255-0.0453,0.1905-0.0653c-0.04-0.0446-0.0767-0.0898-0.1152-0.1346
					C63.521,107.3717,63.4971,107.438,63.4844,107.5105z"/>
				<path class="st0" d="M423.2837,39.0323c-2.8618-1.7244-6.1636-2.8893-9.9243-3.4947
					c-3.7607-0.5963-7.6685-0.8989-11.7227-0.8989h-27.4995v48.2385h27.4995c4.0542,0,7.9619-0.2935,11.7227-0.8989
					c3.7607-0.5962,7.0625-1.7611,9.9243-3.4948c2.8438-1.7244,5.1367-4.1735,6.8794-7.3289
					c1.7246-3.1553,2.5869-7.283,2.5869-12.3922c0-5.1091-0.8623-9.2459-2.5869-12.4012
					C428.4204,43.2058,426.1274,40.7659,423.2837,39.0323z"/>
				<path class="st0" d="M55.8853,115.7701c-7.4292-4.2107-12.7935-7.728-16.6074-35.425
					c-0.2271,2.6154-0.3423,5.2629-0.3423,7.9438c0,6.7601,0.7891,13.3369,2.3667,19.7209
					c1.5776,6.3933,4.0908,12.1445,7.5581,17.2536c0.6582,0.9752,1.3677,1.9013,2.1035,2.8024
					C54.9151,123.7117,59.9195,118.0564,55.8853,115.7701z"/>
				<path class="st0" d="M109.3125,115.4436c-4.8447,3.0924,1.3418,8.6168,5.2017,12.4533
					c0.6855-0.8492,1.3491-1.7192,1.9663-2.6336c3.4673-5.1091,5.9805-10.8603,7.5581-17.2536
					c1.5776-6.3841,2.3667-12.9608,2.3667-19.7209c0-3.4208-0.1895-6.7866-0.5596-10.1009
					C123.3741,109.3696,117.7793,110.0393,109.3125,115.4436z"/>
				<path class="st1" d="M140.8242,27.8784c-6.751-7.6682-15.0244-13.6762-24.7842-18.0332c-9.7778-4.357-20.895-6.54-33.3696-6.54
					c-12.3282,0-23.4087,2.183-33.2417,6.54c-9.8511,4.3569-18.1611,10.365-24.9126,18.0332
					c-6.769,7.6591-11.9609,16.6482-15.5566,26.9398C5.3458,65.1098,3.5479,76.2729,3.5479,88.2889
					c0,11.7225,1.7979,22.6562,5.4116,32.801c3.5957,10.1448,8.7876,18.978,15.5566,26.4904
					c6.7515,7.5123,15.0615,13.4103,24.9126,17.6938c9.833,4.2836,20.9136,6.4208,33.2417,6.4208
					c12.4746,0,23.5918-2.1372,33.3696-6.4208c9.7598-4.2836,18.0332-10.1815,24.7842-17.6938
					c6.7695-7.5123,11.9609-16.3455,15.5566-26.4904c3.6143-10.1448,5.4121-21.0785,5.4121-32.801
					c0-12.0161-1.7979-23.1791-5.4121-33.4706C152.7852,44.5266,147.5938,35.5376,140.8242,27.8784z M124.0386,108.0098
					c-1.5776,6.3933-4.0908,12.1445-7.5581,17.2536c-0.6172,0.9144-1.2808,1.7844-1.9663,2.6336
					c1.6533,1.643,2.8823,2.9785,2.6304,3.6774c0,0-15.8506,25.2683-33.9395,24.7089c-19.3945,0-36.0581-22.2729-36.1309-23.0305
					c-0.082-0.8516,1.7495-2.8291,3.8896-5.187c-0.7358-0.9011-1.4453-1.8272-2.1035-2.8024
					c-3.4673-5.1091-5.9805-10.8603-7.5581-17.2536c-1.5776-6.3841-2.3667-12.9608-2.3667-19.7209
					c0-2.6809,0.1152-5.3284,0.3423-7.9438c-0.2188-1.589-0.4336-3.2421-0.6421-4.9951c-0.1499-1.2598,0.3794-7.278,0.7295-8.5344
					c3.6807-13.2341-1.0088-24.8253,5.7998-30.5319c1.4829-1.2432,18.9292-3.6088,19.8369-4.0793
					c0.1924-0.0999,0.3711-0.1831,0.5312-0.2441c4.9561-2.202,17.4717-2.0878,17.4717-2.0878s12.9082,0.112,17.8882,2.3433
					c0.0547,0.0245,0.1108,0.0488,0.1636,0.0738c-0.0527-0.0277-0.106-0.0555-0.1636-0.0857c-0.8853-0.4643-2.1772-1.1418,0-0.0049
					c0.1704,0.0891,0.3521,0.1838,0.5674,0.2962c0.9883,0.5164,17.3359,2.4423,18.3906,3.2972
					c8.4668,6.865,2.4995,22.5754,5.5942,31.8885c0.4585,1.3795,0.7183,6.1051,0.6504,7.1096
					c-0.0791,1.1738-0.1631,2.3007-0.25,3.3974c0.3701,3.3143,0.5596,6.6801,0.5596,10.1009
					C126.4053,95.049,125.6162,101.6258,124.0386,108.0098z"/>
				<path class="st1" d="M304.9395,27.8784c-6.751-7.6682-15.0244-13.6763-24.7842-18.0332c-9.7778-4.357-20.895-6.54-33.3696-6.54
					c-12.3281,0-23.4082,2.183-33.2412,6.54c-9.8516,4.3569-18.1616,10.365-24.9126,18.0332
					c-6.7695,7.6591-11.9614,16.6482-15.5566,26.9398c-3.6143,10.2916-5.4121,21.4546-5.4121,33.4706
					c0,11.7225,1.7979,22.6562,5.4121,32.801c3.5952,10.1448,8.7871,18.978,15.5566,26.4904
					c6.751,7.5123,15.061,13.4103,24.9126,17.6938c9.833,4.2836,20.9131,6.4208,33.2412,6.4208
					c12.4746,0,23.5918-2.1372,33.3696-6.4208c9.7598-4.2836,18.0332-10.1815,24.7842-17.6938
					c6.7695-7.5123,11.9609-16.3455,15.5566-26.4904c3.6143-10.1448,5.4121-21.0785,5.4121-32.801
					c0-12.0161-1.7979-23.1791-5.4121-33.4706C316.9004,44.5266,311.709,35.5376,304.9395,27.8784z M288.1538,108.0098
					c-1.5776,6.3933-4.0908,12.1445-7.5581,17.2536c-3.4487,5.1091-7.9619,9.2001-13.5205,12.282
					c-5.5586,3.0819-12.3276,4.623-20.2896,4.623s-14.731-1.541-20.2896-4.623s-10.0718-7.1729-13.5205-12.282
					c-3.4673-5.1091-5.9805-10.8603-7.5581-17.2536c-1.5776-6.3841-2.3667-12.9608-2.3667-19.7209
					c0-7.0629,0.7891-13.8964,2.3667-20.5098s4.0908-12.5114,7.5581-17.7031c3.4487-5.1825,7.9619-9.3101,13.5205-12.3921
					s12.3276-4.623,20.2896-4.623s14.731,1.541,20.2896,4.623s10.0718,7.2096,13.5205,12.3921
					c3.4673,5.1917,5.9805,11.0897,7.5581,17.7031s2.3667,13.447,2.3667,20.5098
					C290.5205,95.049,289.7314,101.6258,288.1538,108.0098z"/>
				<path class="st1" d="M454.2686,23.1454c-4.4209-4.8156-10.1812-8.6864-17.2441-11.6124
					c-7.063-2.9352-15.6299-4.3937-25.6831-4.3937h-72.5918v160.9508h35.3877v-57.7045h37.2041
					c10.0532,0,18.6201-1.4677,25.6831-4.4028c7.063-2.926,12.8232-6.7969,17.2441-11.6033
					c4.4395-4.8156,7.6685-10.3375,9.7046-16.5748c2.0181-6.2281,3.0454-12.5847,3.0454-19.0422
					c0-6.6134-1.0273-12.9975-3.0454-19.1614C461.937,33.437,458.708,27.9518,454.2686,23.1454z M430.1631,71.1546
					c-1.7427,3.1553-4.0356,5.6044-6.8794,7.3289c-2.8618,1.7336-6.1636,2.8986-9.9243,3.4948
					c-3.7607,0.6054-7.6685,0.8989-11.7227,0.8989h-27.4995V34.6386h27.4995c4.0542,0,7.9619,0.3027,11.7227,0.8989
					c3.7607,0.6053,7.0625,1.7703,9.9243,3.4947c2.8438,1.7336,5.1367,4.1735,6.8794,7.3289
					c1.7246,3.1553,2.5869,7.2922,2.5869,12.4012C432.7499,63.8715,431.8877,67.9992,430.1631,71.1546z"/>
				<path class="st1" d="M583.7852,84.2346c-5.2651-3.4581-10.5483-5.9805-15.8867-7.5582
					c-5.3384-1.5776-9.5029-2.66-12.5117-3.2654c-10.0713-2.55-18.2163-4.6597-24.4536-6.3107s-11.1357-3.3021-14.6577-4.9623
					c-3.541-1.6511-5.9072-3.4489-7.0996-5.4118c-1.2109-1.9446-1.7979-4.5037-1.7979-7.6591c0-3.4581,0.7339-6.3107,2.2383-8.5671
					c1.5039-2.2565,3.4302-4.1277,5.7603-5.632c2.3297-1.5043,4.9165-2.5591,7.7783-3.1553
					c2.8433-0.6054,5.7051-0.9081,8.5669-0.9081c4.3477,0,8.3652,0.376,12.0527,1.1282s6.9531,2.0272,9.8149,3.8342
					c2.8433,1.7978,5.1362,4.2836,6.8608,7.4389c1.7427,3.1554,2.752,7.1363,3.0454,11.9427h34.2686
					c0-9.3101-1.7612-17.2444-5.3018-23.7753c-3.522-6.54-8.292-11.9152-14.3091-16.1254
					c-6.0171-4.201-12.8784-7.2463-20.6201-9.1266c-7.7411-1.8805-15.8314-2.8161-24.2336-2.8161
					c-7.2095,0-14.4375,0.9814-21.647,2.926c-7.21,1.963-13.667,4.9623-19.3906,9.0166
					c-5.7056,4.0635-10.3286,9.1359-13.8506,15.2173c-3.541,6.0906-5.3018,13.2635-5.3018,21.528
					c0,7.3656,1.3755,13.6396,4.1641,18.8221c2.7886,5.1917,6.4209,9.512,10.9336,12.97c4.5132,3.458,9.6133,6.274,15.3369,8.4479
					c5.7051,2.1831,11.5571,4.0268,17.5742,5.5219c5.8706,1.6602,11.6494,3.1553,17.3545,4.5129
					c5.7236,1.3484,10.8237,2.9261,15.3369,4.733c4.5127,1.807,8.145,4.0543,10.9336,6.7602
					c2.77,2.7059,4.1641,6.2373,4.1641,10.5943c0,4.0634-1.0454,7.4022-3.1553,10.0348c-2.1099,2.6325-4.7329,4.6964-7.8882,6.2006
					c-3.1558,1.5043-6.5312,2.5133-10.145,3.0453c-3.5957,0.5228-6.9893,0.7888-10.145,0.7888c-4.6597,0-9.1724-0.5687-13.52-1.6969
					c-4.3662-1.1282-8.1636-2.8527-11.3926-5.1825c-3.2285-2.3298-5.8154-5.3751-7.7783-9.1267
					c-1.9443-3.7607-2.917-8.347-2.917-13.7588h-34.2686c-0.1465,9.9247,1.6514,18.4918,5.4121,25.7015
					c3.7422,7.2188,8.8237,13.1534,15.208,17.8131c6.3838,4.6597,13.7588,8.081,22.0874,10.2549
					c8.3472,2.1739,16.9507,3.2654,25.8115,3.2654c10.9702,0,20.6382-1.275,28.9668-3.8341
					c8.3472-2.55,15.3364-6.1181,20.9688-10.7044c5.6318-4.5862,9.8877-10.0347,12.7495-16.3455
					c2.8438-6.3107,4.2744-13.1443,4.2744-20.5098c0-9.0166-1.9077-16.4189-5.7417-22.2068
					C593.5997,92.3156,589.0502,87.6926,583.7852,84.2346z"/>
				<polygon class="st1" points="636.5273,119.8516 645.3145,50.4154 645.3145,7.1393 611.9634,7.1393 611.9634,50.4154 
					620.5303,119.8516 				"/>
				<rect x="611.0645" y="133.3719" class="st1" width="35.3877" height="34.7181"/>
				<path class="st2" d="M109.3125,115.4436c8.4668-5.4044,14.0615-6.0742,16.5332-37.2557
					c-0.394-3.5287-0.9937-6.9987-1.8071-10.4089c-1.5776-6.6134-4.0908-12.5114-7.5581-17.7031
					c-3.4492-5.1825-7.9619-9.3101-13.5205-12.3921s-12.3281-4.623-20.2896-4.623c-7.9619,0-14.7314,1.541-20.2896,4.623
					c-5.5586,3.082-10.0718,7.2096-13.5205,12.3921c-3.4673,5.1917-5.9805,11.0897-7.5581,17.7031
					c-0.979,4.1031-1.6528,8.2913-2.0244,12.566c3.814,27.697,9.1782,31.2143,16.6074,35.425
					c4.0342,2.2864-0.9702,7.9416-4.9214,12.2957c3.1182,3.8198,6.9189,6.986,11.417,9.4797
					c5.5581,3.082,12.3276,4.623,20.2896,4.623c7.9614,0,14.731-1.541,20.2896-4.623c4.564-2.5304,8.4106-5.7526,11.5542-9.6484
					C110.6543,124.0606,104.4678,118.5362,109.3125,115.4436z M63.4844,107.5105c0.0127-0.0724,0.0366-0.1388,0.0752-0.1999
					c0.0386,0.0448,0.0752,0.09,0.1152,0.1346C63.6099,107.4652,63.5479,107.4889,63.4844,107.5105z"/>
				<path class="st1" d="M102.96,137.5454c-5.5586,3.082-12.3281,4.623-20.2896,4.623c-7.9619,0-14.7314-1.541-20.2896-4.623
					c-4.498-2.4937-8.2988-5.6599-11.417-9.4797c-2.1401,2.3579-3.9717,4.3354-3.8896,5.187
					c0.0728,0.7576,16.7363,23.0305,36.1309,23.0305c18.0889,0.5594,33.9395-24.7089,33.9395-24.7089
					c0.252-0.699-0.9771-2.0344-2.6304-3.6774C111.3707,131.7928,107.5239,135.015,102.96,137.5454z"/>
				<path class="st2" d="M48.8604,50.076c3.4487-5.1825,7.9619-9.3101,13.5205-12.3921c5.5581-3.082,12.3276-4.623,20.2896-4.623
					c7.9614,0,14.731,1.541,20.2896,4.623s10.0713,7.2096,13.5205,12.3921c3.4673,5.1917,5.9805,11.0897,7.5581,17.7031
					c0.8135,3.4103,1.4131,6.8802,1.8071,10.4089c0.0869-1.0967,0.1709-2.2236,0.25-3.3974
					c0.0679-1.0045-0.1919-5.7302-0.6504-7.1096c-3.0947-9.3131,2.8726-25.0235-5.5942-31.8885
					c-1.0547-0.8549-17.4023-2.7808-18.3906-3.2972c-0.2153-0.1124-0.397-0.2071-0.5674-0.2962
					c-2.1772-1.1369-0.8853-0.4594,0,0.0049c0.0576,0.0302,0.1108,0.058,0.1636,0.0857c-0.0527-0.025-0.1089-0.0493-0.1636-0.0738
					c-4.98-2.2313-17.8882-2.3433-17.8882-2.3433s-12.5156-0.1142-17.4717,2.0878c-0.1602,0.061-0.3389,0.1442-0.5312,0.2441
					c-0.9077,0.4705-18.354,2.8361-19.8369,4.0793c-6.8086,5.7065-2.1191,17.2978-5.7998,30.5319
					c-0.3501,1.2564-0.8794,7.2745-0.7295,8.5344c0.2085,1.7529,0.4233,3.4061,0.6421,4.9951
					c0.3716-4.2748,1.0454-8.463,2.0244-12.566C42.8799,61.1657,45.3931,55.2677,48.8604,50.076z"/>
				<path class="st1" d="M140.9395,27.8784c-6.751-7.6682-15.0244-13.6763-24.7842-18.0332c-9.7778-4.357-20.895-6.54-33.3696-6.54
					c-12.3281,0-23.4082,2.183-33.2412,6.54c-9.8516,4.357-18.1616,10.365-24.9126,18.0332
					c-6.7695,7.6592-11.9614,16.6482-15.5567,26.9399C5.461,65.1098,3.6631,76.2729,3.6631,88.2889
					c0,11.7225,1.7979,22.6562,5.4121,32.801c3.5952,10.1448,8.7871,18.978,15.5566,26.4904
					c6.751,7.5123,15.061,13.4103,24.9126,17.6938c9.833,4.2836,20.9131,6.4208,33.2412,6.4208
					c12.4746,0,23.5918-2.1372,33.3696-6.4208c9.7598-4.2836,18.0332-10.1815,24.7842-17.6938
					c6.7695-7.5123,11.9609-16.3455,15.5566-26.4904c3.6143-10.1448,5.4121-21.0785,5.4121-32.801
					c0-12.0161-1.7979-23.1791-5.4121-33.4706C152.9003,44.5266,147.709,35.5376,140.9395,27.8784z M124.1539,108.0098
					c-1.5776,6.3933-4.0908,12.1445-7.5581,17.2536c-3.4487,5.1091-7.9619,9.2001-13.5205,12.282
					c-5.5586,3.0819-12.3276,4.623-20.2896,4.623s-14.731-1.541-20.2896-4.623s-10.0718-7.1729-13.5205-12.282
					c-3.4673-5.1091-5.9805-10.8603-7.5581-17.2536c-1.5776-6.3841-2.3667-12.9608-2.3667-19.7209
					c0-7.0629,0.7891-13.8964,2.3667-20.5098s4.0908-12.5114,7.5581-17.7031c3.4487-5.1825,7.9619-9.3101,13.5205-12.3921
					s12.3276-4.623,20.2896-4.623s14.731,1.541,20.2896,4.623s10.0718,7.2096,13.5205,12.3921
					c3.4673,5.1917,5.9805,11.0897,7.5581,17.7031s2.3667,13.447,2.3667,20.5098
					C126.5206,95.049,125.7315,101.6258,124.1539,108.0098z"/>
			</g>
			<g>
				<path class="st3" d="M105.6044,61.1401c-0.7548,0.201-1.5707,0.61-2.4064,1.1499c0.004,0.0007,0.0151-0.0014,0.0119,0.0011
					c-2.6,1.9813-4.3646,3.6499-6.3307,6.378c-2.4673,3.5102-3.9747,7.3362-2.8316,9.391
					c2.6753,4.8084,12.9728,2.5763,23.4026,0.1662C124.1345,75.1664,110.8637,59.7395,105.6044,61.1401z"/>
				<path class="st4" d="M98.751,68.6938c0,0,0.7309-4.7951,3.8136-4.0337c3.0823,0.7615,5.3647,2.7065,7.6655,3.882
					c2.0513,1.0491,4.6625,0.6115,2.3175-2.1866c-2.4314-2.8983-5.016-5.723-8.596-6.0355
					c-0.0042-0.0003-0.0083,0.0005-0.0125,0.0001c-2.1727-0.1817-4.1195,1.3919-5.1458,3.5876
					c-0.5371,1.1462-0.8095,2.3515-0.8259,3.6781c-0.0022,0.1732,0.0122,0.4406,0.043,0.715
					C98.1011,69.1049,98.3388,69.9685,98.751,68.6938z"/>
			</g>
			<path class="st5" d="M101.62,114.8363c-1.6783,4.708-8.1374,9.0153-19.3009,9.0153s-19.4408-5.5094-20.6995-9.9169
				c-1.4241-4.9864,9.536-8.5145,20.6995-8.5145S103.3781,109.9049,101.62,114.8363z"/>
			<g>
				<path class="st5" d="M94.1553,85.278C86.6,78.4926,94.189,63.4672,91.2697,54.2583c-2.923-9.2089-9.1798-8.4011-9.1798-8.4011
					s-6.2596-0.8079-9.1792,8.4011c-0.4635,1.4614-0.6609,3.07-0.6973,4.7682c-0.1158,5.3847,1.394,11.675,1.2699,17.0846
					c-0.0837,3.6348-0.9039,6.8726-3.4585,9.1668c-6.3454,5.6988-15.9809,11.3323-16.4051,20.5152
					c-0.182,3.9396-1.207,10.469,9.5384,13.3686c4.4056,1.1888,14.6803-1.5618,19.3009-3.8112
					c4.6997,2.2879,14.9419,3.6597,17.7624,3.4732c10.4699-0.6922,12.3311-5.5362,11.9116-14.5456
					C111.6555,94.0268,100.9711,91.3993,94.1553,85.278z M63.8279,115.1768c-0.0614,0.0196-0.1201,0.0425-0.1805,0.0635
					c0.0121-0.0704,0.0347-0.1348,0.0716-0.1942C63.7555,115.0896,63.7901,115.1335,63.8279,115.1768z"/>
				<path class="st6" d="M65.7498,119.5807c-1.0085,0-1.9029-0.0882-2.6284-0.2841c-10.2438-2.7639-9.9034-8.8127-9.6783-12.8154
					c0.0131-0.239,0.0262-0.4709,0.0366-0.6947c0.3426-7.4195,6.7379-12.6141,12.3799-17.1973
					c1.4467-1.1749,2.8125-2.2848,4.0718-3.4154c2.2318-2.0045,3.3157-4.8853,3.4119-9.0662
					c0.0623-2.7046-0.2923-5.6833-0.6348-8.5638c-0.3404-2.8653-0.6928-5.828-0.6348-8.5204
					c0.0399-1.8682,0.2699-3.4408,0.7037-4.8077c1.5232-4.8039,3.9708-6.859,5.7562-7.7369
					c1.8581-0.9143,3.3676-0.7826,3.5561-0.7627c0.189-0.0205,1.6975-0.1513,3.5555,0.7627c1.7854,0.878,4.233,2.933,5.7578,7.7369
					c1.2041,3.7984,0.6261,8.6425,0.0677,13.3273c-0.802,6.7213-1.6308,13.6715,2.7781,17.6308l0,0
					c2.0132,1.8084,4.3969,3.3302,6.7013,4.8017c5.6486,3.6066,10.9835,7.0133,11.3228,14.2959
					c0.4185,8.9842-1.3768,13.9867-12.0423,14.6918c-2.7158,0.1759-12.9585-1.1459-17.7717-3.4575
					C78.4335,117.4492,70.7095,119.5807,65.7498,119.5807z M81.7138,45.9802c-0.5644,0-1.7346,0.0956-3.0731,0.7578
					c-1.7308,0.8561-4.1068,2.8631-5.5966,7.5626c-0.4256,1.341-0.6512,2.8879-0.6906,4.7291
					c-0.0574,2.6727,0.2934,5.6256,0.6332,8.4813c0.3436,2.8901,0.6988,5.8788,0.6365,8.6034
					c-0.0983,4.2631-1.2118,7.2081-3.5047,9.2678c-1.2642,1.1353-2.6328,2.2473-4.0822,3.4244
					c-5.5967,4.5461-11.9401,9.6985-12.2767,16.9932c-0.0104,0.2243-0.0235,0.4573-0.0372,0.6974
					c-0.2202,3.9123-0.5523,9.8245,9.4724,12.5296c4.2527,1.1476,14.4221-1.4743,19.2031-3.8019l0.0612-0.0298l0.0612,0.0298
					c4.7482,2.3115,14.9854,3.6386,17.692,3.4594c10.4355-0.69,12.1915-5.5931,11.7812-14.3995
					c-0.3322-7.1379-5.6081-10.5066-11.1933-14.0733c-2.3143-1.4776-4.7078-3.0057-6.7379-4.8293l0,0
					c-4.5171-4.0565-3.6796-11.0799-2.8693-17.8723c0.5551-4.655,1.1293-9.4685-0.0563-13.2093
					c-1.4915-4.6996-3.868-6.7065-5.5988-7.5626c-1.8717-0.926-3.4146-0.7441-3.4299-0.7419l-0.018,0.0022l-0.0175-0.0022
					C82.0673,45.9955,81.9389,45.9802,81.7138,45.9802z M63.4701,115.4507l0.0399-0.2338c0.0153-0.0921,0.0453-0.1724,0.0907-0.245
					l0.1027-0.165l0.1541,0.1871c0.0251,0.0303,0.0497,0.0609,0.0759,0.0907l0.1399,0.1601l-0.2027,0.065
					c-0.0372,0.012-0.0738,0.0254-0.1104,0.0388L63.4701,115.4507z"/>
			</g>
			<g>
				<path d="M101.7332,72.3845c2.0349-0.0708,7.6488,1.8968,11.1063,2.2399c-1.4895,0.3236-2.8616,0.5667-4.1264,0.7474
					c0.5961-0.1082,1.2195-0.2321,1.8716-0.3738c-0.3234-0.156-0.6703-0.3081-1.0308-0.4557
					c-0.0134-0.0055-0.026-0.0111-0.0393-0.0165c-0.3589-0.1462-0.7331-0.2868-1.1153-0.4218
					c-0.0132-0.0047-0.0258-0.0095-0.0391-0.0141c-0.3897-0.137-0.7872-0.2669-1.1873-0.3894
					c-0.003-0.001-0.0062-0.0019-0.0092-0.0029c-0.4054-0.124-0.8116-0.2393-1.2136-0.3454c-0.0001-0.0001-0.0004,0-0.0005-0.0002
					c-0.0001,0-0.0004-0.0001-0.0007-0.0001c-0.4383-0.1157-0.8695-0.2197-1.2864-0.3102c-0.0007-0.0002-0.0013-0.0003-0.002-0.0005
					c-0.2036-0.0441-0.403-0.0851-0.5983-0.1226c-0.0064-0.0012-0.0128-0.0025-0.019-0.0038
					c-0.183-0.0349-0.3608-0.0665-0.5346-0.0951c-0.0183-0.0031-0.0374-0.0066-0.0556-0.0096
					c-0.1587-0.0257-0.3114-0.0478-0.4609-0.0679c-0.0292-0.004-0.06-0.0089-0.0887-0.0126
					c-0.1384-0.0178-0.2693-0.0316-0.3981-0.0441c-0.0338-0.0033-0.0703-0.008-0.1035-0.011
					c-0.1223-0.0107-0.236-0.0172-0.3479-0.0227c-0.033-0.0017-0.0697-0.005-0.1017-0.0062
					c-0.1395-0.005-0.2707-0.0059-0.3909-0.0017c-0.153,0.0053-0.3058,0.021-0.4579,0.0438
					c-0.0512,0.0076-0.1018,0.0203-0.1529,0.0297c-0.1007,0.0186-0.2009,0.0373-0.3005,0.0623
					c-0.0586,0.0148-0.116,0.0334-0.1742,0.0501c-0.0913,0.0264-0.1825,0.0527-0.2724,0.0837
					c-0.0577,0.0198-0.1141,0.0419-0.1711,0.0635c-0.0895,0.0338-0.1784,0.068-0.266,0.1054
					c-0.0528,0.0226-0.1045,0.0463-0.1567,0.07c-0.0907,0.0414-0.18,0.0834-0.2681,0.1277
					c-0.0452,0.0227-0.0895,0.0456-0.1339,0.069c-0.0943,0.0496-0.1865,0.1-0.2769,0.1518
					c-0.0342,0.0197-0.0681,0.039-0.1017,0.0589c-0.1012,0.0598-0.1993,0.1198-0.2946,0.1808
					c-0.0196,0.0125-0.0392,0.0248-0.0587,0.0373c-0.1122,0.0728-0.2197,0.145-0.3223,0.217
					c-0.0007,0.0005-0.0015,0.0009-0.0022,0.0014c-0.0002,0.0003-0.0007,0.0005-0.001,0.0008
					c-0.7385,0.5181-1.2167,0.9873-1.2167,0.9873s0.0383,0.0277,0.1153,0.0724c-0.2294-0.0787-0.3411-0.1308-0.3411-0.1308
					S99.1954,72.473,101.7332,72.3845z"/>
			</g>
			<g>
				<path class="st3" d="M47.9201,78.5694c10.4298,2.4101,20.7273,4.6422,23.4026-0.1662c1.1432-2.0548-0.3643-5.8808-2.8316-9.391
					c-1.9661-2.7281-3.7307-4.3967-6.3307-6.378c-0.0032-0.0024,0.0079-0.0004,0.0119-0.0011
					c-0.8357-0.5399-1.6516-0.949-2.4064-1.1499C54.5065,60.0826,41.2357,75.5095,47.9201,78.5694z"/>
				<path class="st4" d="M66.6192,69.0368c0,0-0.7309-4.7951-3.8136-4.0337c-3.0823,0.7615-5.3647,2.7065-7.6655,3.882
					c-2.0513,1.0491-4.6625,0.6115-2.3175-2.1866c2.4314-2.8983,5.016-5.723,8.596-6.0355
					c0.0042-0.0003,0.0083,0.0005,0.0125,0.0001c2.1727-0.1817,4.1195,1.3919,5.1458,3.5876
					c0.5371,1.1462,0.8095,2.3515,0.8259,3.6781c0.0022,0.1732-0.0122,0.4406-0.043,0.715
					C67.2691,69.448,67.0314,70.3115,66.6192,69.0368z"/>
			</g>
			<g>
				<path d="M63.8937,72.3845c-2.0349-0.0708-7.6488,1.8968-11.1063,2.2399c1.4895,0.3236,2.8616,0.5667,4.1264,0.7474
					c-0.5961-0.1082-1.2195-0.2321-1.8716-0.3738c0.3234-0.156,0.6703-0.3081,1.0308-0.4557
					c0.0134-0.0055,0.026-0.0111,0.0393-0.0165c0.3589-0.1462,0.7331-0.2868,1.1153-0.4218
					c0.0132-0.0047,0.0258-0.0095,0.0391-0.0141c0.3897-0.137,0.7872-0.2669,1.1873-0.3894c0.003-0.001,0.0062-0.0019,0.0092-0.0029
					c0.4054-0.124,0.8116-0.2393,1.2136-0.3454c0.0001-0.0001,0.0004,0,0.0005-0.0002c0.0001,0,0.0004-0.0001,0.0007-0.0001
					c0.4383-0.1157,0.8695-0.2197,1.2864-0.3102c0.0007-0.0002,0.0013-0.0003,0.002-0.0005
					c0.2036-0.0441,0.403-0.0851,0.5983-0.1226c0.0064-0.0012,0.0129-0.0025,0.019-0.0038c0.183-0.0349,0.3608-0.0665,0.5346-0.0951
					c0.0183-0.0031,0.0374-0.0066,0.0556-0.0096c0.1587-0.0257,0.3114-0.0478,0.4609-0.0679c0.0292-0.004,0.06-0.0089,0.0887-0.0126
					c0.1384-0.0178,0.2693-0.0316,0.3981-0.0441c0.0338-0.0033,0.0703-0.008,0.1035-0.011c0.1223-0.0107,0.236-0.0172,0.3479-0.0227
					c0.033-0.0017,0.0697-0.005,0.1017-0.0062c0.1395-0.005,0.2707-0.0059,0.3909-0.0017c0.153,0.0053,0.3058,0.021,0.4579,0.0438
					c0.0512,0.0076,0.1018,0.0203,0.1529,0.0297c0.1007,0.0186,0.2009,0.0373,0.3005,0.0623
					c0.0586,0.0148,0.116,0.0334,0.1742,0.0501c0.0913,0.0264,0.1825,0.0527,0.2724,0.0837
					c0.0577,0.0198,0.1141,0.0419,0.1711,0.0635c0.0895,0.0338,0.1784,0.068,0.266,0.1054c0.0528,0.0226,0.1045,0.0463,0.1567,0.07
					c0.0907,0.0414,0.18,0.0834,0.2681,0.1277c0.0452,0.0227,0.0895,0.0456,0.1339,0.069c0.0943,0.0496,0.1865,0.1,0.2769,0.1518
					c0.0342,0.0197,0.0681,0.039,0.1017,0.0589c0.1012,0.0598,0.1993,0.1198,0.2946,0.1808
					c0.0196,0.0125,0.0392,0.0248,0.0587,0.0373c0.1122,0.0728,0.2197,0.145,0.3223,0.217
					c0.0008,0.0005,0.0015,0.0009,0.0022,0.0014c0.0002,0.0003,0.0007,0.0005,0.001,0.0008
					c0.7385,0.5181,1.2167,0.9873,1.2167,0.9873s-0.0383,0.0277-0.1153,0.0724c0.2294-0.0787,0.3411-0.1308,0.3411-0.1308
					S66.4314,72.473,63.8937,72.3845z"/>
			</g>
			<path class="st5" d="M94.6467,83.8533c-7.8451-7.0457,0.035-22.6472-2.9963-32.2092c-3.0351-9.5621-9.5318-8.7232-9.5318-8.7232
				s-6.4996-0.8388-9.5312,8.7232c-0.4813,1.5174-0.6862,3.1878-0.7241,4.9511c-0.1202,5.5912,1.4475,12.1227,1.3186,17.7398
				c-0.0869,3.7742-0.9386,7.1362-3.5911,9.5184c-6.5889,5.9172-16.5939,11.7668-17.0343,21.3019
				c-0.1889,4.0907,0.6365,11.8387,10.9746,13.9249c4.6446,0.9373,14.1301-2.0932,18.928-4.429
				c4.8799,2.3757,15.1051,4.2425,18.3219,3.7297c9.5962-1.5298,11.9349-4.5688,11.4921-14.2905
				C111.788,93.4454,101.7238,90.2094,94.6467,83.8533z M63.1562,114.8987c-0.0637,0.0203-0.1247,0.0441-0.1874,0.0659
				c0.0125-0.0731,0.036-0.14,0.0743-0.2017C63.081,114.8082,63.117,114.8538,63.1562,114.8987z"/>
			<path class="st7" d="M91.5527,84.1548c-0.3228-0.6691-0.7602-1.2976-1.1999-1.8383c-0.4397-0.5406-0.8818-0.9932-1.214-1.3109
				c-0.1662-0.1588-0.3045-0.2837-0.4017-0.3691c-0.0971-0.0852-0.1527-0.1309-0.1527-0.1309s-1.3514-1.0287-2.9976-1.7152
				c-1.2244-0.5103-2.5296-0.458-3.7299-0.3929c-1.2003-0.0651-2.5056-0.1174-3.7299,0.3929
				c-1.6462,0.6865-2.9976,1.7152-2.9976,1.7152s-0.0556,0.0456-0.1527,0.1309c-0.0972,0.0854-0.2356,0.2103-0.4017,0.3691
				c-0.3323,0.3176-0.7743,0.7702-1.214,1.3109c-0.4398,0.5406-0.8771,1.1691-1.1999,1.8383
				c-0.3226,0.6692-0.5305,1.3789-0.5116,2.082c0.0255,0.9375,0.4545,1.8632,1.5533,2.665c0.1654,0.1208,0.3132,0.245,0.5105,0.3597
				c0.7552,0.4421,1.4676,0.7812,2.1427,1.0409c1.2535,2.5149,3.6925,6.2073,5.9953,6.6996c0,0.0011,0,0.0022,0,0.0033
				c0.0009-0.0003,0.0019-0.0005,0.0028-0.0008s0.0019-0.0006,0.0028-0.0008c0.0019,0.0004,0.0038,0.0012,0.0057,0.0016V97.002
				c2.3028-0.4923,4.7419-4.1847,5.9953-6.6996c0.6751-0.2598,1.3875-0.5988,2.1428-1.0409
				c0.1972-0.1147,0.345-0.2389,0.5104-0.3597c1.0989-0.8018,1.5278-1.7275,1.5533-2.665
				C92.0831,85.5337,91.8753,84.824,91.5527,84.1548z"/>
			<path class="st6" d="M82.2235,115.2958c-0.2906-0.7561-1.0276-12.9694-0.5518-17.669l0.2786,0.0284
				c-0.4824,4.758,0.3092,16.9552,0.5343,17.5401L82.2235,115.2958z"/>
			<g>
				<path class="st3" d="M132.9514,71.5826c-4.0333,0.2966-10.4876,4.1462-10.4613,4.2627
					c-0.0036-0.0038-0.0075-0.0088-0.0111-0.0124c-1.5627-1.5909-3.1374-5.8707-4.4386-11.1092
					c-0.875-3.5227-1.6249-7.4747-2.1631-11.3477c-0.0451-0.3244-0.088-0.6471-0.13-0.97
					c-0.1021-0.7841-0.1959-1.5627-0.2791-2.3316c-0.0896-0.8283-0.1665-1.6425-0.2324-2.4425
					c-0.0241-0.2861-0.0472-0.5709-0.0682-0.8525c-0.0063-0.0868-0.0121-0.1729-0.0181-0.2593
					c-0.359-5.046-0.1982-9.3135,0.7296-11.3506c0.1024-0.2249,0.1899-0.4508,0.3886-0.516
					c0.7748-0.2537,6.5609-0.5767,12.6535,1.074c0.0351,0.0095,0.0746,0.0288,0.11,0.0391
					c0.0093,0.0027,0.0196,0.0076,0.0289,0.0103c3.578,1.0517,8.8047,5.7864,12.5671,9.5165
					c0.068,0.0678,0.1338,0.1368,0.2014,0.2051c-0.0097-0.0119-0.0177-0.0205-0.0275-0.0327
					c0.0583,0.0576,0.1173,0.1158,0.1737,0.1721c-0.0027,0.0051-0.0172-0.0118-0.0245-0.0155
					c0.0071,0.0073,3.7609,3.2998,4.1937,5.0002c0.5613,2.2051-0.2748,11.2873-2.8727,19.988
					c-0.0062,0.0208-0.0203,0.0306-0.0275,0.0501C143.2982,70.5023,137.7066,71.2331,132.9514,71.5826z"/>
				<path class="st8" d="M134.7388,72.4877L134.7388,72.4877l-1.6598,0.2887l-2.9672,1.0799l-0.0001,0.0001l-6.8906,2.5079
					c-0.3281,0.1194-0.6464-0.145-0.7311-0.5189c-0.0264-0.1166-0.0317-0.2432-0.0054-0.373
					c2.5362-12.5344,6.0125-25.5419,9.1649-23.0084c4.7365,3.8037,9.6821,11.2435,11.6137,17.6781
					c0.0541,0.1803,0.0351,0.3602-0.0195,0.5185c-0.0274,0.0794-0.0659,0.1465-0.1144,0.2083
					c-0.0185,0.0235-0.0329,0.0512-0.054,0.0714c-0.074,0.0706-0.159,0.1247-0.2591,0.1421l-3.706,0.6447L134.7388,72.4877
					L134.7388,72.4877z"/>
			</g>
			<g>
				<path class="st3" d="M31.9667,72.2354C36,72.532,42.4544,76.3816,42.428,76.4981c0.0036-0.0038,0.0075-0.0088,0.0111-0.0124
					c1.5627-1.5909,3.1374-5.8707,4.4386-11.1092c0.875-3.5227,1.6249-7.4747,2.1631-11.3477c0.0451-0.3244,0.088-0.6471,0.13-0.97
					c0.1021-0.7841,0.1959-1.5627,0.2791-2.3316c0.0896-0.8283,0.1665-1.6425,0.2324-2.4425
					c0.0241-0.2861,0.0472-0.5709,0.0682-0.8525c0.0063-0.0868,0.0121-0.1729,0.0181-0.2593
					c0.359-5.046,0.1982-9.3135-0.7295-11.3506c-0.1024-0.2249-0.1899-0.4508-0.3886-0.516
					c-0.7748-0.2537-6.5609-0.5767-12.6535,1.074c-0.0351,0.0095-0.0746,0.0288-0.11,0.0391
					c-0.0093,0.0027-0.0196,0.0076-0.0289,0.0103c-3.578,1.0517-8.8047,5.7864-12.5671,9.5165
					c-0.068,0.0678-0.1338,0.1368-0.2014,0.2051c0.0097-0.0119,0.0177-0.0205,0.0275-0.0327
					c-0.0583,0.0576-0.1173,0.1158-0.1737,0.1721c0.0027,0.0051,0.0171-0.0118,0.0245-0.0155
					c-0.0071,0.0073-3.7609,3.2998-4.1937,5.0002c-0.5613,2.2051,0.2748,11.2873,2.8727,19.988
					c0.0062,0.0208,0.0203,0.0306,0.0275,0.0501C21.6197,71.1551,27.2114,71.8857,31.9667,72.2354z"/>
				<path class="st8" d="M30.1792,73.1404L30.1792,73.1404l1.6598,0.2887l2.9672,1.0799l0.0001,0.0001l6.8906,2.5079
					c0.3281,0.1194,0.6464-0.145,0.7311-0.5189c0.0264-0.1166,0.0317-0.2432,0.0054-0.373
					c-2.5362-12.5344-6.0125-25.5419-9.1649-23.0084c-4.7365,3.8037-9.6821,11.2435-11.6137,17.6781
					c-0.0541,0.1803-0.0351,0.3602,0.0195,0.5185c0.0274,0.0794,0.0659,0.1465,0.1144,0.2083
					c0.0185,0.0235,0.0329,0.0512,0.054,0.0714c0.074,0.0706,0.159,0.1247,0.2591,0.1421l3.706,0.6447L30.1792,73.1404
					L30.1792,73.1404z"/>
			</g>
			<path class="st9" d="M119.5839,39.3856c-4.9779-8.7913-17.5015-8.7913-17.5015-8.7913
				c-6.9104,0.3583-11.7481,2.1975-19.4748,2.2263c-8.0275,0.0299-13.1274-1.868-20.14-2.2263c0,0-12.5238,0-17.5017,8.7913
				c-4.9781,8.7913-1.4148,19.177,9.694,21.5001c19.493,3.1887,21.1698-10.6133,27.6152-10.6133
				c6.4449,0,8.1217,13.802,27.6147,10.6133C120.9987,58.5626,124.5618,48.1769,119.5839,39.3856z"/>
			<g>
				<path class="st10" d="M62.0774,59.6329c-3.814,0-7.7579,0-11.0152-1.6492c-3.9171-1.9834-5.8215-5.7105-5.8215-11.3946
					c0-8.7976,5.898-14.05,15.7767-14.05c4.4683,0,9.5965,1.0316,15.2417,3.0663l0.0891,0.0321l0.0877,0.0365
					c2.1715,0.9062,3.6813,2.4257,4.3668,4.3948c0.9439,2.7131,0.2338,6.0385-2.1109,9.8839
					C74.8859,56.1952,68.9855,59.6329,62.0774,59.6329L62.0774,59.6329z"/>
				<path class="st11" d="M49.0017,37.7393c3.8798-4.6021,12.1889-5.1658,12.1889-5.1658
					c-0.1219-0.0015-0.2447-0.0039-0.3655-0.0039c-9.8125,0-15.671,5.2171-15.671,13.9559c0,2.8901,0.4971,5.2694,1.5028,7.1691
					C46.6569,53.6946,45.1219,42.3415,49.0017,37.7393L49.0017,37.7393z"/>
			</g>
			<g>
				<path class="st10" d="M102.8582,59.6329c3.8139,0,7.7578,0,11.0152-1.6492c3.917-1.9834,5.8215-5.7105,5.8215-11.3946
					c0-8.7976-5.898-14.05-15.7767-14.05c-4.4683,0-9.5965,1.0316-15.2419,3.0663l-0.089,0.0321l-0.0877,0.0365
					c-2.1715,0.9062-3.6814,2.4257-4.3668,4.3948c-0.9438,2.7131-0.234,6.0385,2.1108,9.8839
					C90.0496,56.1952,95.95,59.6329,102.8582,59.6329L102.8582,59.6329z"/>
				<path class="st11" d="M87.0765,37.1274c4.8204-3.5831,17.2258-4.5819,17.2258-4.5819c-0.1284-0.0018-0.2545-0.0064-0.384-0.0064
					c-4.4683,0-9.5965,1.0316-15.2419,3.0665l-0.0893,0.0321l-0.0874,0.0366c-2.1715,0.9059-3.6814,2.4255-4.3665,4.3945
					c-0.9441,2.7131-0.234,6.0385,2.1105,9.8839c0.4226,0.6929,0.8719,1.349,1.3444,1.9716
					C87.5159,51.3718,82.2561,40.7105,87.0765,37.1274L87.0765,37.1274z"/>
			</g>
			<path class="st12" d="M76.7726,38.5094c4.6086,1.759,3.0624,6.2395,0.625,9.8974c-2.4375,3.6576-7.1877,8.3913-15.5005,8.3913
				c-8.3129,0-15.188-0.1076-15.188-10.1125C46.7091,34.4751,60.4594,33.1305,76.7726,38.5094L76.7726,38.5094z"/>
			<path class="st12" d="M88.6154,38.3043c-4.4448,1.6965-2.9534,6.0178-0.6026,9.5457c2.3508,3.5277,6.9322,8.0931,14.9497,8.0931
				c8.0176,0,14.6484-0.1038,14.6484-9.7532C117.6109,34.4133,104.349,33.1165,88.6154,38.3043L88.6154,38.3043z"/>
			
				<ellipse transform="matrix(0.5 -0.866 0.866 0.5 -9.1338 77.6344)" class="st1" cx="62.6674" cy="46.7274" rx="10.3861" ry="7.2597"/>
			<path class="st12" d="M52.407,43.1958c1.8075-3.7383,5.7767-6.8783,6.0717-7.1078c1.5795-0.3263,3.275-0.2148,4.8533-0.0608
				c0.3501,0.0335,0.696,0.0708,1.0329,0.1047c1.1989,0.1209,2.4197,0.2717,3.6115,0.491c0.9677,0.1752,1.9157,0.3979,2.8134,0.6847
				c2.4701,0.7886,3.564,2.9569,4.2485,4.756c0.8892,2.3366,0.6324,4.36-0.5224,6.706c-0.9899,2.0103-2.4719,4.0657-4.7317,5.4789
				c-1.8944,1.1844-4.1484,2.1814-6.5954,2.3937c-0.7277,0.0636-1.4559,0.1018-2.1839,0.1159
				c-0.0478-0.2734-0.0774-0.5597-0.0935-0.8568c-0.3033-5.5836,4.65-14.9984,6.6833-18.6108
				c-1.3828-0.2973-3.3662-0.4665-4.8156-0.5565c-1.7067,2.2415-4.5387,6.5731-5.3171,11.4765c0,0,1.3594-2.2487,3.1653-4.2002
				c-1.0972,3.2205-2.5423,8.3482-2.0396,11.8293c0.0447,0.3097,0.1034,0.6058,0.1816,0.887
				c-0.8609-0.0404-1.7185-0.1157-2.5657-0.2234c-2.0405-0.2627-4.0177-0.6394-5.4305-1.6788
				C49.3664,51.5054,50.7493,46.6292,52.407,43.1958z"/>
			
				<ellipse transform="matrix(0.866 -0.5 0.5 0.866 -9.4184 57.3041)" class="st1" cx="102.219" cy="46.2266" rx="7.057" ry="10.0961"/>
			<path class="st12" d="M112.586,42.663c-1.7578-3.6356-5.618-6.6893-5.9049-6.9126c-1.5361-0.3173-3.185-0.2089-4.72-0.0591
				c-0.3405,0.0325-0.6769,0.0689-1.0045,0.1019c-1.166,0.1176-2.3532,0.2643-3.5123,0.4775
				c-0.9412,0.1704-1.8631,0.387-2.7362,0.6659c-2.4022,0.7669-3.4661,2.8756-4.1318,4.6253
				c-0.8648,2.2724-0.6151,4.2402,0.508,6.5218c0.9627,1.9551,2.404,3.954,4.6017,5.3284c1.8424,1.1518,4.0345,2.1215,6.4142,2.328
				c0.7077,0.0619,1.4159,0.099,2.1239,0.1127c0.0465-0.2659,0.0753-0.5444,0.091-0.8332
				c0.2949-5.4302-4.5222-14.5864-6.4997-18.0995c1.3448-0.2891,3.2737-0.4537,4.6833-0.5412
				c1.6598,2.1799,4.414,6.3925,5.171,11.1612c0,0-1.3221-2.1869-3.0783-4.0848c1.067,3.132,2.4725,8.1188,1.9836,11.5043
				c-0.0435,0.3012-0.1006,0.5891-0.1766,0.8627c0.8372-0.0393,1.6713-0.1125,2.4952-0.2173
				c1.9844-0.2555,3.9074-0.6218,5.2813-1.6327C115.543,50.7443,114.1981,46.0021,112.586,42.663z"/>
			<g>
				<path class="st4" d="M71.0518,102.5393c-0.3412,0-0.6183,0.2769-0.6183,0.6183c0,0.3415,0.277,0.6183,0.6183,0.6183
					c0.3416,0,0.6183-0.2769,0.6183-0.6183C71.6701,102.8161,71.3933,102.5393,71.0518,102.5393z"/>
				<path class="st4" d="M69.2794,105.5483c-0.3416,0-0.6183,0.2768-0.6183,0.6183s0.2767,0.6183,0.6183,0.6183
					s0.6183-0.2769,0.6183-0.6183S69.6209,105.5483,69.2794,105.5483z"/>
				<path class="st4" d="M65.2816,101.6736c-0.3416,0-0.6183,0.2769-0.6183,0.6183s0.2767,0.6183,0.6183,0.6183
					s0.6183-0.2768,0.6183-0.6183S65.6233,101.6736,65.2816,101.6736z"/>
				<circle class="st4" cx="65.2816" cy="105.5483" r="0.6183"/>
				<path class="st4" d="M67.7131,103.1575c-0.3416,0-0.6183,0.2769-0.6183,0.6183s0.2767,0.6183,0.6183,0.6183
					s0.6183-0.2768,0.6183-0.6183S68.0546,103.1575,67.7131,103.1575z"/>
				<circle class="st4" cx="69.3005" cy="101.0554" r="0.6183"/>
				<path class="st4" d="M66.8064,107.5681c-0.3416,0-0.6186,0.2768-0.6186,0.6183s0.277,0.6183,0.6186,0.6183
					c0.3413,0,0.6183-0.2768,0.6183-0.6183S67.1477,107.5681,66.8064,107.5681z"/>
				<circle class="st4" cx="63.7148" cy="108.1863" r="0.6183"/>
				<circle class="st4" cx="94.3961" cy="103.5666" r="0.6183"/>
				<circle class="st4" cx="96.1684" cy="106.5757" r="0.6183"/>
				<path class="st4" d="M100.1662,102.0826c-0.3416,0-0.6183,0.2768-0.6183,0.6183s0.2767,0.6183,0.6183,0.6183
					s0.6183-0.2769,0.6183-0.6183S100.5078,102.0826,100.1662,102.0826z"/>
				<path class="st4" d="M100.1662,105.3391c-0.3416,0-0.6183,0.2769-0.6183,0.6183s0.2767,0.6183,0.6183,0.6183
					s0.6183-0.2768,0.6183-0.6183S100.5078,105.3391,100.1662,105.3391z"/>
				<path class="st4" d="M98.3531,104.1849c0-0.3415-0.2767-0.6183-0.6183-0.6183s-0.6183,0.2768-0.6183,0.6183
					s0.2767,0.6183,0.6183,0.6183S98.3531,104.5264,98.3531,104.1849z"/>
				<path class="st4" d="M96.1475,102.0826c0.3416,0,0.6186-0.2769,0.6186-0.6183c0-0.3415-0.277-0.6183-0.6186-0.6183
					c-0.3413,0-0.6183,0.2769-0.6183,0.6183C95.5292,101.8059,95.8063,102.0826,96.1475,102.0826z"/>
				<path class="st4" d="M98.6419,107.9771c-0.3416,0-0.6186,0.2769-0.6186,0.6183s0.277,0.6183,0.6186,0.6183
					c0.3412,0,0.6183-0.2769,0.6183-0.6183S98.9831,107.9771,98.6419,107.9771z"/>
				<path class="st4" d="M101.7332,107.9771c-0.3416,0-0.6183,0.2769-0.6183,0.6183s0.2767,0.6183,0.6183,0.6183
					s0.6183-0.2769,0.6183-0.6183C102.3514,108.254,102.0748,107.9771,101.7332,107.9771z"/>
			</g>
		</g>
		<g>
			<path class="st1" d="M60.5993,47.3297c-0.697-1.086-1.4396-2.3064-2.189-3.6353c-3.2232-5.5746-6.565-9.9046-9.0756-17.3892
				c-2.5106,7.4846-5.8539,11.8146-9.0771,17.3892c-0.7485,1.3274-1.4903,2.5465-2.1866,3.6315
				c-5.7109,8.8994,0.6028,20.6792,11.1768,20.7322c0.1651,0.0008,0.3303-0.0007,0.4954-0.0046
				C60.1709,67.8051,66.2332,56.108,60.5993,47.3297z"/>
			<g>
				
					<radialGradient id="SVGID_1_" cx="42.7845" cy="121.8436" r="17.5474" gradientTransform="matrix(1 0 0 -1 0 176.6103)" gradientUnits="userSpaceOnUse">
					<stop  offset="0" style="stop-color:#FFFFFF"/>
					<stop  offset="1" style="stop-color:#00C1DE"/>
				</radialGradient>
				<path class="st13" d="M60.5993,47.3297c-0.697-1.086-1.4396-2.3064-2.189-3.6353c-3.2232-5.5746-6.565-9.9046-9.0756-17.3892
					c-2.5106,7.4846-5.8539,11.8146-9.0771,17.3892c-0.7485,1.3274-1.4903,2.5465-2.1866,3.6315
					c-5.7109,8.8994,0.6028,20.6792,11.1768,20.7322c0.1651,0.0008,0.3303-0.0007,0.4954-0.0046
					C60.1709,67.8051,66.2332,56.108,60.5993,47.3297z M43.7738,53.2995c0.6511,2.0743-0.8596,4.1906-3.0337,4.1906h-0.0712
					c-1.8032,0-3.2523-1.4921-3.1931-3.2944c0.0691-2.1016,0.7057-4.1416,1.9041-6.0091c0.7737-1.2058,1.5234-2.4709,2.2283-3.7204
					c0.7681-1.3281,1.5581-2.6085,2.3222-3.8473c1.0124-1.6416,2.0393-3.3061,3.0348-5.1155
					c0.1626-0.2956,0.6121-0.0936,0.4986,0.2242c-0.1707,0.4781-0.3419,0.9524-0.5126,1.4248
					c-0.4946,1.3689-1.0061,2.7895-1.4863,4.2466c-0.4345,1.3672-0.9138,2.7493-1.4247,4.0878
					C43.0558,48.0661,42.9874,50.7938,43.7738,53.2995z M48.8674,66.5029c-1.2201-0.0061-2.4002-0.1916-3.5131-0.5398
					c-0.4117-0.1288-0.2725-0.7383,0.1547-0.6785c1.8502,0.2593,3.7839,0.1401,5.6939-0.4166
					c3.8897-1.1338,6.8872-3.8502,8.4969-7.2437c0.1828-0.3853,0.7688-0.1699,0.6512,0.24
					c-0.233,0.8124-0.5546,1.6113-0.9655,2.3849c-2.0241,3.8114-5.7879,6.1477-10.0682,6.2497
					c-0.1235,0.0029-0.2472,0.0044-0.3708,0.0044L48.8674,66.5029z"/>
			</g>
		</g>
	</g>
</g>
<g id="Landing_Page_2">
</g>
<g id="Landing_Page_1">
</g>
<g id="Icons_and_Form_Fields">
</g>
</svg>
