<?xml version="1.0" encoding="UTF-8" standalone="no"?>
<!-- Generator: Adobe Illustrator 22.1.0, SVG Export Plug-In . SVG Version: 6.00 Build 0)  -->

<svg
   xmlns:dc="http://purl.org/dc/elements/1.1/"
   xmlns:cc="http://creativecommons.org/ns#"
   xmlns:rdf="http://www.w3.org/1999/02/22-rdf-syntax-ns#"
   xmlns:svg="http://www.w3.org/2000/svg"
   xmlns="http://www.w3.org/2000/svg"
   xmlns:sodipodi="http://sodipodi.sourceforge.net/DTD/sodipodi-0.dtd"
   xmlns:inkscape="http://www.inkscape.org/namespaces/inkscape"
   version="1.1"
   id="Layer_1"
   x="0px"
   y="0px"
   viewBox="0 0 560.57201 159.05483"
   xml:space="preserve"
   inkscape:version="0.48.3.1 r9886"
   width="100%"
   height="100%"
   sodipodi:docname="rover-logo.svg"><metadata
   id="metadata171"><rdf:RDF><cc:Work
       rdf:about=""><dc:format>image/svg+xml</dc:format><dc:type
         rdf:resource="http://purl.org/dc/dcmitype/StillImage" /><dc:title></dc:title></cc:Work></rdf:RDF></metadata><defs
   id="defs169" /><sodipodi:namedview
   pagecolor="#ffffff"
   bordercolor="#666666"
   borderopacity="1"
   objecttolerance="10"
   gridtolerance="10"
   guidetolerance="10"
   inkscape:pageopacity="0"
   inkscape:pageshadow="2"
   inkscape:window-width="640"
   inkscape:window-height="480"
   id="namedview167"
   showgrid="false"
   fit-margin-top="2"
   fit-margin-left="2"
   fit-margin-right="2"
   fit-margin-bottom="2"
   inkscape:zoom="0.5"
   inkscape:cx="280.286"
   inkscape:cy="79.5274"
   inkscape:window-x="644"
   inkscape:window-y="2"
   inkscape:window-maximized="0"
   inkscape:current-layer="Layer_1" />
<style
   type="text/css"
   id="style3">
	.st0{fill:#333333;}
	.st1{fill:url(#SVGID_1_);}
	.st2{fill:#231F20;}
	.st3{fill:#FFFFFF;}
	.st4{fill:#4D4D4D;}
	.st5{fill:none;}
	.st6{fill:#B3B3B3;}
	.st7{fill:#CCCCCC;}
	.st8{fill:#E6E6E6;}
	.st9{fill:#BBBDBF;}
	.st10{fill:#808080;}
	.st11{fill:#F4A9C9;}
	.st12{fill:#00C1DE;}
	.st13{fill:#1A1A1A;}
	.st14{fill:#868282;}
	.st15{fill:#B0AEAE;}
	.st16{fill:#D2D0CE;}
	.st17{fill:#77411C;}
	.st18{fill:#999999;}
	.st19{fill:none;stroke:#FF7E3E;stroke-width:0.5;stroke-miterlimit:10;}
	.st20{fill:#FFFFFF;stroke:#FFFFFF;stroke-width:2;stroke-miterlimit:10;}
	.st21{fill:none;stroke:#FFFFFF;stroke-miterlimit:10;}
	.st22{stroke:#FF7E3E;stroke-miterlimit:10;}
	.st23{fill:#FFFFFF;stroke:#FFFFFF;stroke-width:0.5;stroke-miterlimit:10;}
	.st24{fill:#FFFFFF;stroke:#FFFFFF;stroke-miterlimit:10;}
	.st25{fill:#878383;}
	.st26{fill:#FF7E3E;}
	.st27{fill:#D3D0CF;}
	.st28{fill:#FF7E3E;stroke:#FF7E3E;stroke-width:2;stroke-miterlimit:10;}
	.st29{fill:#FFFFFF;stroke:#FF7E3E;stroke-width:2;stroke-miterlimit:10;}
	.st30{fill:none;stroke:#FF7E3E;stroke-miterlimit:10;}
	.st31{fill:#FFFFFF;stroke:#FF7E3E;stroke-width:0.5;stroke-miterlimit:10;}
	.st32{fill:#FF7E3E;stroke:#FF7E3E;stroke-miterlimit:10;}
	.st33{fill:#FFFFFF;stroke:#FF7E3E;stroke-miterlimit:10;}
	.st34{fill:#878383;stroke:#FF7E3E;stroke-miterlimit:10;}
	.st35{fill:#D3D0CF;stroke:#FF7E3E;stroke-miterlimit:10;}
	.st36{fill:#BCBEC0;}
	.st37{fill:#414042;}
	.st38{fill:#D1D3D4;}
	.st39{fill:#B0AEAF;}
	.st40{fill:#939598;}
	.st41{fill:none;stroke:#000000;stroke-width:5;stroke-miterlimit:10;}
	.st42{fill:#F6A9CA;}
	.st43{fill:#77411B;}
	.st44{fill:none;stroke:#FF7E3E;stroke-width:5;stroke-miterlimit:10;}
	.st45{fill:#A7A9AC;}
	.st46{fill:none;stroke:#FFFFFF;stroke-width:5;stroke-miterlimit:10;}
</style>
<g
   id="g5"
   transform="translate(-44.714,-57.972572)">
	<line
   class="st2"
   x1="471.74841"
   y1="137.5179"
   x2="471.7428"
   y2="137.5063"
   id="line7"
   style="fill:#231f20" />
	<path
   class="st2"
   d="m 494.9482,84.1225 c 0.075,-0.07 0.1477,-0.1406 0.2232,-0.2103 -0.0643,0.059 -0.1283,0.1177 -0.1932,0.1771 -0.0106,0.0124 -0.0194,0.0211 -0.03,0.0332 z"
   id="path9"
   inkscape:connector-curvature="0"
   style="fill:#231f20" />
	<path
   class="st2"
   d="m 481.1125,133.1439 0.0291,0.0482 c 0.2997,-0.084 0.6018,-0.1655 0.8953,-0.2567 -0.3109,0.0665 -0.6068,0.1491 -0.9244,0.2085 z"
   id="path11"
   inkscape:connector-curvature="0"
   style="fill:#231f20" />
	<path
   class="st2"
   d="m 494.7853,84.2661 c 0.002,0.0019 0.003,0.0038 0.004,0.0057 0.008,-0.0074 0.0159,-0.0149 0.0237,-0.0223 -0.009,0.0041 -0.0243,0.0213 -0.0281,0.0166 z"
   id="path13"
   inkscape:connector-curvature="0"
   style="fill:#231f20" />
	<path
   class="st26"
   d="m 61.031,195.104 c -0.6011,-0.6387 -1.3257,-1.1392 -2.1743,-1.5015 -0.8486,-0.3623 -1.7974,-0.5435 -2.8462,-0.5435 -0.9722,0 -1.8877,0.2051 -2.7461,0.6147 -0.8579,0.4106 -1.5156,0.9683 -1.9736,1.6733 h -0.0571 v -10.0117 h -2.5742 v 21.6255 h 2.5742 v -1.9453 h 0.0571 c 0.4956,0.7251 1.1772,1.2876 2.0454,1.688 0.8677,0.4004 1.7593,0.6006 2.6743,0.6006 1.0488,0 1.9976,-0.1816 2.8462,-0.5435 0.8486,-0.3623 1.5732,-0.8677 2.1743,-1.5161 0.6006,-0.6479 1.0625,-1.4019 1.3872,-2.2598 0.3242,-0.8584 0.4863,-1.7925 0.4863,-2.8032 0,-1.0107 -0.1621,-1.9497 -0.4863,-2.8179 -0.3247,-0.867 -0.7866,-1.6204 -1.3872,-2.2596 z m -1.187,6.98 c -0.2104,0.5815 -0.5059,1.0776 -0.8872,1.4873 -0.3813,0.4102 -0.8486,0.7344 -1.4014,0.9727 -0.5532,0.2388 -1.1729,0.3574 -1.8594,0.3574 -0.6865,0 -1.3066,-0.1187 -1.8594,-0.3574 -0.5532,-0.2383 -1.0205,-0.5625 -1.4014,-0.9727 -0.3818,-0.4097 -0.6772,-0.9058 -0.8867,-1.4873 -0.2104,-0.5815 -0.3149,-1.2158 -0.3149,-1.9023 0,-0.6865 0.1045,-1.3203 0.3149,-1.9023 0.2095,-0.5815 0.5049,-1.0771 0.8867,-1.4873 0.3809,-0.4102 0.8481,-0.7339 1.4014,-0.9727 0.5527,-0.2383 1.1729,-0.3574 1.8594,-0.3574 0.6865,0 1.3062,0.1191 1.8594,0.3574 0.5527,0.2388 1.02,0.5625 1.4014,0.9727 0.3814,0.4102 0.6768,0.9058 0.8872,1.4873 0.2095,0.582 0.3145,1.2158 0.3145,1.9023 0,0.6865 -0.105,1.3208 -0.3145,1.9023 z"
   id="path15"
   inkscape:connector-curvature="0"
   style="fill:#ff7e3e" />
	<path
   class="st26"
   d="m 70.1521,203.9859 h -0.0576 l -4.0146,-10.5835 h -2.9751 l 5.6104,13.6445 -0.8335,2.145 c -0.1328,0.3433 -0.2651,0.6484 -0.3975,0.9155 -0.1328,0.2671 -0.2988,0.5005 -0.4976,0.7007 -0.1992,0.2002 -0.4365,0.353 -0.7109,0.458 -0.2744,0.1045 -0.6108,0.1572 -1.0088,0.1572 -0.5117,0 -1.0234,-0.105 -1.5347,-0.3145 l -0.313,2.3452 c 0.3608,0.1523 0.7358,0.2524 1.125,0.3003 0.3896,0.0474 0.7744,0.0718 1.1543,0.0718 0.7026,0 1.2954,-0.0957 1.7803,-0.2861 0.4844,-0.1909 0.8975,-0.4575 1.2393,-0.8008 0.3413,-0.3433 0.6362,-0.7583 0.8828,-1.2446 0.2466,-0.4863 0.4844,-1.0249 0.7124,-1.6162 l 6.436,-16.4761 h -2.7461 l -3.8511,10.5836 z"
   id="path17"
   inkscape:connector-curvature="0"
   style="fill:#ff7e3e" />
	<path
   class="st26"
   d="m 101.6497,189.2544 c -0.9253,-0.9531 -2.0356,-1.7017 -3.3325,-2.2456 -1.2969,-0.5435 -2.7173,-0.8149 -4.2622,-0.8149 -1.5444,0 -2.9653,0.2715 -4.2617,0.8149 -1.2974,0.5439 -2.4077,1.2925 -3.3325,2.2456 -0.9253,0.9541 -1.6499,2.0791 -2.1743,3.3755 -0.5244,1.2969 -0.7866,2.6987 -0.7866,4.2051 0,1.5064 0.2622,2.9082 0.7866,4.2046 0.5244,1.2974 1.249,2.4224 2.1743,3.3755 0.9248,0.9536 2.0352,1.7021 3.3325,2.2456 1.2964,0.5435 2.7173,0.8149 4.2617,0.8149 1.5449,0 2.9653,-0.2715 4.2622,-0.8149 1.2969,-0.5434 2.4072,-1.292 3.3325,-2.2456 0.9248,-0.9531 1.6494,-2.0781 2.1743,-3.3755 0.5239,-1.2964 0.7866,-2.6982 0.7866,-4.2046 0,-1.5064 -0.2627,-2.9082 -0.7866,-4.2051 -0.5249,-1.2964 -1.2495,-2.4214 -2.1743,-3.3755 z m -0.5005,10.7124 c -0.3623,0.9824 -0.8774,1.8359 -1.5444,2.5605 -0.668,0.7246 -1.4688,1.3013 -2.4028,1.7305 -0.9346,0.4292 -1.9839,0.6436 -3.147,0.6436 -1.1631,0 -2.2124,-0.2144 -3.1465,-0.6436 -0.9346,-0.4292 -1.7354,-1.0059 -2.4028,-1.7305 -0.6674,-0.7246 -1.1826,-1.5781 -1.5444,-2.5605 -0.3623,-0.9819 -0.5435,-2.0259 -0.5435,-3.1318 0,-1.1059 0.1812,-2.1499 0.5435,-3.1323 0.3618,-0.9819 0.877,-1.8354 1.5444,-2.5601 0.6674,-0.7247 1.4683,-1.3018 2.4028,-1.731 0.9341,-0.4287 1.9834,-0.6436 3.1465,-0.6436 1.1631,0 2.2124,0.2148 3.147,0.6436 0.9341,0.4292 1.7349,1.0063 2.4028,1.731 0.667,0.7246 1.1821,1.5781 1.5444,2.5601 0.3618,0.9824 0.5435,2.0264 0.5435,3.1323 0,1.1059 -0.1817,2.1499 -0.5435,3.1318 z"
   id="path19"
   inkscape:connector-curvature="0"
   style="fill:#ff7e3e" />
	<path
   class="st26"
   d="m 118.8411,195.1187 c -0.6011,-0.6484 -1.3257,-1.1538 -2.1743,-1.5161 -0.8486,-0.3623 -1.7974,-0.5435 -2.8462,-0.5435 -0.915,0 -1.8066,0.2002 -2.6743,0.6006 -0.8682,0.4004 -1.5498,0.9634 -2.0454,1.6875 h -0.0571 v -1.9448 h -2.5742 v 21.625 h 2.5742 v -10.0117 h 0.0571 c 0.458,0.7061 1.1157,1.2637 1.9736,1.6733 0.8584,0.4102 1.7739,0.6152 2.7461,0.6152 1.0488,0 1.9976,-0.1816 2.8462,-0.5435 0.8486,-0.3623 1.5732,-0.8628 2.1743,-1.502 0.6006,-0.6387 1.0625,-1.3916 1.3872,-2.2598 0.3242,-0.8672 0.4863,-1.8066 0.4863,-2.8174 0,-0.9912 -0.1621,-1.9209 -0.4863,-2.7891 -0.3247,-0.8675 -0.7866,-1.6253 -1.3872,-2.2737 z m -1.187,6.9653 c -0.2104,0.5815 -0.5059,1.0776 -0.8872,1.4873 -0.3813,0.4102 -0.8486,0.7344 -1.4014,0.9727 -0.5532,0.2388 -1.1729,0.3574 -1.8594,0.3574 -0.6865,0 -1.3066,-0.1187 -1.8594,-0.3574 -0.5532,-0.2383 -1.0205,-0.5625 -1.4014,-0.9727 -0.3818,-0.4097 -0.6772,-0.9058 -0.8867,-1.4873 -0.2104,-0.5815 -0.3149,-1.2158 -0.3149,-1.9023 0,-0.6865 0.1045,-1.3203 0.3149,-1.9023 0.2095,-0.5815 0.5049,-1.0771 0.8867,-1.4873 0.3809,-0.4102 0.8481,-0.7339 1.4014,-0.9727 0.5527,-0.2383 1.1729,-0.3574 1.8594,-0.3574 0.6865,0 1.3062,0.1191 1.8594,0.3574 0.5527,0.2388 1.02,0.5625 1.4014,0.9727 0.3814,0.4102 0.6768,0.9058 0.8872,1.4873 0.2095,0.582 0.3145,1.2158 0.3145,1.9023 0,0.6865 -0.105,1.3208 -0.3145,1.9023 z"
   id="path21"
   inkscape:connector-curvature="0"
   style="fill:#ff7e3e" />
	<path
   class="st26"
   d="m 133.8152,195.333 c -0.5342,-0.6768 -1.2158,-1.2251 -2.0454,-1.6445 -0.8296,-0.4194 -1.8447,-0.6294 -3.0464,-0.6294 -1.0107,0 -1.9453,0.1812 -2.8032,0.5435 -0.8579,0.3623 -1.5972,0.8628 -2.2168,1.5015 -0.6201,0.6392 -1.1064,1.3926 -1.459,2.2598 -0.353,0.8682 -0.5293,1.8071 -0.5293,2.8179 0,1.0108 0.1621,1.9502 0.4863,2.8174 0.3242,0.8682 0.7866,1.6211 1.3872,2.2598 0.6011,0.6392 1.335,1.1396 2.2026,1.502 0.8677,0.3618 1.8354,0.5435 2.9038,0.5435 2.5742,0 4.5767,-0.9248 6.0068,-2.7749 l -1.9453,-1.4873 c -0.4961,0.6108 -1.0396,1.1016 -1.6304,1.4731 -0.5913,0.3721 -1.2871,0.5581 -2.0879,0.5581 -0.5913,0 -1.1636,-0.0952 -1.7163,-0.2861 -0.5537,-0.1904 -1.04,-0.458 -1.459,-0.8013 -0.4199,-0.3433 -0.7583,-0.7578 -1.0156,-1.2441 -0.2573,-0.4863 -0.3862,-1.0249 -0.3862,-1.6162 h 10.8701 V 200.21 c 0,-0.8765 -0.1196,-1.7397 -0.3579,-2.5884 -0.2383,-0.8487 -0.6244,-1.6113 -1.1581,-2.2886 z m -9.354,3.7329 c 0,-0.4575 0.1001,-0.9199 0.3003,-1.3872 0.2002,-0.4673 0.4814,-0.8911 0.8442,-1.2729 0.3618,-0.3813 0.8052,-0.6909 1.3301,-0.9297 0.5239,-0.2383 1.1011,-0.3574 1.7305,-0.3574 0.6479,0 1.2158,0.1001 1.7021,0.3003 0.4863,0.2002 0.8911,0.4766 1.2153,0.8296 0.3242,0.353 0.5674,0.7676 0.7295,1.2441 0.1621,0.4771 0.2524,1.001 0.272,1.5732 h -8.124 z"
   id="path23"
   inkscape:connector-curvature="0"
   style="fill:#ff7e3e" />
	<path
   class="st26"
   d="m 147.531,194.2891 c -0.4482,-0.4194 -0.9722,-0.7295 -1.5732,-0.9297 -0.6006,-0.2002 -1.2256,-0.3003 -1.8735,-0.3003 -1.0488,0 -1.9736,0.2241 -2.7744,0.6719 -0.8013,0.4487 -1.3638,1.0347 -1.688,1.7593 h -0.0571 v -2.0879 h -2.5742 v 13.5586 h 2.5742 v -6.9795 c 0,-0.7817 0.0952,-1.459 0.2861,-2.0312 0.1904,-0.5718 0.4575,-1.0439 0.8008,-1.4155 0.3433,-0.3721 0.7437,-0.644 1.2017,-0.8154 0.4575,-0.1719 0.9531,-0.2573 1.4873,-0.2573 0.4004,0 0.7866,0.062 1.1587,0.1855 0.3716,0.1245 0.7007,0.3247 0.9868,0.6011 0.2861,0.2764 0.5146,0.6392 0.6865,1.0869 0.1714,0.4482 0.2573,0.9868 0.2573,1.6162 v 8.0093 h 2.5742 v -8.7246 c 0,-0.896 -0.1333,-1.6733 -0.4004,-2.3311 -0.2671,-0.6583 -0.6245,-1.1969 -1.0728,-1.6163 z"
   id="path25"
   inkscape:connector-curvature="0"
   style="fill:#ff7e3e" />
	<path
   class="st26"
   d="m 161.3763,196.6773 c -0.7344,-0.4097 -1.5352,-0.729 -2.4023,-0.958 -0.8682,-0.229 -1.6689,-0.4863 -2.4033,-0.7725 -0.7344,-0.2862 -1.3486,-0.6577 -1.8447,-1.1157 -0.4961,-0.4575 -0.7441,-1.1152 -0.7441,-1.9736 0,-0.3047 0.0625,-0.6387 0.1865,-1.001 0.124,-0.3623 0.3379,-0.7007 0.6436,-1.0156 0.3047,-0.3145 0.71,-0.5723 1.2158,-0.7725 0.5049,-0.2002 1.1387,-0.3003 1.9023,-0.3003 0.8008,0 1.5156,0.1626 2.1455,0.4863 0.6289,0.3247 1.1152,0.7534 1.458,1.2871 l 2.2315,-2.0308 c -0.7627,-0.9341 -1.6494,-1.5542 -2.6602,-1.8594 -1.0107,-0.3047 -2.0693,-0.4575 -3.1748,-0.4575 -1.2207,0 -2.2646,0.186 -3.1328,0.5576 -0.8682,0.3721 -1.5781,0.8345 -2.1309,1.3872 -0.5537,0.5537 -0.958,1.1636 -1.2158,1.8311 -0.2568,0.6675 -0.3857,1.2969 -0.3857,1.8877 0,1.3159 0.2471,2.3599 0.7432,3.1323 0.4961,0.7724 1.1113,1.3872 1.8457,1.8452 0.7334,0.4575 1.5342,0.8149 2.4023,1.0728 0.8672,0.2573 1.6689,0.5244 2.4033,0.8008 0.7334,0.2764 1.3486,0.6196 1.8447,1.0298 0.4951,0.4102 0.7432,1.0059 0.7432,1.7876 0,0.5532 -0.124,1.0396 -0.3711,1.459 -0.248,0.4199 -0.5684,0.7725 -0.959,1.0586 -0.3906,0.2856 -0.8242,0.5005 -1.3008,0.6436 -0.4775,0.1431 -0.9443,0.2144 -1.4023,0.2144 -0.8193,0 -1.6162,-0.1763 -2.3877,-0.5293 -0.7725,-0.3525 -1.4072,-0.9009 -1.9023,-1.6445 l -2.2598,1.9448 c 0.6865,0.9541 1.6113,1.6592 2.7744,2.1172 1.1631,0.4575 2.3926,0.686 3.6895,0.686 0.9727,0 1.8887,-0.1426 2.7461,-0.4287 0.8584,-0.2861 1.6025,-0.6958 2.2314,-1.23 0.6299,-0.5337 1.1299,-1.1919 1.502,-1.9741 0.3721,-0.7812 0.5576,-1.6587 0.5576,-2.6313 0,-1.2202 -0.248,-2.1787 -0.7432,-2.875 -0.4962,-0.6959 -1.1115,-1.2487 -1.8458,-1.6593 z"
   id="path27"
   inkscape:connector-curvature="0"
   style="fill:#ff7e3e" />
	<path
   class="st26"
   d="m 171.4593,204.9014 c -0.4961,0 -0.8721,-0.0903 -1.1299,-0.272 -0.2578,-0.1807 -0.4482,-0.4189 -0.5723,-0.7148 -0.124,-0.2954 -0.1953,-0.6294 -0.2139,-1.001 -0.0195,-0.3721 -0.0293,-0.7485 -0.0293,-1.1304 v -6.1499 h 3.6904 v -2.231 h -3.6904 v -3.8047 h -2.5742 v 3.8047 h -2.9746 v 2.231 h 2.9746 v 7.0654 c 0,0.5532 0.0234,1.1016 0.0713,1.645 0.0479,0.5434 0.2002,1.0347 0.458,1.4731 0.2578,0.439 0.6582,0.7964 1.2012,1.0728 0.5439,0.2759 1.3115,0.4146 2.3027,0.4146 0.2666,0 0.6436,-0.0337 1.1299,-0.1001 0.4863,-0.0669 0.8818,-0.186 1.1875,-0.3574 v -2.3457 c -0.2676,0.1528 -0.5625,0.2573 -0.8867,0.3145 -0.3252,0.0571 -0.6396,0.0859 -0.9443,0.0859 z"
   id="path29"
   inkscape:connector-curvature="0"
   style="fill:#ff7e3e" />
	<path
   class="st26"
   d="m 186.1907,204.501 v -6.9224 c 0,-0.5908 -0.1104,-1.1587 -0.3291,-1.7021 -0.2197,-0.5435 -0.5576,-1.0249 -1.0156,-1.4443 -0.457,-0.4194 -1.0439,-0.7534 -1.7588,-1.0015 -0.7158,-0.2476 -1.5693,-0.3716 -2.5605,-0.3716 -0.9531,0 -1.9072,0.167 -2.8604,0.5005 -0.9541,0.334 -1.793,0.8345 -2.5176,1.502 l 1.5449,1.6016 c 0.2285,-0.1714 0.4668,-0.3525 0.7148,-0.5435 0.248,-0.1904 0.5244,-0.3574 0.8301,-0.5005 0.3047,-0.1431 0.6436,-0.2622 1.0156,-0.3574 0.372,-0.0952 0.8047,-0.1431 1.3008,-0.1431 0.5537,0 1.0303,0.0811 1.4307,0.2432 0.4004,0.1621 0.7344,0.3813 1.001,0.6577 0.2666,0.2769 0.4678,0.5864 0.6006,0.9297 0.1338,0.3433 0.2002,0.6865 0.2002,1.0298 v 0.5723 h -1.8877 c -1.0293,0 -1.998,0.0811 -2.9033,0.2432 -0.9062,0.1621 -1.6973,0.4287 -2.374,0.8008 -0.6768,0.3716 -1.2109,0.8535 -1.6016,1.4443 -0.3916,0.5913 -0.5869,1.3257 -0.5869,2.2026 0,0.668 0.124,1.2544 0.3721,1.7593 0.2471,0.5054 0.5859,0.9297 1.0156,1.2729 0.4287,0.3433 0.9297,0.6006 1.502,0.7725 0.5713,0.1714 1.1719,0.2573 1.8018,0.2573 1.0293,0 1.9355,-0.1816 2.7178,-0.5435 0.7812,-0.3623 1.458,-0.9819 2.0303,-1.8594 h 0.0576 c 0,0.6865 0.0283,1.373 0.0859,2.0596 h 2.2881 c -0.0381,-0.3618 -0.0674,-0.7437 -0.0859,-1.144 -0.0185,-0.4003 -0.0285,-0.8389 -0.0285,-1.316 z m -2.4033,-3.2036 c 0,0.4575 -0.0664,0.9199 -0.2002,1.3872 -0.1328,0.4673 -0.3525,0.8916 -0.6572,1.2729 -0.3057,0.3818 -0.7061,0.6914 -1.2021,0.9297 -0.4961,0.2388 -1.0967,0.3574 -1.8018,0.3574 -0.8965,0 -1.6064,-0.1714 -2.1309,-0.5146 -0.5245,-0.3432 -0.7871,-0.9058 -0.7871,-1.688 0,-0.5337 0.167,-0.9727 0.501,-1.3159 0.333,-0.3433 0.7627,-0.6099 1.2871,-0.8008 0.5244,-0.1904 1.1055,-0.3193 1.7451,-0.3862 0.6387,-0.0664 1.2627,-0.1001 1.873,-0.1001 h 1.373 v 0.8584 z"
   id="path31"
   inkscape:connector-curvature="0"
   style="fill:#ff7e3e" />
	<polygon
   class="st26"
   points="190.7395,193.4024 187.4212,193.4024 192.2269,199.7242 186.7347,206.961 189.9095,206.961 193.9144,201.2686 197.9192,206.961 201.2376,206.961 195.7454,199.7242 200.3792,193.4024 197.261,193.4024 194.0286,198.208 "
   id="polygon33"
   style="fill:#ff7e3e" />
	<path
   class="st26"
   d="m 128.1535,176.0105 -25.8087,-42.8666 c 7.1697,-1.3388 12.6185,-4.5182 16.3463,-9.5353 3.7278,-5.0171 5.5887,-11.1104 5.5887,-18.2802 0,-5.9242 -1.0267,-10.8712 -3.0803,-14.8382 -2.0593,-3.967 -4.8303,-7.1201 -8.3189,-9.4624 -3.4886,-2.3422 -7.549,-4.0136 -12.1868,-5.02 -4.6379,-1.0034 -9.5324,-1.5051 -14.6953,-1.5051 H 46.714 V 176.0104 H 69.0807 V 135.4365 H 80.124 l 21.2174,40.5739 h 26.8121 z M 99.2647,111.6377 c -1.1959,1.5284 -2.7069,2.6514 -4.5212,3.369 -1.8143,0.7176 -3.8445,1.1464 -6.0905,1.2893 -2.246,0.1429 -4.3754,0.2158 -6.3822,0.2158 H 69.0807 V 93.4276 H 83.706 c 2.0068,0 4.0603,0.1458 6.1663,0.4317 2.1002,0.2858 3.967,0.8372 5.5887,1.648 1.6276,0.8138 2.9636,1.9865 4.0136,3.512 1.056,1.5314 1.581,3.5848 1.581,6.1663 0,2.7739 -0.6009,4.9237 -1.7909,6.4521 z"
   id="path35"
   inkscape:connector-curvature="0"
   style="fill:#ff7e3e" />
	<path
   class="st26"
   d="m 224.0505,86.3308 c -4.8712,-4.6349 -10.6583,-8.1935 -17.3438,-10.6787 -6.6913,-2.4852 -14.0069,-3.7278 -21.935,-3.7278 -7.9398,0 -15.2495,1.2426 -21.9408,3.7278 -6.6914,2.4852 -12.4726,6.0438 -17.3438,10.6787 -4.877,4.6379 -8.6748,10.2529 -11.3992,16.848 -2.7244,6.5951 -4.0837,13.9544 -4.0837,22.0779 0,8.1264 1.3593,15.4857 4.0837,22.0808 2.7244,6.5951 6.5222,12.2101 11.3992,16.845 4.8712,4.6378 10.6525,8.1965 17.3438,10.6816 6.6913,2.4822 14.001,3.7278 21.9408,3.7278 7.9281,0 15.2437,-1.2455 21.935,-3.7278 6.6855,-2.4852 12.4727,-6.0438 17.3438,-10.6816 4.8771,-4.6349 8.6749,-10.2499 11.3992,-16.845 2.7244,-6.5951 4.0895,-13.9544 4.0895,-22.0808 0,-8.1235 -1.3651,-15.4828 -4.0895,-22.0779 -2.7243,-6.5952 -6.5221,-12.2102 -11.3992,-16.848 z m -9.964,52.046 c -1.4818,3.967 -3.6053,7.406 -6.3763,10.3229 -2.7769,2.914 -6.0963,5.1833 -9.9641,6.8081 -3.8737,1.6276 -8.1965,2.4385 -12.9744,2.4385 -4.7837,0 -9.1065,-0.8109 -12.9801,-2.4385 -3.8678,-1.6248 -7.1931,-3.8941 -9.9641,-6.8081 -2.7711,-2.9169 -4.8945,-6.3559 -6.3763,-10.3229 -1.4818,-3.967 -2.2227,-8.3394 -2.2227,-13.1201 0,-4.6816 0.7409,-9.0307 2.2227,-13.0472 1.4818,-4.0137 3.6052,-7.476 6.3763,-10.3929 2.7711,-2.914 6.0963,-5.1833 9.9641,-6.8109 3.8736,-1.6248 8.1964,-2.4356 12.9801,-2.4356 4.7779,0 9.1007,0.8109 12.9744,2.4356 3.8678,1.6276 7.1872,3.8969 9.9641,6.8109 2.7711,2.9169 4.8945,6.3792 6.3763,10.3929 1.4818,4.0165 2.2227,8.3656 2.2227,13.0472 -1e-4,4.7807 -0.741,9.1531 -2.2227,13.1201 z"
   id="path37"
   inkscape:connector-curvature="0"
   style="fill:#ff7e3e" />
	<polygon
   class="st26"
   points="233.5266,74.5028 274.1005,176.0105 292.0219,176.0105 333.885,74.5028 309.9432,74.5028 284.4263,141.0283 284.1346,141.0283 259.0493,74.5028 "
   id="polygon39"
   style="fill:#ff7e3e" />
	<polygon
   class="st26"
   points="365.557,114.0733 365.557,95.1485 412.1514,95.1485 412.1514,74.5028 343.1903,74.5028 343.1903,176.0105 414.7299,176.0105 414.7299,155.3648 365.557,155.3648 365.557,134.719 409.5729,134.719 409.5729,114.0733 "
   id="polygon41"
   style="fill:#ff7e3e" />
	<path
   class="st26"
   d="m 498.5912,163.4273 -5.5043,-8.9356 -12.9439,-21.0133 c 0.3422,-0.0848 0.6642,-0.1926 0.9985,-0.2863 l -0.0291,-0.0482 c 0.3176,-0.0593 0.6135,-0.142 0.9243,-0.2085 5.6095,-1.7445 10.0762,-4.7931 13.2908,-9.1191 3.1755,-4.2737 5.0532,-9.3516 5.653,-15.1098 l -4.5673,-0.3091 c -0.1234,-0.008 -0.2323,-0.0526 -0.3295,-0.1134 -0.0278,-0.0174 -0.0482,-0.0424 -0.0731,-0.0631 -0.0654,-0.0546 -0.1191,-0.1149 -0.1606,-0.1877 -0.0107,-0.0179 -0.0289,-0.026 -0.0386,-0.0452 -4.0607,-8.0175 -5.0743,-16.8543 -5.5697,-18.6696 -0.0677,-0.248 0.006,-0.5099 0.1956,-0.6835 0.6219,-0.5692 2.3677,-2.4941 4.3524,-4.3629 -10e-4,-0.0019 -0.003,-0.0038 -0.004,-0.0057 0.0626,-0.0578 0.1282,-0.1176 0.193,-0.1768 0.0871,-0.1003 0.1741,-0.2008 0.1932,-0.1771 -1.0803,-1.0681 -2.2528,-2.0315 -3.5231,-2.8844 -3.4886,-2.3422 -7.549,-4.0136 -12.1868,-5.02 -4.6379,-1.0034 -9.5324,-1.5051 -14.6953,-1.5051 h -39.2846 v 101.5077 h 22.3667 v -40.5739 h 11.0434 l 21.2174,40.5739 h 26.3041 c -0.0294,-0.009 -0.0578,-0.0173 -0.0873,-0.0267 l -7.7348,-12.5566 z m -20.5589,-51.7896 c -1.196,1.5284 -2.7069,2.6514 -4.5212,3.369 -1.8143,0.7176 -3.8445,1.1464 -6.0905,1.2893 -2.246,0.1429 -4.3753,0.2158 -6.3821,0.2158 H 447.8483 V 93.4276 h 14.6253 c 2.0068,0 4.0603,0.1458 6.1663,0.4317 2.1002,0.2858 3.967,0.8372 5.5887,1.648 1.6276,0.8138 2.9636,1.9865 4.0136,3.512 1.0559,1.5314 1.581,3.5848 1.581,6.1663 0,2.7739 -0.6008,4.9237 -1.7909,6.4521 z"
   id="path43"
   inkscape:connector-curvature="0"
   style="fill:#ff7e3e" />
	<path
   class="st2"
   d="m 494.9783,84.0893 c 0.0649,-0.0593 0.1288,-0.118 0.1932,-0.1771 -0.0191,-0.0237 -0.1061,0.0768 -0.1932,0.1771 z"
   id="path45"
   inkscape:connector-curvature="0"
   style="fill:#231f20" />
	<g
   id="g47">
		<path
   class="st4"
   d="m 603.2832,108.3043 c -0.0784,-1.4655 -1.8531,-2.2773 -3.5083,-2.8476 -0.2365,-0.0815 -0.4703,-0.158 -0.6967,-0.2308 -0.2806,-0.0894 -0.5493,-0.1732 -0.7964,-0.2536 -0.2469,-0.0804 -0.4722,-0.1572 -0.6658,-0.2325 l 0,0 c -10e-5,-1e-4 -2e-4,-1e-4 -2e-4,-1e-4 -0.6962,-0.2739 -1.5601,-0.0739 -2.3225,0.2438 -5.6333,-2.2214 -14.3384,-5.7861 -17.985,-7.9803 -4.0795,-2.4545 -4.8429,-7.1266 -6.715,-11.7051 -0.3052,-0.746 -0.6443,-1.4874 -1.0278,-2.2185 -0.4941,-0.9424 -1.0596,-1.8666 -1.7571,-2.7461 -0.0398,-0.0502 -0.0953,-0.1097 -0.1389,-0.1622 0.1387,-0.0507 0.2557,-0.1327 0.3212,-0.2885 -1.0286,-1.2111 -2.6552,-2.6869 -4.3851,-4.1178 0.1409,-0.2862 0.387,-0.7995 0.5892,-1.2689 0.1437,-0.3314 0.2651,-0.6425 0.3132,-0.8368 0,0 -4.8162,-3.2965 -8.0492,-5.6921 -3.2327,-2.3943 -5.7556,-4.4507 -6.5076,-4.9532 -0.2717,-0.1819 -0.4719,-0.4631 -0.7646,-0.5663 -0.1755,-0.062 -0.3845,-0.0601 -0.6622,0.0659 -0.1617,0.073 -0.3479,0.1888 -0.5643,0.3585 -1.514,-1.0781 -4.1428,-2.5433 -5.067,-2.8441 -0.066,-0.0215 -0.1232,-0.037 -0.1708,-0.0461 -0.0479,-0.0091 -0.0859,-0.0117 -0.113,-0.0071 -0.4779,0.0798 -1.1377,0.4236 -0.7155,0.7937 0.098,0.086 0.3617,0.272 0.7091,0.5083 -0.3679,0.2125 -0.8291,0.509 -1.1487,0.7168 -0.166,-0.1168 -0.3301,-0.2262 -0.488,-0.3216 -0.2207,-0.135 -0.4275,-0.2443 -0.6077,-0.3143 -0.1799,-0.0699 -0.3335,-0.1005 -0.4473,-0.0778 -0.2053,0.041 -0.5239,0.1858 -0.8816,0.3773 -0.3208,0.171 -0.6716,0.3791 -1.0045,0.5842 -1.9902,-0.0742 -8.2775,0.2559 -14.7085,2.085 -4.0322,1.1467 -9.6121,5.7085 -13.7901,9.4897 -0.0212,0.0134 -0.0457,0.0281 -0.0666,0.0414 -4.2352,1.2848 -10.0889,6.1862 -14.2691,10.0189 -0.0744,0.0687 -0.1462,0.1382 -0.22,0.2072 0.009,-0.0104 0.0175,-0.0188 0.0272,-0.03 -9e-4,9e-4 -0.002,0.0017 -0.003,0.0026 9e-4,-0.001 0.002,-0.0017 0.002,-0.0027 -0.0648,0.0592 -0.1304,0.119 -0.193,0.1768 2e-4,2e-4 0.001,-0.001 0.001,-9e-4 -4e-4,3e-4 -7e-4,7e-4 -0.001,0.001 0.004,0.0044 0.0181,-0.0109 0.0268,-0.0158 -0.008,0.0071 -0.0152,0.0143 -0.0228,0.0214 -1.9846,1.8688 -3.7305,3.7937 -4.3524,4.3629 -0.1897,0.1736 -0.2633,0.4355 -0.1956,0.6835 0.4954,1.8153 1.509,10.6521 5.5697,18.6696 0.01,0.0192 0.0279,0.0273 0.0386,0.0452 0.0416,0.0729 0.0952,0.1332 0.1606,0.1877 0.0249,0.0208 0.0453,0.0457 0.0731,0.0631 0.0972,0.0608 0.2061,0.105 0.3295,0.1134 10e-5,0 2e-4,1e-4 4e-4,1e-4 l 4.5669,0.3091 c -0.5998,5.7581 -2.4774,10.8359 -5.653,15.1097 -3.2146,4.326 -7.6813,7.3746 -13.2908,9.1191 -0.2935,0.0912 -0.5955,0.1727 -0.8953,0.2567 -0.3344,0.0938 -0.6564,0.2015 -0.9985,0.2863 l 12.9439,21.0133 5.5043,8.9356 7.7347,12.5565 c 10e-5,1e-4 2e-4,1e-4 4e-4,1e-4 0.0295,0.01 0.0579,0.0173 0.0873,0.0267 18.6798,5.9797 30.1213,0.3811 32.7645,-2.0533 2.9326,-2.7009 -9.7549,-22.5023 -9.7549,-22.5023 0,0 3.4851,-21.0703 15.7986,-20.6907 1.4973,0.0462 2.7676,0.2628 3.8947,0.6036 1.8783,0.5679 3.359,1.4805 4.8295,2.5229 0.7478,0.53 1.4941,1.092 2.2876,1.6615 1.8357,1.3176 3.9299,2.6654 6.9138,3.6953 2.9839,1.03 6.8574,1.742 12.2522,1.788 1.8713,0.0161 3.5907,-0.1985 5.1885,-0.5826 0.0725,0.0538 0.155,0.0964 0.249,0.1257 0.094,0.0293 0.1995,0.0454 0.318,0.0464 5.4331,0.0454 14.8202,-4.0675 20.531,-18.507 1.734,-4.3847 1.5498,-7.8483 0.4723,-10.3077 0.6917,-1.3466 1.1487,-2.6735 1.1056,-3.4701 z"
   id="path49"
   inkscape:connector-curvature="0"
   style="fill:#4d4d4d" />
		<g
   id="g51">
			<path
   class="st5"
   d="m 591.2689,109.61 c -0.0117,-0.4368 0.1174,-0.8777 0.3179,-1.2935 -0.2005,0.4157 -0.3297,0.8566 -0.3179,1.2935 z"
   id="path53"
   inkscape:connector-curvature="0"
   style="fill:none" />
			<path
   class="st5"
   d="m 577.5831,130.4586 c -0.0664,-0.028 -0.1393,-0.0436 -0.2158,-0.0436 -0.0767,0 -0.1495,0.0156 -0.2158,0.0436 0.0663,-0.028 0.1392,-0.0435 0.2158,-0.0435 0.0765,0 0.1494,0.0155 0.2158,0.0435 z"
   id="path55"
   inkscape:connector-curvature="0"
   style="fill:none" />
			<path
   class="st5"
   d="m 578.3962,126.5038 c -0.0663,-0.028 -0.1393,-0.0436 -0.2158,-0.0436 -0.0765,0 -0.1494,0.0156 -0.2157,0.0436 0.0663,-0.028 0.1392,-0.0435 0.2157,-0.0435 0.0765,0 0.1495,0.0154 0.2158,0.0435 z"
   id="path57"
   inkscape:connector-curvature="0"
   style="fill:none" />
			<path
   class="st5"
   d="m 576.2161,128.0931 c -0.0664,-0.028 -0.1394,-0.0436 -0.2158,-0.0436 -0.0767,0 -0.1494,0.0156 -0.2158,0.0436 0.0664,-0.028 0.1392,-0.0435 0.2158,-0.0435 0.0764,0 0.1494,0.0155 0.2158,0.0435 z"
   id="path59"
   inkscape:connector-curvature="0"
   style="fill:none" />
			<path
   class="st5"
   d="m 541.3547,89.1256 c -0.6019,0.4601 -1.1991,0.9566 -1.7803,1.4822 v 1e-4 c 0.5812,-0.5256 1.1783,-1.0222 1.7804,-1.4822 h -10e-5 z"
   id="path61"
   inkscape:connector-curvature="0"
   style="fill:none" />
			<path
   class="st5"
   d="m 576.2161,125.1732 c -0.0664,-0.028 -0.1394,-0.0436 -0.2158,-0.0436 -0.0767,0 -0.1494,0.0156 -0.2158,0.0436 0.0664,-0.028 0.1392,-0.0435 0.2158,-0.0435 0.0764,0 0.1494,0.0155 0.2158,0.0435 z"
   id="path63"
   inkscape:connector-curvature="0"
   style="fill:none" />
			<path
   class="st5"
   d="m 557.5751,90.1249 c 0.0558,0.0781 0.0983,0.1602 0.1505,0.2393 -0.0522,-0.0791 -0.0947,-0.1612 -0.1505,-0.2393 -0.4636,-0.651 -1.0443,-1.216 -1.696,-1.6702 h -10e-5 c 0.6518,0.4542 1.2325,1.0193 1.6961,1.6702 z"
   id="path65"
   inkscape:connector-curvature="0"
   style="fill:none" />
			<path
   class="st5"
   d="m 574.811,130.4586 c -0.0663,-0.028 -0.1393,-0.0436 -0.2158,-0.0436 -0.0765,0 -0.1494,0.0156 -0.2157,0.0436 0.0663,-0.028 0.1392,-0.0435 0.2157,-0.0435 0.0765,0 0.1495,0.0155 0.2158,0.0435 z"
   id="path67"
   inkscape:connector-curvature="0"
   style="fill:none" />
			<polygon
   class="st5"
   points="512.1483,109.9546 512.1483,109.9546 512.1482,109.9545 "
   id="polygon69"
   style="fill:none" />
			<path
   class="st5"
   d="m 581.1741,125.9059 c -0.3062,0 -0.5544,0.2482 -0.5544,0.5543 v 1e-4 c 0,-0.3062 0.2483,-0.5544 0.5544,-0.5544 0.3062,1e-4 0.5544,0.2482 0.5544,0.5544 v -1e-4 c 10e-5,-0.3062 -0.2482,-0.5543 -0.5544,-0.5543 z"
   id="path71"
   inkscape:connector-curvature="0"
   style="fill:none" />
			<path
   class="st5"
   d="m 579.6036,124.0209 c 0.2297,0 0.4268,0.1396 0.5109,0.3386 -0.0842,-0.199 -0.2812,-0.3387 -0.5109,-0.3386 -0.2296,-1e-4 -0.4266,0.1396 -0.5107,0.3386 0.084,-0.1989 0.2811,-0.3386 0.5107,-0.3386 z"
   id="path73"
   inkscape:connector-curvature="0"
   style="fill:none" />
			<path
   class="st5"
   d="m 579.8006,128.6476 c -0.0663,-0.028 -0.1392,-0.0436 -0.2158,-0.0436 -0.0764,0 -0.1494,0.0156 -0.2158,0.0436 0.0664,-0.028 0.1394,-0.0435 0.2158,-0.0435 0.0766,-10e-5 0.1495,0.0154 0.2158,0.0435 z"
   id="path75"
   inkscape:connector-curvature="0"
   style="fill:none" />
			<path
   class="st6"
   d="m 556.8382,114.8039 c 2.1223,-2.9589 4.8292,-4.6963 7.1226,-6.2794 2.5166,-1.7373 4.5343,-3.2883 4.7107,-6.054 0.115,-1.8002 -0.623,-3.3474 -1.5941,-4.8601 -1.8821,-2.9318 -4.6559,-5.7313 -3.9059,-9.9732 0.2083,-1.1771 0.5596,-3.1649 2.1667,-4 0.9803,-0.5095 2.8557,-0.6093 4.2273,-0.5576 -0.4944,-0.9424 -1.0597,-1.8666 -1.7571,-2.7461 -0.0398,-0.0502 -0.0955,-0.1097 -0.1392,-0.1622 -1.4128,0.5159 -6.297,-4.0217 -8.1707,-5.8353 0.1722,0.5627 0.2701,1.1158 0.2993,1.6512 0.012,0.2245 0.0129,0.4468 -4e-4,0.6647 0.559,1.1095 1.4418,3.2032 1.3141,5.1631 -0.1597,2.4493 -1.0298,4.8171 -5.2325,6.6396 0.6517,0.4542 1.2324,1.0192 1.696,1.6702 0.0558,0.0781 0.0983,0.1603 0.1505,0.2394 v 1e-4 c 0.6028,0.9141 0.9803,1.8953 1.1223,2.9941 0.0193,0.1494 0.0312,0.3788 0.0275,0.6182 0.5267,0.6772 1.0153,1.3655 1.4529,2.0515 0.7174,1.1247 1.2988,2.2424 1.6891,3.2916 0.3901,1.0492 0.5891,2.0298 0.542,2.8805 -0.0315,0.5671 -0.1724,1.0764 -0.439,1.5097 -3.0664,4.9828 -14.8701,2.6698 -26.8252,0.1722 -0.9062,-0.3751 -1.4832,-0.9343 -1.8024,-1.6179 -0.0388,-0.0831 -0.0731,-0.1681 -0.1041,-0.2549 -0.002,-0.006 -0.003,-0.0122 -0.005,-0.0182 -0.079,-0.2255 -0.1304,-0.4635 -0.1594,-0.7117 -0.1165,-0.9948 0.1482,-2.1556 0.6997,-3.3903 1.0776,-2.4126 3.2231,-5.0859 5.6508,-7.2814 v -10e-5 c 0.5812,-0.5256 1.1783,-1.0221 1.7803,-1.4822 -1.5214,-0.5597 -2.9669,-1.3354 -4.2831,-2.3558 -0.0627,0.0711 -0.1248,0.1407 -0.1858,0.2087 -0.0383,0.0439 -0.0759,0.0863 -0.1124,0.1271 0.4969,0.4164 0.8024,0.8402 0.4867,1.327 -0.5854,0.9029 -1.6504,1.6348 -2.2493,3.2934 -0.1555,0.4326 -0.2773,0.7935 -0.3667,1.1017 -0.2502,0.8729 -0.2301,1.3126 0.0652,1.7076 l 0.156,0.1744 c 0.0664,0.0745 0.12,0.1458 0.1635,0.213 0.2817,0.4443 0.11,0.7476 0.0923,0.7756 l -9e-4,0.0015 -1.9194,1.2906 c -0.1494,0.045 -0.3649,0.0311 -0.6458,-0.1858 -0.0785,-0.0609 -0.1611,-0.1378 -0.2495,-0.2328 l -0.2776,-0.2995 c -1.8021,1.2213 -3.9445,2.6153 -6.1724,4.0665 -1.0345,5.0596 -2.5009,9.2347 -4.2328,10.866 -0.004,0.004 -0.008,0.009 -0.0122,0.0126 -0.0639,0.3605 -0.4229,0.6363 -0.8337,0.55 l -8.6284,-1.8129 h -10e-5 l -10e-5,-1e-4 -3.7154,-0.7806 -2.0455,-0.1384 c 1.1168,1.757 2.0547,3.5897 2.7903,5.4254 0.3483,0.8692 0.6617,1.739 0.908,2.6019 0.1533,0.537 0.2856,1.0712 0.3961,1.6009 0.2207,1.0593 0.3531,2.1002 0.3868,3.1078 0.1356,4.0526 -1.3231,7.5654 -5.0419,9.5671 -10.642,5.7283 -5.7851,24.2032 -7.2158,32.0531 l 7.7347,12.5565 c 0.0295,0.01 0.0579,0.0173 0.0873,0.0267 18.6798,5.9797 30.1213,0.3811 32.7645,-2.0533 2.9327,-2.7009 -9.7549,-22.5023 -9.7549,-22.5023 0,0 3.4852,-21.0703 15.7986,-20.6907 3.9928,0.1232 6.3716,1.4586 8.7245,3.1266 -1.6509,-9.6557 0.2764,-15.4314 2.8728,-19.051 z"
   id="path77"
   inkscape:connector-curvature="0"
   style="fill:#b3b3b3" />
			<path
   class="st7"
   d="m 598.9843,115.9177 c -1.952,8.9316 -6.6064,21.6697 -18.3771,24.4994 0.1453,0.1079 0.3301,0.17 0.5669,0.172 5.4331,0.0454 14.8202,-4.0675 20.531,-18.507 1.7341,-4.3847 1.5498,-7.8483 0.4724,-10.3077 -0.8624,1.6794 -2.0911,3.3875 -3.1932,4.1433 z"
   id="path79"
   inkscape:connector-curvature="0"
   style="fill:#cccccc" />
			<path
   class="st4"
   d="m 535.6544,64.0356 c 0.3193,-0.3295 0.6597,-0.6394 1.0215,-0.9209 0,0 0.6285,-0.429 1.3495,-0.8732 -1.9902,-0.0742 -8.2775,0.2559 -14.7085,2.085 -4.0322,1.1467 -9.6121,5.7085 -13.7901,9.4897 4.1347,-2.6291 13.0023,-6.7925 23.8405,-6.5309 0.6029,-1.1478 1.3554,-2.287 2.2871,-3.2497 z"
   id="path81"
   inkscape:connector-curvature="0"
   style="fill:#4d4d4d" />
			<path
   class="st8"
   d="m 598.9843,115.9177 c -0.4503,0.3088 -0.8793,0.4604 -1.2518,0.3828 -1.4329,-0.2998 -3.0701,-2.5995 -3.8501,-4.1646 -0.4194,-0.1614 -0.8621,-0.3721 -1.3313,-0.6467 -0.1226,-0.0713 -0.2144,-0.1484 -0.3171,-0.2235 -0.6827,-0.4982 -0.9492,-1.0733 -0.9651,-1.6558 -0.0117,-0.4369 0.1174,-0.8778 0.3179,-1.2935 0.2006,-0.4157 0.4723,-0.8062 0.7455,-1.1421 0.2732,-0.3359 0.5479,-0.6171 0.7543,-0.8145 0.1033,-0.0986 0.1892,-0.1763 0.2496,-0.2293 0.0603,-0.053 0.0948,-0.0814 0.0948,-0.0814 0,0 0.8396,-0.6392 1.8624,-1.0657 -5.6332,-2.2214 -14.3385,-5.7861 -17.9852,-7.9805 -4.0793,-2.4545 -4.8428,-7.1266 -6.7151,-11.7051 -0.3049,-0.746 -0.6443,-1.4874 -1.0276,-2.2185 -1.3716,-0.0516 -3.2469,0.0482 -4.2273,0.5576 -1.6072,0.8351 -1.9585,2.8229 -2.1667,4 -0.75,4.242 2.0238,7.0414 3.9059,9.9732 0.9711,1.5127 1.7091,3.0599 1.5941,4.8601 -0.1764,2.7657 -2.1941,4.3167 -4.7107,6.054 -2.2933,1.5831 -5.0002,3.3204 -7.1226,6.2794 -2.5964,3.6196 -4.5237,9.3954 -2.8728,19.0512 0.7478,0.53 1.4941,1.092 2.2876,1.6614 3.6714,2.6351 8.3765,5.3912 19.1656,5.4832 1.8713,0.0161 3.5907,-0.1985 5.1886,-0.5826 v 1e-4 c 11.7707,-2.8295 16.4251,-15.5675 18.3771,-24.4992 z m -23.8348,15.0518 c 0,0.3062 -0.248,0.5544 -0.5543,0.5544 -0.3063,0 -0.5544,-0.2483 -0.5544,-0.5544 v -1e-4 c 0,-0.1531 0.0621,-0.2917 0.1625,-0.392 0.05,-0.0502 0.1099,-0.0908 0.1763,-0.1188 0.0663,-0.028 0.1392,-0.0436 0.2157,-0.0436 0.0765,0 0.1495,0.0156 0.2158,0.0436 0.0663,0.0281 0.1261,0.0687 0.1761,0.1188 0.1003,0.1004 0.1623,0.239 0.1623,0.3921 l 0,0 z m 1.4051,-2.3655 c 0,0.3062 -0.2482,0.5544 -0.5543,0.5544 -0.3063,0 -0.5544,-0.2483 -0.5544,-0.5544 v -1e-4 c 0,-0.1531 0.062,-0.2917 0.1624,-0.392 0.0502,-0.0502 0.1099,-0.0908 0.1763,-0.1188 0.0664,-0.028 0.1392,-0.0436 0.2158,-0.0436 0.0764,0 0.1494,0.0156 0.2158,0.0436 0.0663,0.0281 0.126,0.0687 0.1761,0.1188 0.1003,0.1004 0.1623,0.239 0.1623,0.3921 l 0,0 z m 0,-2.9199 c 0,0.3062 -0.2482,0.5544 -0.5543,0.5544 -0.3063,0 -0.5544,-0.2483 -0.5544,-0.5544 v -1e-4 c 0,-0.1531 0.062,-0.2917 0.1624,-0.392 0.0502,-0.0502 0.1099,-0.0908 0.1763,-0.1188 0.0664,-0.028 0.1392,-0.0436 0.2158,-0.0436 0.0764,0 0.1494,0.0156 0.2158,0.0436 0.0663,0.0281 0.126,0.0687 0.1761,0.1188 0.1003,0.1004 0.1623,0.239 0.1623,0.3921 l 0,0 z m 1.3671,5.2854 c 0,0.3062 -0.2483,0.5544 -0.5544,0.5544 -0.3061,0 -0.5544,-0.2483 -0.5544,-0.5544 v -1e-4 c 0,-0.1531 0.062,-0.2917 0.1624,-0.392 0.0503,-0.0502 0.1099,-0.0908 0.1763,-0.1188 0.0663,-0.028 0.1392,-0.0436 0.2158,-0.0436 0.0765,0 0.1494,0.0156 0.2158,0.0436 0.0662,0.0281 0.126,0.0687 0.1761,0.1188 0.1003,0.1004 0.1624,0.239 0.1624,0.3921 l 0,0 z m 0.813,-3.9548 c 0,0.3063 -0.2482,0.5544 -0.5543,0.5544 -0.3063,0 -0.5544,-0.2482 -0.5544,-0.5544 v -1e-4 c 0,-0.1531 0.0621,-0.2917 0.1625,-0.392 0.05,-0.0502 0.1099,-0.0908 0.1763,-0.1188 0.0663,-0.028 0.1392,-0.0436 0.2157,-0.0436 0.0765,0 0.1495,0.0156 0.2158,0.0436 0.0663,0.0281 0.1261,0.0687 0.1761,0.1188 0.1003,0.1003 0.1623,0.2389 0.1623,0.3921 l 0,0 z m 1.4045,2.1438 c 0,0.3062 -0.2482,0.5544 -0.5544,0.5544 -0.3062,0 -0.5543,-0.2483 -0.5543,-0.5544 v -1e-4 c 0,-0.1531 0.062,-0.2917 0.1624,-0.392 0.0502,-0.0502 0.1099,-0.0908 0.1761,-0.1188 0.0664,-0.028 0.1394,-0.0436 0.2158,-0.0436 0.0767,0 0.1495,0.0156 0.2158,0.0436 0.0664,0.0281 0.1261,0.0687 0.1763,0.1188 0.1003,0.1003 0.1623,0.2389 0.1623,0.3921 l 0,0 z m 0.0188,-4.5832 c 0,0.3062 -0.2483,0.5543 -0.5544,0.5543 -0.3061,0 -0.5544,-0.2482 -0.5544,-0.5543 v -1e-4 c 0,-0.0766 0.0156,-0.1495 0.0437,-0.2158 0.0841,-0.199 0.2811,-0.3386 0.5107,-0.3386 0.2297,0 0.4268,0.1396 0.5109,0.3386 0.028,0.0664 0.0435,0.1393 0.0435,0.2159 l 0,0 z m 1.5706,1.8849 c 0,0.3063 -0.2483,0.5544 -0.5544,0.5544 -0.3061,0 -0.5544,-0.2482 -0.5544,-0.5544 v -1e-4 c 0,-0.3062 0.2483,-0.5543 0.5544,-0.5543 0.3061,0 0.5544,0.2482 0.5544,0.5544 l 0,0 z"
   id="path83"
   inkscape:connector-curvature="0"
   style="fill:#e6e6e6" />
			<path
   class="st6"
   d="m 531.7075,87.191 c -0.5635,-0.3495 -1.2859,-0.0197 -2.0606,0.1522 -0.0283,0.0073 -0.058,0.0136 -0.0865,0.0197 -0.8074,0.1672 -0.4973,0.8893 -0.4973,0.8893 l 3.9782,4.4279 10e-4,-3e-4 c 0.1925,0.2147 0.5394,0.0731 0.7931,-0.4409 0.1083,-0.2202 0.2003,-0.5081 0.255,-0.865 0.1827,-1.1917 -0.1744,-2.0811 -0.5541,-2.4739 -0.3798,-0.393 -1.2455,-1.3476 -1.8291,-1.709 z"
   id="path85"
   inkscape:connector-curvature="0"
   style="fill:#b3b3b3" />
			<path
   class="st6"
   d="m 532.4993,85.5142 c -0.2501,0.3705 0.9968,1.4233 1.3828,1.8251 0.3871,0.4014 1.3619,1.3071 1.9349,1.246 0.5734,-0.0599 0.3243,-0.5191 0.1281,-0.7734 -0.1965,-0.2556 -2.262,-2.0135 -2.262,-2.0135 -0.4816,-0.4126 -0.9323,-0.6538 -1.1838,-0.2842 z"
   id="path87"
   inkscape:connector-curvature="0"
   style="fill:#b3b3b3" />
			<path
   class="st6"
   d="m 524.8768,71.7577 c 0.248,0.0455 0.3778,0.2521 0.5256,0.4564 1.3387,1.8513 1.9783,5.874 2.0679,10.6751 0.002,0.0822 0.004,0.164 0.005,0.2466 0.004,0.2681 0.005,0.5392 0.006,0.8118 0.003,0.762 -0.005,1.5381 -0.0278,2.3287 0.072,0.0303 0.1522,0.0615 0.2471,0.0919 0.0129,0.0045 0.0271,0.0087 0.0413,0.0129 0.3551,0.1088 0.8492,0.1936 1.4266,0.1039 0.447,-0.0679 0.9442,-0.2404 1.4639,-0.5847 1.8924,-1.2535 1.7027,-1.6954 2.4446,-1.69 0.5122,0.0029 0.9595,0.4596 1.4952,1.0164 l 0.3492,-0.2338 0.1395,-0.0934 c -3.9252,-4.4402 -3.9153,-10.381 -3.6843,-11.873 0.1487,-0.9637 0.7455,-3.3707 1.9906,-5.7411 -10.8382,-0.2616 -19.7058,3.9018 -23.8405,6.5309 -0.0106,0.0098 -0.0219,0.0197 -0.0325,0.0293 0.042,-0.0126 0.0879,-0.0341 0.1295,-0.0459 7.2263,-2.0553 14.2859,-2.2191 15.2531,-2.042 z"
   id="path89"
   inkscape:connector-curvature="0"
   style="fill:#b3b3b3" />
			<path
   class="st9"
   d="m 533.4239,95.2191 -6.0666,-6.715 c -0.0175,0.3087 -0.0359,0.6174 -0.0569,0.9279 l 5.6442,6.1114 c 0.3067,-0.2076 0.4793,-0.3243 0.4793,-0.3243 z"
   id="path91"
   inkscape:connector-curvature="0"
   style="fill:#bbbdbf" />
			<path
   class="st4"
   d="m 505.8266,131.3384 c 3.7188,-2.0016 5.1774,-5.5145 5.0419,-9.5671 -0.0337,-1.0076 -0.1661,-2.0485 -0.3868,-3.1078 -0.1104,-0.5297 -0.2428,-1.0639 -0.3961,-1.6009 -0.2463,-0.8629 -0.5597,-1.7327 -0.908,-2.6019 -0.7356,-1.8357 -1.6735,-3.6684 -2.7903,-5.4254 h -10e-5 v -1e-4 l -5.3871,-0.3646 c -0.5998,5.7582 -2.4774,10.8361 -5.653,15.1098 -3.2146,4.326 -7.6813,7.3746 -13.2908,9.1191 -0.2935,0.0912 -0.5955,0.1727 -0.8953,0.2567 -0.3344,0.0938 -0.6564,0.2015 -0.9985,0.2863 l 12.9439,21.0132 5.5043,8.9356 c 1.4308,-7.8496 -3.4262,-26.3246 7.2159,-32.0529 z"
   id="path93"
   inkscape:connector-curvature="0"
   style="fill:#4d4d4d" />
			<path
   class="st4"
   d="m 558.1126,94.4334 c 0,0 -0.484,-1.5874 -1.604,-2.5959 -0.7107,-0.6401 -1.6755,-1.0486 -2.9417,-0.665 -3.261,0.9883 -5.5339,2.9646 -7.9056,4.2493 -2.1147,1.1464 -4.9884,1.0079 -2.7352,-1.7432 1.022,-1.2469 2.0854,-2.4726 3.2715,-3.5228 -1.6626,-0.118 -3.2922,-0.4597 -4.8428,-1.0302 -0.6021,0.4601 -1.1992,0.9567 -1.7804,1.4822 -2.4276,2.1954 -4.5731,4.8688 -5.6508,7.2814 -0.5515,1.2346 -0.8162,2.3955 -0.6997,3.3903 0.0291,0.2482 0.0804,0.4862 0.1594,0.7117 0.002,0.006 0.003,0.0123 0.005,0.0182 0.031,0.0868 0.0653,0.1718 0.1041,0.2549 0.3192,0.6836 0.8961,1.2428 1.8024,1.6179 11.9551,2.4976 23.7588,4.8105 26.8252,-0.1722 0.2666,-0.4333 0.4075,-0.9426 0.439,-1.5097 0.0471,-0.8506 -0.1519,-1.8313 -0.542,-2.8805 -0.3903,-1.0491 -0.9717,-2.1669 -1.6891,-3.2916 -0.4376,-0.686 -0.9261,-1.3743 -1.4529,-2.0515 -0.0118,0.7411 -0.1771,1.5802 -0.7628,0.4567 z m 0.1897,6.1194 c -0.0111,0.0164 -0.0209,0.0311 -0.0339,0.0496 -0.0465,0.0657 -0.1058,0.1443 -0.179,0.2317 -0.0732,0.0876 -0.1602,0.1843 -0.2622,0.2866 -0.1531,0.1533 -0.3398,0.3188 -0.5642,0.4846 -0.0747,0.0552 -0.1537,0.1105 -0.2369,0.1653 -0.1664,0.1096 -0.3502,0.2174 -0.5522,0.3198 -0.3031,0.1536 -0.6475,0.2949 -1.037,0.4119 -0.3894,0.1168 -0.824,0.2092 -1.3074,0.2646 -0.4833,0.0557 -1.0155,0.0743 -1.6003,0.0441 -0.7798,-0.0404 -1.6531,-0.1681 -2.6289,-0.4122 -0.7373,-0.1844 -1.5336,-0.4358 -2.3918,-0.7656 -1.1875,-0.3513 -2.4795,-0.8353 -3.8867,-1.491 3.1797,-0.865 8.2306,-5.3466 10.1237,-5.2607 2.3608,0.1074 4.863,5.3745 4.863,5.3745 0,0 -0.0996,0.1173 -0.3062,0.2968 z"
   id="path95"
   inkscape:connector-curvature="0"
   style="fill:#4d4d4d" />
			<path
   class="st10"
   d="m 555.879,88.4547 c -0.6694,0.2904 -1.4154,0.5682 -2.2651,0.8289 -2.4283,0.7446 -4.9553,1.0469 -7.4163,0.8722 -1.186,1.0502 -2.2495,2.2758 -3.2715,3.5228 -2.2532,2.7511 0.6205,2.8895 2.7352,1.7432 2.3717,-1.2847 4.6447,-3.261 7.9056,-4.2493 1.2661,-0.3835 2.231,0.0249 2.9417,0.665 1.12,1.0085 1.604,2.5959 1.604,2.5959 0.5857,1.1235 0.751,0.2844 0.7628,-0.4568 0.004,-0.2394 -0.008,-0.4688 -0.0275,-0.6182 -0.142,-1.0989 -0.5195,-2.0801 -1.1223,-2.9941 v -1e-4 c -0.0522,-0.0791 -0.0947,-0.1612 -0.1505,-0.2393 -0.4636,-0.6509 -1.0443,-1.216 -1.6961,-1.6702 z"
   id="path97"
   inkscape:connector-curvature="0"
   style="fill:#808080" />
			<path
   class="st10"
   d="m 581.1741,125.9059 c -0.3062,0 -0.5544,0.2482 -0.5544,0.5543 0,0.3063 0.2483,0.5544 0.5544,0.5544 0.3061,0 0.5544,-0.2482 0.5544,-0.5544 10e-5,-0.3061 -0.2482,-0.5543 -0.5544,-0.5543 z"
   id="path99"
   inkscape:connector-curvature="0"
   style="fill:#808080" />
			<path
   class="st10"
   d="m 579.8006,128.6476 c -0.0663,-0.028 -0.1392,-0.0435 -0.2158,-0.0435 -0.0764,0 -0.1494,0.0155 -0.2158,0.0435 -0.0663,0.0281 -0.126,0.0687 -0.1761,0.1188 -0.1003,0.1003 -0.1624,0.239 -0.1624,0.392 v 1e-4 c 0,0.3062 0.2482,0.5544 0.5543,0.5544 0.3063,0 0.5544,-0.2483 0.5544,-0.5544 v -1e-4 c 0,-0.1531 -0.062,-0.2917 -0.1624,-0.392 -0.0501,-0.0502 -0.1098,-0.0908 -0.1762,-0.1188 z"
   id="path101"
   inkscape:connector-curvature="0"
   style="fill:#808080" />
			<path
   class="st10"
   d="m 576.2161,125.1732 c -0.0664,-0.028 -0.1394,-0.0435 -0.2158,-0.0435 -0.0767,0 -0.1494,0.0155 -0.2158,0.0435 -0.0664,0.0281 -0.1261,0.0687 -0.1763,0.1188 -0.1003,0.1003 -0.1624,0.239 -0.1624,0.392 v 1e-4 c 0,0.3062 0.2482,0.5544 0.5544,0.5544 0.3062,0 0.5543,-0.2483 0.5543,-0.5544 v -1e-4 c 0,-0.1531 -0.062,-0.2917 -0.1624,-0.392 -0.05,-0.0501 -0.1097,-0.0907 -0.176,-0.1188 z"
   id="path103"
   inkscape:connector-curvature="0"
   style="fill:#808080" />
			<path
   class="st10"
   d="m 576.2161,128.0931 c -0.0664,-0.028 -0.1394,-0.0435 -0.2158,-0.0435 -0.0767,0 -0.1494,0.0155 -0.2158,0.0435 -0.0664,0.0281 -0.1261,0.0687 -0.1763,0.1188 -0.1003,0.1003 -0.1624,0.239 -0.1624,0.392 v 1e-4 c 0,0.3062 0.2482,0.5544 0.5544,0.5544 0.3062,0 0.5543,-0.2483 0.5543,-0.5544 v -1e-4 c 0,-0.1531 -0.062,-0.2917 -0.1624,-0.392 -0.05,-0.0501 -0.1097,-0.0907 -0.176,-0.1188 z"
   id="path105"
   inkscape:connector-curvature="0"
   style="fill:#808080" />
			<path
   class="st10"
   d="m 578.3962,126.5038 c -0.0663,-0.028 -0.1393,-0.0435 -0.2158,-0.0435 -0.0765,0 -0.1494,0.0155 -0.2157,0.0435 -0.0664,0.0281 -0.1262,0.0687 -0.1763,0.1188 -0.1003,0.1003 -0.1625,0.239 -0.1625,0.392 v 1e-4 c 0,0.3063 0.2482,0.5544 0.5544,0.5544 0.3062,0 0.5543,-0.2482 0.5543,-0.5544 v -1e-4 c 0,-0.1531 -0.062,-0.2917 -0.1624,-0.392 -0.0499,-0.0502 -0.1097,-0.0908 -0.176,-0.1188 z"
   id="path107"
   inkscape:connector-curvature="0"
   style="fill:#808080" />
			<path
   class="st10"
   d="m 579.6036,124.0209 c -0.2296,0 -0.4266,0.1396 -0.5107,0.3386 -0.0281,0.0663 -0.0437,0.1392 -0.0437,0.2158 v 1e-4 c 0,0.3062 0.2483,0.5543 0.5544,0.5543 0.3061,0 0.5544,-0.2482 0.5544,-0.5543 v -1e-4 c 0,-0.0766 -0.0155,-0.1495 -0.0436,-0.2158 -0.0841,-0.1989 -0.2811,-0.3386 -0.5108,-0.3386 z"
   id="path109"
   inkscape:connector-curvature="0"
   style="fill:#808080" />
			<path
   class="st10"
   d="m 577.5831,130.4586 c -0.0664,-0.028 -0.1393,-0.0435 -0.2158,-0.0435 -0.0767,0 -0.1495,0.0155 -0.2158,0.0435 -0.0664,0.0281 -0.126,0.0687 -0.1763,0.1188 -0.1003,0.1003 -0.1624,0.239 -0.1624,0.392 v 1e-4 c 0,0.3062 0.2483,0.5544 0.5544,0.5544 0.3061,0 0.5544,-0.2483 0.5544,-0.5544 v -1e-4 c 0,-0.1531 -0.0621,-0.2917 -0.1625,-0.392 -0.0501,-0.0501 -0.1099,-0.0907 -0.176,-0.1188 z"
   id="path111"
   inkscape:connector-curvature="0"
   style="fill:#808080" />
			<path
   class="st10"
   d="m 574.811,130.4586 c -0.0663,-0.028 -0.1393,-0.0435 -0.2158,-0.0435 -0.0765,0 -0.1494,0.0155 -0.2157,0.0435 -0.0664,0.0281 -0.1262,0.0687 -0.1763,0.1188 -0.1003,0.1003 -0.1625,0.239 -0.1625,0.392 v 1e-4 c 0,0.3062 0.2482,0.5544 0.5544,0.5544 0.3062,0 0.5543,-0.2483 0.5543,-0.5544 v -1e-4 c 0,-0.1531 -0.062,-0.2917 -0.1624,-0.392 -0.0499,-0.0501 -0.1097,-0.0907 -0.176,-0.1188 z"
   id="path113"
   inkscape:connector-curvature="0"
   style="fill:#808080" />
			<path
   class="st11"
   d="m 592.3322,107.1744 c -0.2732,0.3359 -0.5449,0.7264 -0.7455,1.1421 -0.2004,0.4158 -0.3296,0.8567 -0.3179,1.2935 0.0159,0.5825 0.2823,1.1576 0.9651,1.6558 0.1028,0.0751 0.1946,0.1522 0.3171,0.2235 0.4692,0.2747 0.9119,0.4854 1.3313,0.6467 0.78,1.5651 2.4172,3.8647 3.8501,4.1646 0.3726,0.0776 0.8015,-0.074 1.2518,-0.3828 1.1021,-0.7559 2.3308,-2.464 3.1932,-4.1433 0.6917,-1.3467 1.1486,-2.6736 1.1055,-3.4702 -0.0896,-1.6747 -2.3945,-2.4958 -4.2046,-3.0782 -0.5615,-0.1787 -1.0752,-0.3357 -1.4624,-0.4862 -0.6963,-0.2739 -1.5602,-0.0739 -2.3226,0.2439 -1.0228,0.4265 -1.8624,1.0657 -1.8624,1.0657 0,0 -0.0345,0.0283 -0.0948,0.0813 -0.0604,0.053 -0.1464,0.1307 -0.2496,0.2293 -0.2064,0.1972 -0.4811,0.4784 -0.7543,0.8143 z"
   id="path115"
   inkscape:connector-curvature="0"
   style="fill:#f4a9c9" />
			<path
   d="m 553.7453,94.8814 c -1.8931,-0.0858 -6.944,4.3958 -10.1237,5.2607 1.4072,0.6556 2.6992,1.1396 3.8867,1.491 -0.5615,-0.2159 -1.1495,-0.4651 -1.7656,-0.7522 0.2876,-0.3512 0.5973,-0.6946 0.9199,-1.0288 0.012,-0.0125 0.0232,-0.0251 0.0352,-0.0374 0.3213,-0.3311 0.6572,-0.6504 1.001,-0.9578 0.0118,-0.0106 0.0232,-0.0215 0.0352,-0.0321 0.3506,-0.312 0.709,-0.6088 1.0703,-0.8895 0.003,-0.0022 0.006,-0.0044 0.008,-0.0066 0.3662,-0.2842 0.7338,-0.5493 1.0983,-0.7943 10e-5,-1e-4 4e-4,-1e-4 5e-4,-4e-4 10e-5,0 4e-4,-2e-4 6e-4,-2e-4 0.3973,-0.2671 0.7891,-0.5085 1.1686,-0.72 6e-4,-5e-4 0.001,-7e-4 0.002,-0.0011 0.1853,-0.1031 0.3671,-0.1992 0.5452,-0.2876 0.006,-0.0028 0.0117,-0.006 0.0173,-0.0089 0.167,-0.0824 0.3293,-0.1572 0.4883,-0.2256 0.0167,-0.0073 0.0342,-0.0156 0.0508,-0.0227 0.1451,-0.0615 0.285,-0.1149 0.4221,-0.1637 0.0267,-0.0096 0.0549,-0.0214 0.0813,-0.0305 0.127,-0.0435 0.2473,-0.078 0.3657,-0.1096 0.0311,-0.0084 0.0646,-0.0199 0.0951,-0.0275 0.1125,-0.0276 0.2175,-0.0454 0.3209,-0.0612 0.0305,-0.0048 0.0642,-0.0133 0.0939,-0.017 0.129,-0.0156 0.2506,-0.022 0.3624,-0.0168 0.1423,0.0063 0.2853,0.0354 0.4282,0.0801 0.0481,0.0149 0.0961,0.0408 0.1442,0.0597 0.0948,0.0372 0.1893,0.0746 0.2837,0.1259 0.0555,0.0303 0.1102,0.0688 0.1655,0.1035 0.0868,0.0544 0.1735,0.1089 0.2593,0.1733 0.0551,0.0413 0.1091,0.0876 0.1637,0.1327 0.0857,0.0707 0.1709,0.1422 0.2551,0.2208 0.0508,0.0476 0.1006,0.0974 0.1509,0.1475 0.0874,0.0872 0.1736,0.1759 0.2588,0.2695 0.0437,0.048 0.0867,0.0964 0.1296,0.146 0.0914,0.1051 0.1809,0.2118 0.2689,0.3218 0.0333,0.0417 0.0663,0.0828 0.099,0.125 0.0986,0.127 0.1943,0.2546 0.2876,0.3844 0.0192,0.0266 0.0383,0.0527 0.0574,0.0793 0.1099,0.1549 0.2153,0.309 0.3162,0.4625 7e-4,0.001 0.002,0.002 0.002,0.0031 2e-4,6e-4 7e-4,0.0011 0.001,0.0017 0.7261,1.1051 1.2069,2.1124 1.2069,2.1124 0,0 -0.0333,0.0618 -0.1012,0.1619 0.2065,-0.1794 0.306,-0.2969 0.306,-0.2969 0,0 -2.5023,-5.267 -4.8631,-5.3744 z"
   id="path117"
   inkscape:connector-curvature="0" />
			<path
   class="st3"
   d="m 557.1966,98.2785 c -2e-4,-6e-4 -7e-4,-0.0011 -10e-4,-0.0017 v 1e-4 c 0.0479,0.2299 0.0745,0.4668 0.0745,0.7098 0,1.223 -0.6433,2.299 -1.6226,2.9708 -0.6536,0.4482 -1.4525,0.7214 -2.3251,0.7214 -0.5323,0 -1.0386,-0.1014 -1.502,-0.28 -1.4347,-0.5531 -2.4459,-1.871 -2.4459,-3.4122 0,-0.6759 0.1975,-1.3075 0.5367,-1.8525 v -1e-4 c -10e-5,2e-4 -4e-4,2e-4 -5e-4,4e-4 -0.3645,0.245 -0.7321,0.5101 -1.0983,0.7943 -0.003,0.0022 -0.006,0.0044 -0.008,0.0066 -0.3613,0.2808 -0.7197,0.5775 -1.0703,0.8895 -0.012,0.0106 -0.0233,0.0215 -0.0352,0.0321 -0.3438,0.3074 -0.6797,0.6267 -1.001,0.9578 -0.012,0.0122 -0.0232,0.0249 -0.0352,0.0374 -0.3226,0.3342 -0.6323,0.6776 -0.9199,1.0288 0.6161,0.2871 1.2041,0.5363 1.7656,0.7522 0.8583,0.3298 1.6545,0.5812 2.3918,0.7656 0.9758,0.2441 1.8491,0.3718 2.6289,0.4122 0.5848,0.0303 1.1171,0.0116 1.6003,-0.0441 0.4834,-0.0554 0.918,-0.1478 1.3074,-0.2646 0.3895,-0.1169 0.7339,-0.2583 1.037,-0.4119 0.202,-0.1024 0.3859,-0.2102 0.5522,-0.3198 0.0833,-0.0548 0.1622,-0.1101 0.2369,-0.1653 0.2244,-0.1658 0.4111,-0.3313 0.5642,-0.4846 0.1021,-0.1023 0.189,-0.199 0.2622,-0.2866 0.0731,-0.0874 0.1324,-0.166 0.179,-0.2317 0.0131,-0.0184 0.0228,-0.0332 0.0339,-0.0496 0.0679,-0.1001 0.1012,-0.1619 0.1012,-0.1619 0,0 -0.4804,-1.0073 -1.2065,-2.1124 z"
   id="path119"
   inkscape:connector-curvature="0"
   style="fill:#ffffff" />
			<path
   class="st12"
   d="m 549.3746,98.9867 c 0,1.5413 1.0112,2.8591 2.4459,3.4122 0.4634,0.1786 0.9696,0.28 1.502,0.28 0.8726,0 1.6715,-0.2732 2.3251,-0.7214 0.9792,-0.6719 1.6226,-1.7478 1.6226,-2.9708 0,-0.243 -0.0266,-0.48 -0.0745,-0.7098 v -1e-4 c -7e-4,-0.0011 -10e-4,-0.0021 -0.002,-0.0031 -0.1008,-0.1536 -0.2063,-0.3076 -0.3162,-0.4625 -0.019,-0.0266 -0.0382,-0.0527 -0.0574,-0.0793 -0.0933,-0.1298 -0.189,-0.2574 -0.2876,-0.3844 -0.0327,-0.0422 -0.0657,-0.0833 -0.099,-0.125 -0.088,-0.11 -0.1775,-0.2167 -0.2689,-0.3218 -0.043,-0.0496 -0.0859,-0.098 -0.1296,-0.146 -0.0852,-0.0936 -0.1714,-0.1824 -0.2588,-0.2695 -0.0503,-0.05 -0.1001,-0.0999 -0.1509,-0.1475 -0.0842,-0.0786 -0.1694,-0.1501 -0.2551,-0.2208 -0.0546,-0.045 -0.1086,-0.0914 -0.1637,-0.1327 -0.0858,-0.0645 -0.1725,-0.1189 -0.2593,-0.1733 -0.0553,-0.0347 -0.11,-0.0732 -0.1655,-0.1035 -0.0944,-0.0513 -0.1888,-0.0886 -0.2837,-0.1259 -0.0481,-0.0189 -0.0961,-0.0448 -0.1442,-0.0597 -0.1429,-0.0447 -0.2859,-0.0737 -0.4282,-0.0801 -0.1118,-0.0051 -0.2334,0.0012 -0.3624,0.0168 -0.0297,0.0037 -0.0634,0.0122 -0.0939,0.017 -0.1034,0.0157 -0.2084,0.0336 -0.3209,0.0612 -0.0305,0.0076 -0.064,0.019 -0.0951,0.0275 -0.1184,0.0316 -0.2388,0.0662 -0.3657,0.1096 -0.0264,0.0092 -0.0546,0.0209 -0.0813,0.0305 -0.1371,0.0488 -0.277,0.1022 -0.4221,0.1637 -0.0166,0.0071 -0.0341,0.0154 -0.0508,0.0227 -0.1589,0.0684 -0.3213,0.1432 -0.4883,0.2256 -0.006,0.0029 -0.0115,0.0061 -0.0173,0.0089 -0.1781,0.0884 -0.3599,0.1844 -0.5452,0.2876 -6e-4,4e-4 -10e-4,6e-4 -0.002,0.0011 -0.3795,0.2114 -0.7712,0.4529 -1.1686,0.72 -2e-4,0 -5e-4,2e-4 -6e-4,2e-4 v 1e-4 c -0.3393,0.545 -0.5368,1.1766 -0.5368,1.8525 z m 3.5879,-3.1 c 1.5081,0 2.7305,1.0747 2.7305,2.4005 0,1.3258 -1.2224,2.4006 -2.7305,2.4006 -1.5078,0 -2.7302,-1.0748 -2.7302,-2.4006 0,-1.3258 1.2224,-2.4005 2.7302,-2.4005 z"
   id="path121"
   inkscape:connector-curvature="0"
   style="fill:#00c1de" />
			<path
   class="st13"
   d="m 552.9625,100.6879 c 1.5081,0 2.7305,-1.0748 2.7305,-2.4006 0,-1.3258 -1.2224,-2.4005 -2.7305,-2.4005 -1.5078,0 -2.7302,1.0747 -2.7302,2.4005 0,1.3258 1.2224,2.4006 2.7302,2.4006 z M 550.6517,97.52 c 0,-0.7075 0.577,-1.2847 1.2847,-1.2847 0.7074,0 1.2845,0.5771 1.2845,1.2847 0,0.7076 -0.5771,1.2847 -1.2845,1.2847 -0.7077,0 -1.2847,-0.5771 -1.2847,-1.2847 z"
   id="path123"
   inkscape:connector-curvature="0"
   style="fill:#1a1a1a" />
			<path
   class="st3"
   d="m 553.2209,97.52 c 0,-0.7075 -0.5771,-1.2847 -1.2845,-1.2847 -0.7076,0 -1.2847,0.5771 -1.2847,1.2847 0,0.7076 0.577,1.2847 1.2847,1.2847 0.7073,0 1.2845,-0.5771 1.2845,-1.2847 z"
   id="path125"
   inkscape:connector-curvature="0"
   style="fill:#ffffff" />
			<path
   class="st14"
   d="m 551.3909,68.2691 c -2.8165,-2.2974 -6.5894,-3.2929 -6.8679,-3.3638 -1.062,0.3413 -1.9823,1.0765 -2.8151,1.801 -0.1851,0.1602 -0.3658,0.3218 -0.5431,0.4773 -0.6307,0.5535 -1.2598,1.1392 -1.8396,1.7686 -0.4722,0.5088 -0.9104,1.048 -1.2893,1.6191 -1.0427,1.5713 -0.6389,3.7202 -0.1758,5.4182 0.6014,2.2054 1.7117,3.7238 3.491,5.1577 1.5249,1.2286 3.3538,2.3057 5.3235,2.5733 1.6511,0.2241 3.4196,0.1616 4.9253,-0.6014 0.448,-0.2265 0.8843,-0.4735 1.3088,-0.7397 -0.1027,-0.2366 -0.2219,-0.4766 -0.354,-0.72 -2.4829,-4.5758 -9.8065,-10.2087 -12.6927,-12.3194 0.6523,-0.7645 1.7104,-1.6555 2.4996,-2.2798 2.0464,1.1401 5.7334,3.5209 8.5135,7.1412 0,0 -1.8505,-1.2782 -3.8158,-2.1489 2.1624,2.1544 5.432,5.6997 6.7999,8.672 0.1217,0.2644 0.2289,0.5233 0.3179,0.7778 0.475,-0.3604 0.9315,-0.7473 1.3666,-1.1562 1.0464,-0.9875 2.0022,-2.0419 2.3186,-3.4106 -0.7717,-3.1874 -3.8859,-6.5555 -6.4714,-8.6664 z"
   id="path127"
   inkscape:connector-curvature="0"
   style="fill:#868282" />
			<path
   class="st14"
   d="m 537.0633,64.2801 c -0.6526,0.8443 1.3928,1.8539 2.5049,2.3214 0.182,-0.162 0.3741,-0.3304 0.5752,-0.4999 -0.9177,-0.4297 -2.4468,-1.1811 -2.249,-1.6428 0.272,-0.6364 3.3234,-2.3374 3.5601,-2.465 -0.1663,-0.1168 -0.3304,-0.2263 -0.4884,-0.3218 -0.9212,0.4725 -3.204,1.7035 -3.9028,2.6081 z"
   id="path129"
   inkscape:connector-curvature="0"
   style="fill:#868282" />
			<path
   class="st14"
   d="m 534.5722,85.2268 c -0.5358,-0.5568 -0.983,-1.0135 -1.4952,-1.0164 -0.7419,-0.0054 -0.5522,0.4365 -2.4446,1.69 -0.5197,0.3444 -1.017,0.5168 -1.4639,0.5847 -0.5774,0.0897 -1.0715,0.0049 -1.4266,-0.1039 -0.0142,-0.0042 -0.0283,-0.0084 -0.0413,-0.0129 -0.0948,-0.0303 -0.1751,-0.0616 -0.2471,-0.0919 -0.0209,0.7339 -0.0538,1.4778 -0.0961,2.2277 l 6.0666,6.715 c 0,0 -0.1726,0.1168 -0.4792,0.3242 l 0.0613,0.0663 c -0.2306,0.1562 -0.5258,0.3564 -0.8799,0.5967 -0.0315,0.0214 -0.0665,0.0445 -0.0981,0.066 l 0.2776,0.2995 c 0.0884,0.095 0.171,0.1719 0.2495,0.2328 0.2809,0.2169 0.4963,0.2308 0.6458,0.1858 l 1.9194,-1.2906 9e-4,-0.0015 c 0.0177,-0.0281 0.1895,-0.3314 -0.0923,-0.7756 -0.0435,-0.0673 -0.097,-0.1385 -0.1635,-0.213 l -0.156,-0.1744 c -0.2953,-0.395 -0.3154,-0.8347 -0.0652,-1.7076 0.0894,-0.3082 0.2112,-0.6692 0.3667,-1.1017 0.5989,-1.6586 1.6638,-2.3905 2.2493,-3.2934 0.3157,-0.4868 0.0103,-0.9106 -0.4867,-1.327 -1.1373,-0.6363 -2.2014,-1.8788 -2.2014,-1.8788 z m -0.4814,6.1471 c -0.0547,0.3569 -0.1467,0.6448 -0.255,0.865 -0.2537,0.514 -0.6006,0.6556 -0.7931,0.4409 l -10e-4,3e-4 -3.9782,-4.4279 c 0,0 -0.3101,-0.7222 0.4973,-0.8893 0.0286,-0.006 0.0583,-0.0124 0.0865,-0.0197 0.7747,-0.1719 1.4971,-0.5017 2.0606,-0.1522 0.5836,0.3614 1.4493,1.316 1.8292,1.7089 0.3795,0.3929 0.7367,1.2823 0.554,2.474 z m 1.8543,-3.5621 c 0.1963,0.2543 0.4453,0.7136 -0.1281,0.7734 -0.573,0.0611 -1.5479,-0.8446 -1.9349,-1.246 -0.386,-0.4017 -1.6329,-1.4546 -1.3828,-1.8251 0.2515,-0.3696 0.7021,-0.1284 1.1838,0.2841 1e-4,1e-4 2.0655,1.7581 2.262,2.0136 z"
   id="path131"
   inkscape:connector-curvature="0"
   style="fill:#868282" />
			<path
   class="st15"
   d="m 536.2542,84.1018 -1.1932,0.7977 -0.1395,0.0934 c 0.3933,0.4195 1.4088,1.494 1.9644,1.9855 0.061,-0.068 0.123,-0.1376 0.1858,-0.2087 0.2708,-0.2999 0.5542,-0.6122 0.7732,-0.8439 -0.425,-1.687 -1.5907,-1.824 -1.5907,-1.824 z"
   id="path133"
   inkscape:connector-curvature="0"
   style="fill:#b0aeae" />
			<path
   class="st15"
   d="m 539.2038,85.2739 c 3.5864,2.8083 7.7128,2.5341 11.1029,2.1694 3.5845,-0.3872 6.2371,-3.3841 7.0811,-4.1717 0.7188,-0.669 1.7942,-4.0293 2.1144,-5.0732 -0.3676,1.0731 -1.0568,2.0145 -2.0173,2.7405 -2.2262,1.6849 -2.2452,1.9514 -4.4894,3.2261 -1.3811,0.7845 -4.5217,1.5795 -7.6238,0.7097 -1.7615,-0.4952 -3.3722,-1.5944 -4.8042,-2.7004 -1.7393,-1.3448 -3.0874,-2.6031 -3.7561,-4.7441 -0.4817,-1.5415 -1.217,-3.5096 -1.0037,-5.1514 0.0823,-0.6309 0.4531,-1.4982 1.0171,-2.4178 -1.4537,1.9663 -2.3472,4.9618 -2.2195,5.9664 0.1052,0.8311 0.2111,4.0942 2.3496,7.0972 0,1e-4 1.767,0.9492 2.2489,2.3493 z"
   id="path135"
   inkscape:connector-curvature="0"
   style="fill:#b0aeae" />
			<path
   class="st15"
   d="m 537.8943,64.4588 c -0.1978,0.4617 1.3313,1.213 2.249,1.6428 1.0059,-0.8502 2.2374,-1.7479 3.5427,-2.2879 0.6411,-0.2644 1.3007,-0.4419 1.9595,-0.4846 0.521,-0.0346 1.0415,0.0159 1.5533,0.1746 0.017,0.0048 0.0326,0.0099 0.0499,0.0159 2.8286,0.8958 5.8669,3.4906 5.8669,3.4906 0,0 2.3453,1.9306 4.2112,4.0212 1.5132,1.025 3.9871,2.8401 6.2783,4.7336 0.141,-0.2862 0.387,-0.7995 0.5894,-1.2689 0,0 -13.3593,-10.5571 -15.67,-11.9824 -0.1617,0.073 -0.3478,0.1889 -0.5646,0.3585 -1.73,-1.2321 -4.9165,-2.9698 -5.3506,-2.8973 -0.4779,0.0798 -1.1377,0.4236 -0.7155,0.7937 0.098,0.086 0.3617,0.272 0.7091,0.5083 -0.3679,0.2125 -0.8293,0.5091 -1.1487,0.7169 -0.2365,0.1275 -3.2879,1.8285 -3.5599,2.465 z"
   id="path137"
   inkscape:connector-curvature="0"
   style="fill:#b0aeae" />
			<path
   class="st15"
   d="m 547.0594,72.0524 c 1.9653,0.8707 3.8158,2.1489 3.8158,2.1489 -2.7802,-3.6202 -6.4672,-6.001 -8.5135,-7.1412 -0.7892,0.6243 -1.8473,1.5153 -2.4996,2.2798 2.8862,2.1107 10.2098,7.7436 12.6927,12.3194 0.1321,0.2434 0.2513,0.4835 0.354,0.72 0.4362,-0.2731 0.8594,-0.5652 1.2684,-0.8771 -0.089,-0.2545 -0.1962,-0.5134 -0.3179,-0.7778 -1.3679,-2.9722 -4.6376,-6.5175 -6.7999,-8.672 z"
   id="path139"
   inkscape:connector-curvature="0"
   style="fill:#b0aeae" />
			<path
   class="st16"
   d="m 534.9214,84.9929 -0.3492,0.2338 c 0,0 1.0641,1.2425 2.2012,1.8787 0.0365,-0.0408 0.0741,-0.0832 0.1124,-0.1271 -0.5555,-0.4914 -1.571,-1.5659 -1.9644,-1.9854 z"
   id="path141"
   inkscape:connector-curvature="0"
   style="fill:#d2d0ce" />
			<path
   class="st16"
   d="m 537.8448,85.9258 c 0.1504,0.0045 0.3044,-0.0116 0.4578,-0.0511 0.3743,-0.0963 0.6848,-0.3135 0.9012,-0.6008 -0.4819,-1.4001 -2.2489,-2.3492 -2.2489,-2.3492 -0.3921,0.2709 -0.6486,0.7032 -0.7007,1.1771 0,0 1.1657,0.137 1.5906,1.824 z"
   id="path143"
   inkscape:connector-curvature="0"
   style="fill:#d2d0ce" />
			<path
   class="st16"
   d="m 557.327,71.0314 c -1.8658,-2.0906 -4.2112,-4.0212 -4.2112,-4.0212 0,0 -3.0383,-2.5948 -5.8669,-3.4906 -0.0173,-0.006 -0.033,-0.0111 -0.0499,-0.0159 -0.5118,-0.1587 -1.0323,-0.2092 -1.5533,-0.1746 -0.6588,0.0427 -1.3184,0.2202 -1.9595,0.4846 -1.3053,0.54 -2.5369,1.4377 -3.5427,2.2879 -0.201,0.1695 -0.3932,0.338 -0.5752,0.4999 -0.0691,0.0623 -0.1372,0.1229 -0.2029,0.183 -0.9998,0.9088 -1.8962,2.0264 -2.5405,3.0766 -0.564,0.9196 -0.9348,1.7869 -1.0171,2.4178 -0.2134,1.6418 0.522,3.6099 1.0037,5.1514 0.6687,2.1409 2.0168,3.3993 3.7561,4.7441 1.432,1.106 3.0427,2.2052 4.8042,2.7004 3.1021,0.8698 6.2427,0.0748 7.6238,-0.7097 2.2441,-1.2747 2.2632,-1.5413 4.4894,-3.2261 0.9606,-0.726 1.6498,-1.6674 2.0173,-2.7405 0.003,-0.0098 0.005,-0.0197 0.009,-0.0298 0.0117,-0.0358 0.0214,-0.0696 0.0306,-0.0995 0.004,-0.0114 0.007,-0.0228 0.01,-0.0327 0.0142,-0.0468 0.0242,-0.0834 0.0325,-0.1078 0.002,-0.0071 0.004,-0.0142 0.006,-0.0213 2e-4,-0.004 0.002,-0.007 0.003,-0.0098 0.002,-0.0031 0.002,-0.0059 0.002,-0.0083 0.1122,-0.3978 0.1797,-0.8116 0.2023,-1.2374 0.0133,-0.218 0.0123,-0.4402 4e-4,-0.6647 -0.0292,-0.5354 -0.1271,-1.0885 -0.2993,-1.6512 -0.0104,-0.0405 -0.0232,-0.0803 -0.0361,-0.1202 -0.3,-0.9315 -1.1506,-2.0811 -2.1357,-3.1844 z m 0.5354,5.9039 c -0.3164,1.3687 -1.2722,2.4232 -2.3186,3.4106 -0.4351,0.4089 -0.8916,0.7959 -1.3666,1.1562 -0.4091,0.312 -0.8323,0.604 -1.2684,0.8771 -0.4246,0.2662 -0.8608,0.5132 -1.3088,0.7397 -1.5057,0.7629 -3.2742,0.8255 -4.9253,0.6014 -1.9697,-0.2676 -3.7986,-1.3447 -5.3235,-2.5733 -1.7793,-1.4339 -2.8895,-2.9523 -3.491,-5.1577 -0.4631,-1.698 -0.8669,-3.8469 0.1758,-5.4182 0.3789,-0.5712 0.8171,-1.1104 1.2893,-1.6191 0.5798,-0.6293 1.2089,-1.2151 1.8396,-1.7686 0.1772,-0.1555 0.358,-0.3171 0.5431,-0.4773 0.8328,-0.7245 1.7531,-1.4597 2.8151,-1.801 0.1641,-0.054 0.3307,-0.0981 0.5016,-0.1304 2.7731,-0.5304 5.8812,1.7155 7.9371,3.3295 0.9507,0.7457 1.8551,1.5714 2.681,2.4526 1.334,1.4216 2.3607,3.4796 2.3315,5.4613 -0.005,0.3218 -0.0431,0.626 -0.1119,0.9172 z"
   id="path145"
   inkscape:connector-curvature="0"
   style="fill:#d2d0ce" />
			<path
   class="st16"
   d="m 564.5079,73.6593 c 0,0 -4.8162,-3.2965 -8.0492,-5.6921 -3.2325,-2.3943 -5.7555,-4.4507 -6.5076,-4.9532 -0.4347,-0.2911 -0.6862,-0.8361 -1.4265,-0.5003 2.3108,1.4254 15.67,11.9824 15.67,11.9824 0.1437,-0.3314 0.2652,-0.6425 0.3133,-0.8368 z"
   id="path147"
   inkscape:connector-curvature="0"
   style="fill:#d2d0ce" />
			<path
   class="st17"
   d="m 533.0059,95.6096 -0.0613,-0.0663 -5.6442,-6.1114 c -0.2502,3.7063 -0.7493,7.5046 -1.4449,10.9069 2.228,-1.4512 4.3703,-2.8453 6.1724,-4.0665 0.0317,-0.0215 0.0667,-0.0446 0.0981,-0.066 0.3542,-0.2403 0.6493,-0.4405 0.8799,-0.5967 z"
   id="path149"
   inkscape:connector-curvature="0"
   style="fill:#77411c" />
			<path
   class="st17"
   d="m 535.6544,64.0356 c -0.9316,0.9627 -1.6842,2.1019 -2.2871,3.2497 -1.2451,2.3704 -1.8419,4.7774 -1.9906,5.7411 -0.231,1.4921 -0.2408,7.4328 3.6843,11.873 l 1.1932,-0.7977 c 0.0521,-0.4739 0.3086,-0.9062 0.7007,-1.1771 -2.1385,-3.003 -2.2444,-6.2661 -2.3496,-7.0972 -0.1277,-1.0046 0.7657,-4.0001 2.2195,-5.9664 0.6443,-1.0502 1.5408,-2.1678 2.5405,-3.0766 0.0657,-0.0601 0.1338,-0.1207 0.2029,-0.183 -1.1121,-0.4675 -3.1575,-1.4771 -2.5049,-2.3214 0.6989,-0.9046 2.9816,-2.1356 3.9027,-2.6082 -0.441,-0.2698 -0.8269,-0.4374 -1.0546,-0.3919 -0.2053,0.041 -0.5239,0.1858 -0.8816,0.3773 -0.3208,0.171 -0.6716,0.3791 -1.0045,0.5842 -0.7209,0.4442 -1.3495,0.8732 -1.3495,0.8732 -0.3618,0.2816 -0.7021,0.5915 -1.0214,0.921 z"
   id="path151"
   inkscape:connector-curvature="0"
   style="fill:#77411c" />
			<path
   class="st17"
   d="m 559.5934,77.8976 c -6e-4,0.0027 -0.002,0.0058 -0.003,0.0098 -0.002,0.0071 -0.004,0.0142 -0.006,0.0213 -0.008,0.0244 -0.0183,0.061 -0.0325,0.1078 -0.003,0.0098 -0.006,0.0212 -0.01,0.0327 -0.009,0.0298 -0.0189,0.0637 -0.0306,0.0995 -0.004,0.0101 -0.007,0.02 -0.009,0.0298 -0.3202,1.0439 -1.3956,4.4042 -2.1144,5.0732 -0.844,0.7876 -3.4966,3.7845 -7.0811,4.1717 -3.3901,0.3647 -7.5165,0.6389 -11.1029,-2.1694 -0.2164,0.2872 -0.527,0.5045 -0.9012,0.6008 -0.1533,0.0395 -0.3074,0.0556 -0.4578,0.0511 -0.219,0.2317 -0.5024,0.544 -0.7732,0.8439 1.3162,1.0204 2.7617,1.7962 4.2831,2.3558 h 1e-4 c 1.5505,0.5704 3.1802,0.9121 4.8428,1.0302 2.4609,0.1747 4.9879,-0.1276 7.4163,-0.8722 0.8497,-0.2607 1.5957,-0.5385 2.2651,-0.8289 h 10e-5 c 4.2028,-1.8226 5.0729,-4.1903 5.2325,-6.6396 0.1277,-1.9599 -0.7551,-4.0536 -1.3141,-5.1631 -0.0226,0.4257 -0.0901,0.8395 -0.2023,1.2374 8e-4,0.0023 2e-4,0.0051 -0.002,0.0082 z"
   id="path153"
   inkscape:connector-curvature="0"
   style="fill:#77411c" />
			<path
   class="st18"
   d="m 552.9617,68.1043 c -2.0559,-1.614 -5.1641,-3.8599 -7.9371,-3.3295 -0.1709,0.0322 -0.3375,0.0764 -0.5016,0.1304 0.2786,0.0709 4.0514,1.0665 6.8679,3.3638 2.5854,2.1109 5.6997,5.479 6.4714,8.6663 0.0688,-0.2912 0.1072,-0.5954 0.1119,-0.9171 0.0292,-1.9817 -0.9976,-4.0397 -2.3315,-5.4613 -0.8259,-0.8812 -1.7303,-1.7068 -2.681,-2.4526 z"
   id="path155"
   inkscape:connector-curvature="0"
   style="fill:#999999" />
			<path
   class="st17"
   d="m 559.4625,74.2158 c 0.0129,0.0399 0.0258,0.0798 0.0361,0.1202 1.8737,1.8135 6.7578,6.3511 8.1707,5.8353 0.1387,-0.0507 0.2559,-0.1327 0.3213,-0.2885 -1.0286,-1.2111 -2.655,-2.6869 -4.3853,-4.1178 -2.2913,-1.8935 -4.7651,-3.7086 -6.2783,-4.7336 0.9851,1.1033 1.8357,2.2529 2.1355,3.1844 z"
   id="path157"
   inkscape:connector-curvature="0"
   style="fill:#77411c" />
			<path
   class="st4"
   d="m 495.792,107.5086 c 1.6754,-6.2419 6.9061,-13.6787 12.2615,-17.66 3.564,-2.6516 9.1399,9.3677 13.5247,21.0157 0.0454,0.1206 0.0521,0.2408 0.0322,0.3531 0.004,-0.004 0.008,-0.009 0.0122,-0.0126 1.7319,-1.6312 3.1984,-5.8063 4.2328,-10.866 0.6956,-3.4023 1.1948,-7.2006 1.4449,-10.9069 0.021,-0.3104 0.0394,-0.6191 0.0569,-0.9279 0.0424,-0.7498 0.0752,-1.4937 0.0961,-2.2277 0.0226,-0.7906 0.0312,-1.5668 0.0278,-2.3287 -5e-4,-0.2725 -0.002,-0.5437 -0.006,-0.8118 -10e-4,-0.0826 -0.003,-0.1645 -0.005,-0.2466 -0.0895,-4.8011 -0.7291,-8.8239 -2.0679,-10.6751 -0.1478,-0.2043 -0.2776,-0.4109 -0.5256,-0.4564 -0.9672,-0.1771 -8.0269,-0.0133 -15.2531,2.0419 -0.0416,0.0118 -0.0875,0.0333 -0.1295,0.0459 -0.011,0.0033 -0.023,0.0088 -0.0341,0.0121 -4.2352,1.2848 -10.0889,6.1862 -14.2691,10.0189 -0.0755,0.0696 -0.1483,0.1403 -0.2232,0.2103 0.0106,-0.0121 0.0193,-0.0208 0.03,-0.0332 -0.0648,0.0592 -0.1304,0.119 -0.193,0.1768 0.004,0.0046 0.0196,-0.0125 0.0281,-0.0166 -0.008,0.0074 -0.0159,0.0149 -0.0237,0.0223 -1.9846,1.8688 -3.7305,3.7937 -4.3524,4.3629 -0.1897,0.1736 -0.2633,0.4355 -0.1956,0.6835 0.4954,1.8153 1.509,10.6521 5.5697,18.6696 0.01,0.0192 0.0279,0.0273 0.0386,0.0452 -0.0825,-0.1452 -0.1243,-0.3138 -0.0773,-0.4887 z"
   id="path159"
   inkscape:connector-curvature="0"
   style="fill:#4d4d4d" />
			<path
   class="st0"
   d="m 506.3872,109.0354 0,0 2.0455,0.1384 3.7154,0.7806 10e-5,10e-5 8.6284,1.8129 c 0.4109,0.0863 0.7698,-0.1895 0.8337,-0.55 0.0199,-0.1124 0.0132,-0.2325 -0.0322,-0.3531 -4.3849,-11.6481 -9.9607,-23.6673 -13.5247,-21.0157 -5.3554,3.9813 -10.5861,11.4182 -12.2615,17.66 -0.0469,0.1749 -0.005,0.3435 0.0777,0.4888 0.0416,0.0729 0.0952,0.1332 0.1606,0.1877 0.0249,0.0208 0.0453,0.0457 0.0731,0.0631 0.0972,0.0608 0.2061,0.105 0.3295,0.1134 l 4.5673,0.3091 5.3871,0.3647 0,0 z"
   id="path161"
   inkscape:connector-curvature="0"
   style="fill:#333333" />
		</g>
	</g>
	<path
   class="st26"
   d="m 551.9113,168.7571 h -2.3788 v -0.939 h 5.7586 v 0.939 h -2.3788 v 6.4471 h -1.0009 v -6.4471 z"
   id="path163"
   inkscape:connector-curvature="0"
   style="fill:#ff7e3e" />
	<path
   class="st26"
   d="m 556.2818,167.8181 h 1.4916 l 2.3474,5.5917 h 0.0416 l 2.327,-5.5917 h 1.4916 v 7.386 h -1.0018 v -6.0714 h -0.0204 l -2.4934,6.0714 h -0.6682 l -2.4934,-6.0714 h -0.0204 v 6.0714 h -1.0018 v -7.386 z"
   id="path165"
   inkscape:connector-curvature="0"
   style="fill:#ff7e3e" />
</g>
</svg>