<?xml version="1.0" encoding="utf-8"?>
<!-- Generator: Adobe Illustrator 22.1.0, SVG Export Plug-In . SVG Version: 6.00 Build 0)  -->
<svg version="1.1" id="Layer_1" xmlns="http://www.w3.org/2000/svg" xmlns:xlink="http://www.w3.org/1999/xlink" x="0px" y="0px"
	 viewBox="0 0 12.6875 14.5" style="enable-background:new 0 0 12.6875 14.5;" xml:space="preserve">
<style type="text/css">
	.st0{fill:#FF7F40;}
	.st1{fill:none;}
</style>
<g>
	<path class="st0" d="M0,1.3594c0-0.3776,0.1322-0.6986,0.3965-0.9629S0.9818,0,1.3594,0h9.9688
		c0.3776,0,0.6986,0.1322,0.9629,0.3965s0.3965,0.5853,0.3965,0.9629v11.7812c0,0.3776-0.1322,0.6986-0.3965,0.9629
		S11.7057,14.5,11.3281,14.5H1.3594c-0.3776,0-0.6986-0.1322-0.9629-0.3965S0,13.5182,0,13.1406V1.3594z M10.875,2.1523
		c0-0.0944-0.033-0.1746-0.0991-0.2407s-0.1463-0.0991-0.2407-0.0991H2.1523c-0.0944,0-0.1746,0.033-0.2407,0.0991
		S1.8125,2.0579,1.8125,2.1523v2.9453c0,0.0944,0.033,0.1746,0.0991,0.2407s0.1463,0.0991,0.2407,0.0991h8.3828
		c0.0944,0,0.1746-0.033,0.2407-0.0991s0.0991-0.1463,0.0991-0.2407V2.1523z M3.625,7.5898c0-0.0944-0.033-0.1746-0.0991-0.2407
		S3.3796,7.25,3.2852,7.25H2.1523c-0.0944,0-0.1746,0.033-0.2407,0.0991S1.8125,7.4954,1.8125,7.5898v1.1328
		c0,0.0944,0.033,0.1746,0.0991,0.2407s0.1463,0.0991,0.2407,0.0991h1.1328c0.0944,0,0.1746-0.033,0.2407-0.0991
		S3.625,8.8171,3.625,8.7227V7.5898z M3.625,11.2148c0-0.0944-0.033-0.1746-0.0991-0.2407S3.3796,10.875,3.2852,10.875H2.1523
		c-0.0944,0-0.1746,0.033-0.2407,0.0991s-0.0991,0.1463-0.0991,0.2407v1.1328c0,0.0944,0.033,0.1746,0.0991,0.2407
		s0.1463,0.0991,0.2407,0.0991h1.1328c0.0944,0,0.1746-0.033,0.2407-0.0991s0.0991-0.1463,0.0991-0.2407V11.2148z M7.25,7.5898
		c0-0.0944-0.033-0.1746-0.0991-0.2407S7.0046,7.25,6.9102,7.25H5.7773c-0.0944,0-0.1746,0.033-0.2407,0.0991
		S5.4375,7.4954,5.4375,7.5898v1.1328c0,0.0944,0.033,0.1746,0.0991,0.2407s0.1463,0.0991,0.2407,0.0991h1.1328
		c0.0944,0,0.1746-0.033,0.2407-0.0991S7.25,8.8171,7.25,8.7227V7.5898z M7.25,11.2148c0-0.0944-0.033-0.1746-0.0991-0.2407
		S7.0046,10.875,6.9102,10.875H5.7773c-0.0944,0-0.1746,0.033-0.2407,0.0991s-0.0991,0.1463-0.0991,0.2407v1.1328
		c0,0.0944,0.033,0.1746,0.0991,0.2407s0.1463,0.0991,0.2407,0.0991h1.1328c0.0944,0,0.1746-0.033,0.2407-0.0991
		S7.25,12.4421,7.25,12.3477V11.2148z M10.875,7.5898c0-0.0944-0.033-0.1746-0.0991-0.2407S10.6296,7.25,10.5352,7.25H9.4023
		c-0.0944,0-0.1746,0.033-0.2407,0.0991S9.0625,7.4954,9.0625,7.5898v4.7578c0,0.0944,0.033,0.1746,0.0991,0.2407
		s0.1463,0.0991,0.2407,0.0991h1.1328c0.0944,0,0.1746-0.033,0.2407-0.0991s0.0991-0.1463,0.0991-0.2407V7.5898z"/>
</g>
</svg>
