<?xml version="1.0" encoding="utf-8"?>
<!-- Generator: Adobe Illustrator 23.0.4, SVG Export Plug-In . SVG Version: 6.00 Build 0)  -->
<svg version="1.1" id="Layer_1" xmlns="http://www.w3.org/2000/svg" xmlns:xlink="http://www.w3.org/1999/xlink" x="0px" y="0px"
	 viewBox="0 0 101.3 101.3" style="enable-background:new 0 0 101.3 101.3;" xml:space="preserve">
<style type="text/css">
	.st0{fill:#FFFFFF;}
	.st1{fill:#565759;}
	.st2{fill:#F47641;}
	.st3{fill:#F8BB4A;}
	.st4{fill:#5E6062;}
	.st5{fill:#FF7E3E;}
	.st6{fill:#F9BB4B;}
	.st7{fill:none;}
	.st8{fill:#E6E6E6;}
	.st9{fill:#B3B3B3;}
	.st10{fill:#0D82DC;}
	.st11{fill:none;stroke:#5E6062;stroke-width:0.75;stroke-linecap:round;stroke-linejoin:round;stroke-miterlimit:10;}
	.st12{fill:#74A853;}
</style>
<g>
	<circle class="st0" cx="50.7" cy="50.7" r="43.8"/>
	<g>
		<path class="st6" d="M35,25.4l-2.7-2.8c-1.3-1.3-3.3-1.3-4.6-0.1l-4.4,4.3c-1.3,1.3-1.3,3.3-0.1,4.6l2.7,2.8L35,25.4z"/>
		<g>
			<path class="st6" d="M46.5,44.2l-9.6-9.8c-0.4-0.4-0.4-1.1,0-1.5l0.2-0.2c0.4-0.4,1.1-0.4,1.5,0l9.6,9.8l1.7-1.7L36.4,26.9
				l-9,8.8l13.7,14L46.5,44.2z"/>
			<path class="st6" d="M72.9,64.4L72.9,64.4L59.8,50.9l-1.7,1.7l9.1,9.3c0.4,0.4,0.4,1.1,0,1.5L67,63.7c-0.4,0.4-1.1,0.4-1.5,0
				l-9.1-9.3L51,59.8l13,13.3l0,0l0,0l10.4,4.3c1.6,0.7,3.2-0.9,2.6-2.5L72.9,64.4z M71.3,74c-0.1,0-0.2,0-0.2-0.1l-4.8-2.1
				c-0.3-0.1-0.4-0.6-0.1-0.8l4.6-4.5c0.3-0.2,0.7-0.2,0.8,0.2l2,4.8c0,0.1,0,0.2,0.1,0.2L71.3,74z"/>
		</g>
	</g>
	<path class="st4" d="M50.7,1.3C23.4,1.3,1.3,23.4,1.3,50.7S23.4,100,50.7,100S100,77.9,100,50.7S77.9,1.3,50.7,1.3z M50.7,6.8
		c10.8,0,20.8,3.9,28.4,10.5L17.3,79.1C10.8,71.4,6.8,61.5,6.8,50.7C6.8,26.4,26.4,6.8,50.7,6.8z M50.7,94.5c-11.1,0-21.3-4.2-29-11
		l61.9-61.9c6.8,7.7,11,17.9,11,29C94.5,74.9,74.9,94.5,50.7,94.5z"/>
</g>
</svg>
