<?xml version="1.0" encoding="utf-8"?>
<!-- Generator: Adobe Illustrator 23.0.4, SVG Export Plug-In . SVG Version: 6.00 Build 0)  -->
<svg version="1.1" id="Layer_1" xmlns="http://www.w3.org/2000/svg" xmlns:xlink="http://www.w3.org/1999/xlink" x="0px" y="0px"
	 viewBox="0 0 103.6 101.6" style="enable-background:new 0 0 103.6 101.6;" xml:space="preserve">
<style type="text/css">
	.st0{fill:#FFFFFF;}
	.st1{fill:#565759;}
	.st2{fill:#F47641;}
	.st3{fill:#F8BB4A;}
	.st4{fill:#5E6062;}
	.st5{fill:#FF7E3E;}
	.st6{fill:#F9BB4B;}
	.st7{fill:none;}
	.st8{fill:#E6E6E6;}
	.st9{fill:#B3B3B3;}
	.st10{fill:#0D82DC;}
	.st11{fill:none;stroke:#5E6062;stroke-width:0.75;stroke-linecap:round;stroke-linejoin:round;stroke-miterlimit:10;}
	.st12{fill:#74A853;}
</style>
<g>
	<path class="st4" d="M19.7,84.2h-3.6c-2.1,0-3.9-1.7-3.9-3.9V57.3c0-2.1,1.7-3.9,3.9-3.9h3.6c2.1,0,3.9,1.7,3.9,3.9v23.1
		C23.6,82.5,21.8,84.2,19.7,84.2z"/>
	<path class="st4" d="M35.2,84.2h-3.6c-2.1,0-3.9-1.7-3.9-3.9V45.6c0-2.1,1.7-3.9,3.9-3.9h3.6c2.1,0,3.9,1.7,3.9,3.9v34.8
		C39,82.5,37.3,84.2,35.2,84.2z"/>
	<path class="st6" d="M64,17.4c-2.5,0-4.5,2-4.5,4.5c0,0.4,0.1,0.7,0.1,1.1l-7.1,3.7c-0.8-1.3-2.2-2.2-3.8-2.2
		c-2.1,0-3.8,1.4-4.3,3.4L38,26.3c-0.1-2.4-2-4.3-4.5-4.3c-2.5,0-4.5,2-4.5,4.5c0,0.4,0.1,0.8,0.2,1.2l-7.8,4.9
		c-0.8-0.9-2-1.4-3.3-1.4c-2.5,0-4.5,2-4.5,4.5c0,2.5,2,4.5,4.5,4.5s4.5-2,4.5-4.5c0-0.4-0.1-0.8-0.2-1.1l7.8-4.9
		c0.8,0.9,2,1.4,3.2,1.4c1.8,0,3.3-1,4-2.5l7,1.6c0.5,1.9,2.2,3.3,4.3,3.3c2.5,0,4.5-2,4.5-4.5c0-0.1,0-0.1,0-0.2l7.4-3.9
		c0.8,0.9,2,1.5,3.3,1.5c2.5,0,4.5-2,4.5-4.5S66.5,17.4,64,17.4z"/>
	<path class="st2" d="M101.2,68.2L99,66c-1.7-1.7-4.3-1.6-5.9,0.1L74.2,85.7L64.5,76c-1.7-1.7-4.3-1.6-5.9,0.1l-2.1,2.2
		c-1.6,1.7-1.6,4.4,0.1,6.1l14.8,14.9c1.7,1.7,4.3,1.6,5.9-0.1l23.9-25C102.9,72.6,102.8,69.9,101.2,68.2z"/>
	<path class="st4" d="M53.6,75.5l0.9-1V49.7c0-2.1-1.7-3.9-3.9-3.9H47c-2.1,0-3.9,1.7-3.9,3.9v30.7c0,2.1,1.7,3.9,3.9,3.9h3.6
		c0.4,0,0.7-0.1,1.1-0.2C50.7,81.2,51.3,77.8,53.6,75.5z"/>
	<path class="st4" d="M61.5,70.7c2.2,0,4.3,0.8,5.9,2.4l2.6,2.6V39.3c0-2.1-1.7-3.9-3.9-3.9h-3.6c-2.1,0-3.9,1.7-3.9,3.9v32
		C59.6,70.9,60.5,70.7,61.5,70.7z"/>
	<path class="st4" d="M55.9,89.5H8.6c-1.7,0-3.1-1.4-3.1-3.1V8.4c0-1.7,1.4-3.1,3.1-3.1h66.2c1.7,0,3.1,1.4,3.1,3.1v67.6l4.2-4.4
		V5.9c0-2.7-2.2-4.8-4.8-4.8H5.9c-2.7,0-4.8,2.2-4.8,4.8v83c0,2.7,2.2,4.8,4.8,4.8h54.2L55.9,89.5z"/>
</g>
</svg>
